{
.appVersion = "1364";
DisplayStrings = (
A
);
copyright = "Copyright 2012 The Garoa Project Authors: Tony de Marco and Diego Maldonado (https://github.com/felipesanches/Garoa)";
customParameters = (
{
name = licenseURL;
value = "https://scripts.sil.org/OFL";
},
{
name = license;
value = "This Font Software is licensed under the SIL Open Font License, Version 1.1. This license is available with a FAQ at: https://scripts.sil.org/OFL";
},
{
name = panose;
value = (
0,
0,
0,
0,
0,
0,
0,
0,
0,
0
);
},
{
name = unicodeRanges;
value = (
0,
1,
2,
5,
31,
33,
35,
37,
38,
46,
60,
62
);
},
{
name = fsType;
value = (
2
);
},
{
name = glyphOrder;
value = (
.notdef,
space,
exclam,
exclamdown,
question,
questiondown,
at,
numbersign,
dollar,
percent,
ampersand,
asterisk,
parenleft,
parenright,
bracketleft,
bracketright,
braceleft,
braceright,
underscore,
hyphen,
plus,
minus,
multiply,
divide,
equal,
notequal,
zero,
one,
two,
three,
four,
five,
six,
seven,
eight,
nine,
A,
Aacute,
Atilde,
Acircumflex,
Adieresis,
Agrave,
A.alt1,
A.alt2,
A.alt2acute,
A.alt2circumflex,
A.alt2dieresis,
A.alt2grave,
A.alt2tilde,
A.alt4,
A.alt4acute,
A.alt4tilde,
A.alt4circumflex,
A.alt5,
A.alt5acute,
A.alt5tilde,
A.alt5circumflex,
A.alt6,
A.alt6acute,
A.alt6tilde,
A.alt6circumflex,
A.alt6dieresis,
A.alt6grave,
a,
aacute,
acircumflex,
adieresis,
agrave,
atilde,
B,
B.alt1,
B.alt2,
b,
C,
Ccedilla,
C.alt1,
C.alt1cedilla,
C.alt2,
C.alt2cedilla,
c,
D,
D.alt1,
D.alt2,
d,
E,
Eacute,
Ecircumflex,
Edieresis,
Egrave,
E.alt1,
E.alt1acute,
E.alt1circumflex,
E.alt2,
E.alt3,
E.alt3acute,
E.alt3circumflex,
E.alt3dieresis,
E.alt3grave,
e,
eacute,
ecircumflex,
edieresis,
egrave,
F,
F.alt,
f,
G,
G.alt1,
G.alt2,
g,
H,
H.alt,
h,
I,
Iacute,
Icircumflex,
Idieresis,
Igrave,
I.altacute,
I.altcircumflex,
I.altdieresis,
I.altgrave,
i,
iacute,
icircumflex,
idieresis,
igrave,
dotlessi,
J,
J.alt,
j,
K,
K.alt1,
K.alt2,
K.alt3,
k,
L,
L.alt,
l,
M,
M.alt1,
M.alt2,
M.alt3,
M.alt4,
M.alt5,
M.alt6,
m,
N,
Ntilde,
N.alt,
N.alt2,
N.alt2tilde,

glyphs = (
{
glyphname = exclam;
layers = (
{
hints = (
{
horizontal = 1;
place = "{0, 144}";
type = Stem;
},
{
horizontal = 1;
place = "{763, -20}";
target = down;
type = TopGhost;
},
{
place = "{100, 145}";
type = Stem;
}
);
layerId = "9F677CD6-B234-481A-8F27-4A5B4DD836E1";
paths = (
{
closed = 1;
nodes = (
"138 763 OFFCURVE",
"110 735 OFFCURVE",
"110 700 CURVE SMOOTH",
"110 237 LINE SMOOTH",
"110 202 OFFCURVE",
"138 174 OFFCURVE",
"173 174 CURVE SMOOTH",
"207 174 OFFCURVE",
"235 202 OFFCURVE",
"235 237 CURVE SMOOTH",
"235 700 LINE SMOOTH",
"235 735 OFFCURVE",
"207 763 OFFCURVE",
"173 763 CURVE SMOOTH"
);
},
{
closed = 1;
nodes = (
"245 32 OFFCURVE",
"213 0 OFFCURVE",
"173 0 CURVE SMOOTH",
"133 0 OFFCURVE",
"100 32 OFFCURVE",
"100 72 CURVE SMOOTH",
"100 112 OFFCURVE",
"133 144 OFFCURVE",
"173 144 CURVE SMOOTH",
"213 144 OFFCURVE",
"245 112 OFFCURVE",
"245 72 CURVE SMOOTH"
);
}
);
width = 285;
}
);
note = exclam;
unicode = 0021;
},
{
glyphname = exclamdown;
layers = (
{
hints = (
{
horizontal = 1;
place = "{0, 21}";
target = up;
type = BottomGhost;
},
{
horizontal = 1;
place = "{619, 144}";
type = Stem;
},
{
place = "{50, 125}";
type = Stem;
}
);
layerId = "9F677CD6-B234-481A-8F27-4A5B4DD836E1";
paths = (
{
closed = 1;
nodes = (
"147 0 OFFCURVE",
"175 28 OFFCURVE",
"175 63 CURVE SMOOTH",
"175 526 LINE SMOOTH",
"175 561 OFFCURVE",
"147 589 OFFCURVE",
"112 589 CURVE SMOOTH",
"78 589 OFFCURVE",
"50 561 OFFCURVE",
"50 526 CURVE SMOOTH",
"50 63 LINE SMOOTH",
"50 28 OFFCURVE",
"78 0 OFFCURVE",
"112 0 CURVE SMOOTH"
);
},
{
closed = 1;
nodes = (
"40 651 OFFCURVE",
"72 619 OFFCURVE",
"112 619 CURVE SMOOTH",
"152 619 OFFCURVE",
"185 651 OFFCURVE",
"185 691 CURVE SMOOTH",
"185 731 OFFCURVE",
"152 763 OFFCURVE",
"112 763 CURVE SMOOTH",
"72 763 OFFCURVE",
"40 731 OFFCURVE",
"40 691 CURVE SMOOTH"
);
}
);
width = 285;
}
);
note = exclamdown;
unicode = 00A1;
},
{
glyphname = question;
layers = (
{
hints = (
{
horizontal = 1;
place = "{0, 144}";
type = Stem;
},
{
horizontal = 1;
place = "{422, 235}";
type = Stem;
},
{
place = "{70, 126}";
type = Stem;
},
{
place = "{250, 126}";
type = Stem;
},
{
place = "{431, 125}";
type = Stem;
},
{
horizontal = 1;
place = "{174, 248}";
type = Stem;
},
{
horizontal = 1;
place = "{657, 126}";
type = Stem;
}
);
layerId = "9F677CD6-B234-481A-8F27-4A5B4DD836E1";
paths = (
{
closed = 1;
nodes = (
"179 783 OFFCURVE",
"70 674 OFFCURVE",
"70 540 CURVE SMOOTH",
"70 514 OFFCURVE",
"74 488 OFFCURVE",
"82 464 CURVE SMOOTH",
"93 431 OFFCURVE",
"129 413 OFFCURVE",
"162 424 CURVE SMOOTH",
"194 435 OFFCURVE",
"212 470 OFFCURVE",
"202 503 CURVE SMOOTH",
"198 515 OFFCURVE",
"196 527 OFFCURVE",
"196 540 CURVE SMOOTH",
"196 605 OFFCURVE",
"248 657 OFFCURVE",
"313 657 CURVE SMOOTH",
"378 657 OFFCURVE",
"431 605 OFFCURVE",
"431 540 CURVE SMOOTH",
"431 475 OFFCURVE",
"378 422 OFFCURVE",
"313 422 CURVE SMOOTH",
"279 422 OFFCURVE",
"250 394 OFFCURVE",
"250 359 CURVE SMOOTH",
"250 237 LINE SMOOTH",
"250 202 OFFCURVE",
"279 174 OFFCURVE",
"313 174 CURVE SMOOTH",
"348 174 OFFCURVE",
"376 202 OFFCURVE",
"376 237 CURVE SMOOTH",
"376 305 LINE",
"480 333 OFFCURVE",
"556 427 OFFCURVE",
"556 540 CURVE SMOOTH",
"556 674 OFFCURVE",
"447 783 OFFCURVE",
"313 783 CURVE SMOOTH"
);
},
{
closed = 1;
nodes = (
"385 32 OFFCURVE",
"353 0 OFFCURVE",
"313 0 CURVE SMOOTH",
"273 0 OFFCURVE",
"240 32 OFFCURVE",
"240 72 CURVE SMOOTH",
"240 112 OFFCURVE",
"273 144 OFFCURVE",
"313 144 CURVE SMOOTH",
"353 144 OFFCURVE",
"385 112 OFFCURVE",
"385 72 CURVE SMOOTH"
);
}
);
width = 591;
}
);
note = question;
unicode = 003F;
},
{
glyphname = questiondown;
layers = (
{
hints = (
{
horizontal = 1;
place = "{0, 126}";
type = Stem;
},
{
horizontal = 1;
place = "{361, 248}";
type = Stem;
},
{
horizontal = 1;
place = "{639, 144}";
type = Stem;
},
{
place = "{35, 125}";
type = Stem;
},
{
place = "{215, 126}";
type = Stem;
},
{
place = "{395, 126}";
type = Stem;
}
);
layerId = "9F677CD6-B234-481A-8F27-4A5B4DD836E1";
paths = (
{
closed = 1;
nodes = (
"412 0 OFFCURVE",
"521 109 OFFCURVE",
"521 243 CURVE SMOOTH",
"521 269 OFFCURVE",
"517 295 OFFCURVE",
"509 319 CURVE SMOOTH",
"498 352 OFFCURVE",
"462 370 OFFCURVE",
"429 359 CURVE SMOOTH",
"397 348 OFFCURVE",
"379 313 OFFCURVE",
"389 280 CURVE SMOOTH",
"393 268 OFFCURVE",
"395 256 OFFCURVE",
"395 243 CURVE SMOOTH",
"395 178 OFFCURVE",
"343 126 OFFCURVE",
"278 126 CURVE SMOOTH",
"213 126 OFFCURVE",
"160 178 OFFCURVE",
"160 243 CURVE SMOOTH",
"160 308 OFFCURVE",
"213 361 OFFCURVE",
"278 361 CURVE SMOOTH",
"312 361 OFFCURVE",
"341 389 OFFCURVE",
"341 424 CURVE SMOOTH",
"341 546 LINE SMOOTH",
"341 581 OFFCURVE",
"312 609 OFFCURVE",
"278 609 CURVE SMOOTH",
"243 609 OFFCURVE",
"215 581 OFFCURVE",
"215 546 CURVE SMOOTH",
"215 478 LINE",
"111 450 OFFCURVE",
"35 356 OFFCURVE",
"35 243 CURVE SMOOTH",
"35 109 OFFCURVE",
"144 0 OFFCURVE",
"278 0 CURVE SMOOTH"
);
},
{
closed = 1;
nodes = (
"206 671 OFFCURVE",
"238 639 OFFCURVE",
"278 639 CURVE SMOOTH",
"318 639 OFFCURVE",
"351 671 OFFCURVE",
"351 711 CURVE SMOOTH",
"351 751 OFFCURVE",
"318 783 OFFCURVE",
"278 783 CURVE SMOOTH",
"238 783 OFFCURVE",
"206 751 OFFCURVE",
"206 711 CURVE SMOOTH"
);
}
);
width = 591;
}
);
note = questiondown;
unicode = 00BF;
},
{
glyphname = at;
layers = (
{
hints = (
{
horizontal = 1;
place = "{-244, 125}";
type = Stem;
},
{
horizontal = 1;
place = "{54, 125}";
type = Stem;
},
{
horizontal = 1;
place = "{357, 126}";
type = Stem;
},
{
horizontal = 1;
place = "{655, 126}";
type = Stem;
},
{
place = "{35, 126}";
type = Stem;
},
{
place = "{333, 125}";
type = Stem;
},
{
place = "{637, 125}";
type = Stem;
},
{
place = "{934, 126}";
type = Stem;
}
);
layerId = "9F677CD6-B234-481A-8F27-4A5B4DD836E1";
paths = (
{
closed = 1;
nodes = (
"265 781 OFFCURVE",
"35 551 OFFCURVE",
"35 268 CURVE SMOOTH",
"35 -14 OFFCURVE",
"265 -244 OFFCURVE",
"548 -244 CURVE SMOOTH",
"658 -244 OFFCURVE",
"763 -209 OFFCURVE",
"852 -144 CURVE SMOOTH",
"880 -123 OFFCURVE",
"886 -84 OFFCURVE",
"865 -56 CURVE SMOOTH",
"845 -28 OFFCURVE",
"805 -22 OFFCURVE",
"777 -43 CURVE SMOOTH",
"710 -92 OFFCURVE",
"631 -119 OFFCURVE",
"548 -119 CURVE SMOOTH",
"334 -119 OFFCURVE",
"161 55 OFFCURVE",
"161 268 CURVE SMOOTH",
"161 482 OFFCURVE",
"334 655 OFFCURVE",
"548 655 CURVE SMOOTH",
"761 655 OFFCURVE",
"934 482 OFFCURVE",
"934 268 CURVE SMOOTH",
"934 220 OFFCURVE",
"895 179 OFFCURVE",
"848 179 CURVE SMOOTH",
"801 179 OFFCURVE",
"762 219 OFFCURVE",
"762 268 CURVE SMOOTH",
"762 387 OFFCURVE",
"666 483 OFFCURVE",
"548 483 CURVE SMOOTH",
"429 483 OFFCURVE",
"333 387 OFFCURVE",
"333 268 CURVE SMOOTH",
"333 150 OFFCURVE",
"429 54 OFFCURVE",
"548 54 CURVE SMOOTH",
"607 54 OFFCURVE",
"660 78 OFFCURVE",
"699 116 CURVE",
"737 78 OFFCURVE",
"790 54 OFFCURVE",
"848 54 CURVE SMOOTH",
"965 54 OFFCURVE",
"1060 150 OFFCURVE",
"1060 268 CURVE SMOOTH",
"1060 551 OFFCURVE",
"830 781 OFFCURVE",
"548 781 CURVE SMOOTH"
);
},
{
closed = 1;
nodes = (
"498 179 OFFCURVE",
"458 219 OFFCURVE",
"458 268 CURVE SMOOTH",
"458 317 OFFCURVE",
"498 357 OFFCURVE",
"548 357 CURVE SMOOTH",
"597 357 OFFCURVE",
"637 317 OFFCURVE",
"637 268 CURVE SMOOTH",
"637 219 OFFCURVE",
"597 179 OFFCURVE",
"548 179 CURVE SMOOTH"
);
}
);
width = 1095;
}
);
leftKerningGroup = at;
note = at;
rightKerningGroup = at;
unicode = 0040;
},
{
glyphname = numbersign;
layers = (
{
hints = (
{
horizontal = 1;
place = "{0, 21}";
target = up;
type = BottomGhost;
},
{
horizontal = 1;
place = "{173, 126}";
type = Stem;
},
{
horizontal = 1;
place = "{465, 126}";
type = Stem;
},
{
place = "{172, 125}";
type = Stem;
},
{
place = "{406, 126}";
type = Stem;
},
{
horizontal = 1;
place = "{1, 21}";
target = up;
type = BottomGhost;
},
{
place = "{70, 248}";
type = Stem;
},
{
place = "{406, 236}";
type = Stem;
}
);
layerId = "9F677CD6-B234-481A-8F27-4A5B4DD836E1";
paths = (
{
closed = 1;
nodes = (
"629 465 LINE SMOOTH",
"664 465 OFFCURVE",
"692 493 OFFCURVE",
"692 528 CURVE SMOOTH",
"692 563 OFFCURVE",
"664 591 OFFCURVE",
"629 591 CURVE SMOOTH",
"549 591 LINE",
"557 696 LINE SMOOTH",
"560 730 OFFCURVE",
"534 761 OFFCURVE",
"499 763 CURVE SMOOTH",
"465 766 OFFCURVE",
"434 740 OFFCURVE",
"432 706 CURVE SMOOTH",
"423 591 LINE",
"335 591 LINE",
"343 696 LINE SMOOTH",
"346 730 OFFCURVE",
"320 761 OFFCURVE",
"286 763 CURVE SMOOTH",
"251 766 OFFCURVE",
"221 740 OFFCURVE",
"218 706 CURVE SMOOTH",
"209 591 LINE",
"133 591 LINE SMOOTH",
"99 591 OFFCURVE",
"70 563 OFFCURVE",
"70 528 CURVE SMOOTH",
"70 493 OFFCURVE",
"99 465 OFFCURVE",
"133 465 CURVE SMOOTH",
"199 465 LINE",
"186 299 LINE",
"83 299 LINE SMOOTH",
"48 299 OFFCURVE",
"20 271 OFFCURVE",
"20 236 CURVE SMOOTH",
"20 201 OFFCURVE",
"48 173 OFFCURVE",
"83 173 CURVE SMOOTH",
"176 173 LINE",
"168 68 LINE SMOOTH",
"165 34 OFFCURVE",
"191 3 OFFCURVE",
"226 1 CURVE SMOOTH",
"227 1 OFFCURVE",
"229 0 OFFCURVE",
"231 0 CURVE SMOOTH",
"263 0 OFFCURVE",
"291 25 OFFCURVE",
"293 58 CURVE SMOOTH",
"302 173 LINE",
"390 173 LINE",
"381 68 LINE SMOOTH",
"379 34 OFFCURVE",
"405 3 OFFCURVE",
"439 1 CURVE SMOOTH",
"441 1 OFFCURVE",
"442 0 OFFCURVE",
"444 0 CURVE SMOOTH",
"477 0 OFFCURVE",
"504 25 OFFCURVE",
"507 58 CURVE SMOOTH",
"516 173 LINE",
"579 173 LINE SMOOTH",
"614 173 OFFCURVE",
"642 201 OFFCURVE",
"642 236 CURVE SMOOTH",
"642 271 OFFCURVE",
"614 299 OFFCURVE",
"579 299 CURVE SMOOTH",
"526 299 LINE",
"539 465 LINE"
);
},
{
closed = 1;
nodes = (
"400 299 LINE",
"312 299 LINE",
"325 465 LINE",
"413 465 LINE"
);
}
);
width = 712;
}
);
note = numbersign;
unicode = 0023;
},
{
glyphname = dollar;
layers = (
{
hints = (
{
horizontal = 1;
place = "{-88, 200}";
type = Stem;
},
{
horizontal = 1;
place = "{651, 202}";
type = Stem;
},
{
place = "{68, 123}";
type = Stem;
},
{
place = "{218, 129}";
type = Stem;
},
{
place = "{404, 123}";
type = Stem;
}
);
layerId = "9F677CD6-B234-481A-8F27-4A5B4DD836E1";
paths = (
{
closed = 1;
nodes = (
"525 354 OFFCURVE",
"440 441 OFFCURVE",
"294 476 CURVE SMOOTH",
"247 487 OFFCURVE",
"191 511 OFFCURVE",
"191 563 CURVE SMOOTH",
"190 611 OFFCURVE",
"228 650 OFFCURVE",
"275 651 CURVE SMOOTH",
"316 651 OFFCURVE",
"352 623 OFFCURVE",
"361 584 CURVE SMOOTH",
"369 551 OFFCURVE",
"402 530 OFFCURVE",
"435 538 CURVE SMOOTH",
"468 546 OFFCURVE",
"489 579 OFFCURVE",
"481 612 CURVE SMOOTH",
"464 684 OFFCURVE",
"411 740 OFFCURVE",
"344 763 CURVE",
"344 790 LINE SMOOTH",
"344 825 OFFCURVE",
"316 853 OFFCURVE",
"281 853 CURVE SMOOTH",
"246 853 OFFCURVE",
"218 825 OFFCURVE",
"218 790 CURVE SMOOTH",
"218 765 LINE",
"130 739 OFFCURVE",
"66 657 OFFCURVE",
"68 561 CURVE SMOOTH",
"69 461 OFFCURVE",
"141 386 OFFCURVE",
"265 357 CURVE SMOOTH",
"328 342 OFFCURVE",
"403 309 OFFCURVE",
"404 236 CURVE SMOOTH",
"405 203 OFFCURVE",
"393 172 OFFCURVE",
"370 149 CURVE SMOOTH",
"348 126 OFFCURVE",
"317 112 OFFCURVE",
"285 112 CURVE SMOOTH",
"284 112 OFFCURVE",
"283 112 OFFCURVE",
"283 112 CURVE",
"251 112 OFFCURVE",
"221 124 OFFCURVE",
"198 146 CURVE SMOOTH",
"175 169 OFFCURVE",
"162 199 OFFCURVE",
"161 231 CURVE SMOOTH",
"161 237 OFFCURVE",
"161 243 OFFCURVE",
"162 248 CURVE SMOOTH",
"166 282 OFFCURVE",
"142 313 OFFCURVE",
"109 317 CURVE SMOOTH",
"75 321 OFFCURVE",
"44 297 OFFCURVE",
"40 263 CURVE SMOOTH",
"39 252 OFFCURVE",
"38 241 OFFCURVE",
"38 229 CURVE SMOOTH",
"39 164 OFFCURVE",
"66 103 OFFCURVE",
"113 58 CURVE SMOOTH",
"144 28 OFFCURVE",
"181 7 OFFCURVE",
"222 -3 CURVE",
"222 -26 LINE SMOOTH",
"222 -60 OFFCURVE",
"250 -88 OFFCURVE",
"285 -88 CURVE SMOOTH",
"319 -88 OFFCURVE",
"347 -60 OFFCURVE",
"347 -26 CURVE SMOOTH",
"347 -2 LINE",
"389 9 OFFCURVE",
"428 32 OFFCURVE",
"459 64 CURVE SMOOTH",
"504 111 OFFCURVE",
"528 172 OFFCURVE",
"527 238 CURVE SMOOTH"
);
}
);
width = 567;
}
);
leftKerningGroup = dollar;
note = dollar;
rightKerningGroup = dollar;
unicode = 0024;
},
{
glyphname = percent;
layers = (
{
hints = (
{
horizontal = 1;
place = "{-2, 21}";
target = up;
type = BottomGhost;
},
{
horizontal = 1;
place = "{208, 126}";
type = Stem;
},
{
horizontal = 1;
place = "{438, 125}";
type = Stem;
},
{
horizontal = 1;
place = "{656, 126}";
type = Stem;
},
{
place = "{20, 125}";
type = Stem;
},
{
place = "{238, 126}";
type = Stem;
},
{
place = "{537, 125}";
type = Stem;
},
{
horizontal = 1;
place = "{-10, 125}";
type = Stem;
},
{
place = "{318, 125}";
type = Stem;
}
);
layerId = "9F677CD6-B234-481A-8F27-4A5B4DD836E1";
paths = (
{
closed = 1;
nodes = (
"567 776 OFFCURVE",
"528 769 OFFCURVE",
"508 740 CURVE SMOOTH",
"65 96 LINE SMOOTH",
"45 68 OFFCURVE",
"52 29 OFFCURVE",
"81 9 CURVE SMOOTH",
"92 1 OFFCURVE",
"104 -2 OFFCURVE",
"117 -2 CURVE SMOOTH",
"137 -2 OFFCURVE",
"156 7 OFFCURVE",
"168 25 CURVE SMOOTH",
"611 669 LINE SMOOTH",
"631 697 OFFCURVE",
"624 737 OFFCURVE",
"595 756 CURVE SMOOTH"
);
},
{
closed = 1;
nodes = (
"287 438 OFFCURVE",
"364 515 OFFCURVE",
"364 610 CURVE SMOOTH",
"364 705 OFFCURVE",
"287 782 OFFCURVE",
"192 782 CURVE SMOOTH",
"97 782 OFFCURVE",
"20 705 OFFCURVE",
"20 610 CURVE SMOOTH",
"20 515 OFFCURVE",
"97 438 OFFCURVE",
"192 438 CURVE SMOOTH"
);
},
{
closed = 1;
nodes = (
"218 656 OFFCURVE",
"238 635 OFFCURVE",
"238 610 CURVE SMOOTH",
"238 584 OFFCURVE",
"218 563 OFFCURVE",
"192 563 CURVE SMOOTH",
"166 563 OFFCURVE",
"145 584 OFFCURVE",
"145 610 CURVE SMOOTH",
"145 635 OFFCURVE",
"166 656 OFFCURVE",
"192 656 CURVE SMOOTH"
);
},
{
closed = 1;
nodes = (
"395 334 OFFCURVE",
"318 257 OFFCURVE",
"318 162 CURVE SMOOTH",
"318 67 OFFCURVE",
"395 -10 OFFCURVE",
"490 -10 CURVE SMOOTH",
"585 -10 OFFCURVE",
"662 67 OFFCURVE",
"662 162 CURVE SMOOTH",
"662 257 OFFCURVE",
"585 334 OFFCURVE",
"490 334 CURVE SMOOTH"
);
},
{
closed = 1;
nodes = (
"464 115 OFFCURVE",
"443 136 OFFCURVE",
"443 162 CURVE SMOOTH",
"443 188 OFFCURVE",
"464 208 OFFCURVE",
"490 208 CURVE SMOOTH",
"516 208 OFFCURVE",
"537 188 OFFCURVE",
"537 162 CURVE SMOOTH",
"537 136 OFFCURVE",
"516 115 OFFCURVE",
"490 115 CURVE SMOOTH"
);
}
);
width = 682;
}
);
note = percent;
unicode = 0025;
},
{
glyphname = ampersand;
layers = (
{
hints = (
{
horizontal = 1;
place = "{-242, 125}";
type = Stem;
},
{
horizontal = 1;
place = "{229, 125}";
type = Stem;
},
{
horizontal = 1;
place = "{660, 125}";
type = Stem;
},
{
place = "{30, 126}";
type = Stem;
},
{
place = "{418, 125}";
type = Stem;
},
{
place = "{634, 126}";
type = Stem;
},
{
place = "{113, 126}";
type = Stem;
}
);
layerId = "9F677CD6-B234-481A-8F27-4A5B4DD836E1";
paths = (
{
closed = 1;
nodes = (
"844 447 OFFCURVE",
"839 408 OFFCURVE",
"860 380 CURVE SMOOTH",
"875 361 OFFCURVE",
"881 338 OFFCURVE",
"878 314 CURVE SMOOTH",
"875 290 OFFCURVE",
"863 269 OFFCURVE",
"844 255 CURVE SMOOTH",
"805 225 OFFCURVE",
"749 232 OFFCURVE",
"719 271 CURVE SMOOTH",
"717 273 OFFCURVE",
"716 275 OFFCURVE",
"714 276 CURVE",
"676 328 OFFCURVE",
"618 354 OFFCURVE",
"561 354 CURVE SMOOTH",
"515 354 OFFCURVE",
"475 341 OFFCURVE",
"439 314 CURVE SMOOTH",
"394 278 OFFCURVE",
"365 228 OFFCURVE",
"357 171 CURVE SMOOTH",
"350 114 OFFCURVE",
"365 57 OFFCURVE",
"401 12 CURVE SMOOTH",
"422 -16 OFFCURVE",
"461 -21 OFFCURVE",
"489 1 CURVE SMOOTH",
"516 22 OFFCURVE",
"521 61 OFFCURVE",
"500 89 CURVE SMOOTH",
"485 108 OFFCURVE",
"479 131 OFFCURVE",
"482 155 CURVE SMOOTH",
"485 178 OFFCURVE",
"497 200 OFFCURVE",
"516 214 CURVE SMOOTH",
"530 225 OFFCURVE",
"543 229 OFFCURVE",
"561 229 CURVE SMOOTH",
"598 229 OFFCURVE",
"634 196 OFFCURVE",
"634 123 CURVE SMOOTH",
"634 -9 OFFCURVE",
"527 -117 OFFCURVE",
"395 -117 CURVE SMOOTH",
"263 -117 OFFCURVE",
"156 -9 OFFCURVE",
"156 123 CURVE SMOOTH",
"156 235 OFFCURVE",
"236 334 OFFCURVE",
"346 357 CURVE SMOOTH",
"378 363 OFFCURVE",
"400 393 OFFCURVE",
"396 426 CURVE SMOOTH",
"392 458 OFFCURVE",
"364 482 OFFCURVE",
"331 481 CURVE SMOOTH",
"307 480 OFFCURVE",
"284 489 OFFCURVE",
"267 505 CURVE SMOOTH",
"250 521 OFFCURVE",
"240 543 OFFCURVE",
"239 567 CURVE SMOOTH",
"238 591 OFFCURVE",
"246 614 OFFCURVE",
"263 631 CURVE SMOOTH",
"279 649 OFFCURVE",
"301 659 OFFCURVE",
"325 660 CURVE SMOOTH",
"374 661 OFFCURVE",
"416 623 OFFCURVE",
"418 574 CURVE SMOOTH",
"418 572 OFFCURVE",
"418 571 OFFCURVE",
"418 570 CURVE SMOOTH",
"417 536 OFFCURVE",
"445 507 OFFCURVE",
"480 507 CURVE SMOOTH",
"514 507 OFFCURVE",
"543 534 OFFCURVE",
"543 569 CURVE SMOOTH",
"543 572 OFFCURVE",
"543 575 OFFCURVE",
"543 578 CURVE SMOOTH",
"539 696 OFFCURVE",
"439 789 OFFCURVE",
"321 785 CURVE SMOOTH",
"263 783 OFFCURVE",
"210 759 OFFCURVE",
"171 717 CURVE SMOOTH",
"132 675 OFFCURVE",
"111 620 OFFCURVE",
"113 563 CURVE SMOOTH",
"115 507 OFFCURVE",
"138 455 OFFCURVE",
"179 416 CURVE",
"88 348 OFFCURVE",
"30 241 OFFCURVE",
"30 123 CURVE SMOOTH",
"30 -79 OFFCURVE",
"194 -242 OFFCURVE",
"395 -242 CURVE SMOOTH",
"593 -242 OFFCURVE",
"755 -84 OFFCURVE",
"760 113 CURVE",
"770 111 OFFCURVE",
"780 111 OFFCURVE",
"790 111 CURVE SMOOTH",
"836 111 OFFCURVE",
"882 125 OFFCURVE",
"921 155 CURVE SMOOTH",
"966 190 OFFCURVE",
"995 241 OFFCURVE",
"1003 298 CURVE SMOOTH",
"1010 355 OFFCURVE",
"995 411 OFFCURVE",
"960 457 CURVE SMOOTH",
"939 484 OFFCURVE",
"899 489 OFFCURVE",
"872 468 CURVE SMOOTH"
);
}
);
width = 1030;
}
);
note = ampersand;
unicode = 0026;
},
{
glyphname = asterisk;
layers = (
{
hints = (
{
horizontal = 1;
place = "{254, 21}";
target = up;
type = BottomGhost;
},
{
horizontal = 1;
place = "{748, -20}";
target = down;
type = TopGhost;
},
{
place = "{220, 125}";
type = Stem;
}
);
layerId = "9F677CD6-B234-481A-8F27-4A5B4DD836E1";
paths = (
{
closed = 1;
nodes = (
"282 375 LINE",
"351 280 LINE SMOOTH",
"364 263 OFFCURVE",
"383 254 OFFCURVE",
"402 254 CURVE SMOOTH",
"415 254 OFFCURVE",
"428 258 OFFCURVE",
"439 266 CURVE SMOOTH",
"467 286 OFFCURVE",
"473 326 OFFCURVE",
"453 354 CURVE SMOOTH",
"384 449 LINE",
"496 485 LINE SMOOTH",
"529 496 OFFCURVE",
"547 531 OFFCURVE",
"536 564 CURVE SMOOTH",
"525 597 OFFCURVE",
"490 615 OFFCURVE",
"457 604 CURVE SMOOTH",
"345 568 LINE",
"345 686 LINE SMOOTH",
"345 720 OFFCURVE",
"317 748 OFFCURVE",
"282 748 CURVE SMOOTH",
"248 748 OFFCURVE",
"220 720 OFFCURVE",
"220 686 CURVE SMOOTH",
"220 568 LINE",
"108 604 LINE SMOOTH",
"75 615 OFFCURVE",
"39 597 OFFCURVE",
"29 564 CURVE SMOOTH",
"18 531 OFFCURVE",
"36 496 OFFCURVE",
"69 485 CURVE SMOOTH",
"181 449 LINE",
"112 354 LINE SMOOTH",
"91 326 OFFCURVE",
"98 286 OFFCURVE",
"126 266 CURVE SMOOTH",
"137 258 OFFCURVE",
"150 254 OFFCURVE",
"162 254 CURVE SMOOTH",
"182 254 OFFCURVE",
"201 263 OFFCURVE",
"213 280 CURVE SMOOTH"
);
}
);
width = 565;
}
);
note = asterisk;
unicode = 002A;
},
{
glyphname = parenleft;
layers = (
{
hints = (
{
horizontal = 1;
place = "{-19, 126}";
type = Stem;
},
{
horizontal = 1;
place = "{658, 125}";
type = Stem;
},
{
place = "{44, 125}";
type = Stem;
}
);
layerId = "9F677CD6-B234-481A-8F27-4A5B4DD836E1";
paths = (
{
closed = 1;
nodes = (
"44 231 LINE SMOOTH",
"44 93 OFFCURVE",
"155 -19 OFFCURVE",
"293 -19 CURVE SMOOTH",
"328 -19 OFFCURVE",
"356 9 OFFCURVE",
"356 44 CURVE SMOOTH",
"356 79 OFFCURVE",
"328 107 OFFCURVE",
"293 107 CURVE SMOOTH",
"225 107 OFFCURVE",
"169 162 OFFCURVE",
"169 231 CURVE SMOOTH",
"169 534 LINE SMOOTH",
"169 602 OFFCURVE",
"225 658 OFFCURVE",
"293 658 CURVE SMOOTH",
"328 658 OFFCURVE",
"356 686 OFFCURVE",
"356 721 CURVE SMOOTH",
"356 755 OFFCURVE",
"328 783 OFFCURVE",
"293 783 CURVE SMOOTH",
"155 783 OFFCURVE",
"44 671 OFFCURVE",
"44 534 CURVE SMOOTH"
);
}
);
width = 386;
}
);
note = parenleft;
unicode = 0028;
},
{
glyphname = parenright;
layers = (
{
hints = (
{
horizontal = 1;
place = "{-19, 125}";
type = Stem;
},
{
horizontal = 1;
place = "{657, 126}";
type = Stem;
},
{
place = "{217, 125}";
type = Stem;
}
);
layerId = "9F677CD6-B234-481A-8F27-4A5B4DD836E1";
paths = (
{
closed = 1;
nodes = (
"342 533 LINE SMOOTH",
"342 671 OFFCURVE",
"231 783 OFFCURVE",
"93 783 CURVE SMOOTH",
"58 783 OFFCURVE",
"30 755 OFFCURVE",
"30 720 CURVE SMOOTH",
"30 685 OFFCURVE",
"58 657 OFFCURVE",
"93 657 CURVE SMOOTH",
"161 657 OFFCURVE",
"217 602 OFFCURVE",
"217 533 CURVE SMOOTH",
"217 230 LINE SMOOTH",
"217 162 OFFCURVE",
"161 106 OFFCURVE",
"93 106 CURVE SMOOTH",
"58 106 OFFCURVE",
"30 78 OFFCURVE",
"30 43 CURVE SMOOTH",
"30 9 OFFCURVE",
"58 -19 OFFCURVE",
"93 -19 CURVE SMOOTH",
"231 -19 OFFCURVE",
"342 93 OFFCURVE",
"342 230 CURVE SMOOTH"
);
}
);
width = 386;
}
);
note = parenright;
unicode = 0029;
},
{
glyphname = bracketleft;
layers = (
{
hints = (
{
horizontal = 1;
place = "{0, 125}";
type = Stem;
},
{
horizontal = 1;
place = "{637, 126}";
type = Stem;
},
{
place = "{50, 126}";
type = Stem;
}
);
layerId = "9F677CD6-B234-481A-8F27-4A5B4DD836E1";
paths = (
{
closed = 1;
nodes = (
"300 637 LINE SMOOTH",
"334 637 OFFCURVE",
"363 665 OFFCURVE",
"363 700 CURVE SMOOTH",
"363 735 OFFCURVE",
"334 763 OFFCURVE",
"300 763 CURVE SMOOTH",
"113 763 LINE SMOOTH",
"78 763 OFFCURVE",
"50 735 OFFCURVE",
"50 700 CURVE SMOOTH",
"50 62 LINE SMOOTH",
"50 28 OFFCURVE",
"78 0 OFFCURVE",
"113 0 CURVE SMOOTH",
"300 0 LINE SMOOTH",
"334 0 OFFCURVE",
"363 28 OFFCURVE",
"363 62 CURVE SMOOTH",
"363 97 OFFCURVE",
"334 125 OFFCURVE",
"300 125 CURVE SMOOTH",
"176 125 LINE",
"176 637 LINE"
);
}
);
width = 398;
}
);
note = bracketleft;
unicode = 005B;
},
{
glyphname = bracketright;
layers = (
{
hints = (
{
horizontal = 1;
place = "{0, 125}";
type = Stem;
},
{
horizontal = 1;
place = "{637, 126}";
type = Stem;
},
{
place = "{221, 126}";
type = Stem;
}
);
layerId = "9F677CD6-B234-481A-8F27-4A5B4DD836E1";
paths = (
{
closed = 1;
nodes = (
"97 763 LINE SMOOTH",
"63 763 OFFCURVE",
"35 735 OFFCURVE",
"35 700 CURVE SMOOTH",
"35 665 OFFCURVE",
"63 637 OFFCURVE",
"97 637 CURVE SMOOTH",
"221 637 LINE",
"221 125 LINE",
"97 125 LINE SMOOTH",
"63 125 OFFCURVE",
"35 97 OFFCURVE",
"35 62 CURVE SMOOTH",
"35 28 OFFCURVE",
"63 0 OFFCURVE",
"97 0 CURVE SMOOTH",
"284 0 LINE SMOOTH",
"319 0 OFFCURVE",
"347 28 OFFCURVE",
"347 62 CURVE SMOOTH",
"347 700 LINE SMOOTH",
"347 735 OFFCURVE",
"319 763 OFFCURVE",
"284 763 CURVE SMOOTH"
);
}
);
width = 397;
}
);
note = bracketright;
unicode = 005D;
},
{
glyphname = braceleft;
layers = (
{
hints = (
{
horizontal = 1;
place = "{-19, 125}";
type = Stem;
},
{
horizontal = 1;
place = "{657, 126}";
type = Stem;
},
{
place = "{116, 125}";
type = Stem;
},
{
place = "{20, 221}";
type = Stem;
}
);
layerId = "9F677CD6-B234-481A-8F27-4A5B4DD836E1";
paths = (
{
closed = 1;
nodes = (
"241 533 LINE SMOOTH",
"241 593 OFFCURVE",
"267 657 OFFCURVE",
"340 657 CURVE SMOOTH",
"375 657 OFFCURVE",
"403 685 OFFCURVE",
"403 720 CURVE SMOOTH",
"403 755 OFFCURVE",
"375 783 OFFCURVE",
"340 783 CURVE SMOOTH",
"208 783 OFFCURVE",
"116 680 OFFCURVE",
"116 533 CURVE SMOOTH",
"116 492 LINE SMOOTH",
"116 483 OFFCURVE",
"116 455 OFFCURVE",
"67 443 CURVE SMOOTH",
"39 436 OFFCURVE",
"20 410 OFFCURVE",
"20 382 CURVE SMOOTH",
"20 353 OFFCURVE",
"39 328 OFFCURVE",
"67 321 CURVE SMOOTH",
"116 309 OFFCURVE",
"116 281 OFFCURVE",
"116 271 CURVE SMOOTH",
"116 230 LINE SMOOTH",
"116 83 OFFCURVE",
"208 -19 OFFCURVE",
"340 -19 CURVE SMOOTH",
"375 -19 OFFCURVE",
"403 9 OFFCURVE",
"403 44 CURVE SMOOTH",
"403 78 OFFCURVE",
"375 106 OFFCURVE",
"340 106 CURVE SMOOTH",
"267 106 OFFCURVE",
"241 170 OFFCURVE",
"241 230 CURVE SMOOTH",
"241 271 LINE SMOOTH",
"241 314 OFFCURVE",
"227 352 OFFCURVE",
"201 382 CURVE",
"227 411 OFFCURVE",
"241 449 OFFCURVE",
"241 492 CURVE SMOOTH"
);
}
);
width = 433;
}
);
note = braceleft;
unicode = 007B;
},
{
glyphname = braceright;
layers = (
{
hints = (
{
horizontal = 1;
place = "{-19, 126}";
type = Stem;
},
{
horizontal = 1;
place = "{658, 125}";
type = Stem;
},
{
place = "{192, 125}";
type = Stem;
},
{
place = "{192, 221}";
type = Stem;
}
);
layerId = "9F677CD6-B234-481A-8F27-4A5B4DD836E1";
paths = (
{
closed = 1;
nodes = (
"192 231 LINE SMOOTH",
"192 171 OFFCURVE",
"166 107 OFFCURVE",
"93 107 CURVE SMOOTH",
"58 107 OFFCURVE",
"30 79 OFFCURVE",
"30 44 CURVE SMOOTH",
"30 9 OFFCURVE",
"58 -19 OFFCURVE",
"93 -19 CURVE SMOOTH",
"225 -19 OFFCURVE",
"317 84 OFFCURVE",
"317 231 CURVE SMOOTH",
"317 272 LINE SMOOTH",
"317 281 OFFCURVE",
"317 309 OFFCURVE",
"366 321 CURVE SMOOTH",
"394 328 OFFCURVE",
"413 354 OFFCURVE",
"413 382 CURVE SMOOTH",
"413 411 OFFCURVE",
"394 436 OFFCURVE",
"366 443 CURVE SMOOTH",
"317 455 OFFCURVE",
"317 483 OFFCURVE",
"317 493 CURVE SMOOTH",
"317 534 LINE SMOOTH",
"317 681 OFFCURVE",
"225 783 OFFCURVE",
"93 783 CURVE SMOOTH",
"58 783 OFFCURVE",
"30 755 OFFCURVE",
"30 720 CURVE SMOOTH",
"30 686 OFFCURVE",
"58 658 OFFCURVE",
"93 658 CURVE SMOOTH",
"166 658 OFFCURVE",
"192 594 OFFCURVE",
"192 534 CURVE SMOOTH",
"192 493 LINE SMOOTH",
"192 450 OFFCURVE",
"206 412 OFFCURVE",
"232 382 CURVE",
"206 353 OFFCURVE",
"192 315 OFFCURVE",
"192 272 CURVE SMOOTH"
);
}
);
width = 433;
}
);
note = braceright;
unicode = 007D;
},
{
glyphname = underscore;
layers = (
{
hints = (
{
horizontal = 1;
place = "{-90, 126}";
type = Stem;
}
);
layerId = "9F677CD6-B234-481A-8F27-4A5B4DD836E1";
paths = (
{
closed = 1;
nodes = (
"33 36 LINE SMOOTH",
"-2 36 OFFCURVE",
"-30 8 OFFCURVE",
"-30 -27 CURVE SMOOTH",
"-30 -62 OFFCURVE",
"-2 -90 OFFCURVE",
"33 -90 CURVE SMOOTH",
"486 -90 LINE SMOOTH",
"521 -90 OFFCURVE",
"549 -62 OFFCURVE",
"549 -27 CURVE SMOOTH",
"549 8 OFFCURVE",
"521 36 OFFCURVE",
"486 36 CURVE SMOOTH"
);
}
);
width = 519;
}
);
note = underscore;
unicode = 005F;
},
{
glyphname = hyphen;
layers = (
{
hints = (
{
horizontal = 1;
place = "{226, 126}";
type = Stem;
}
);
layerId = "9F677CD6-B234-481A-8F27-4A5B4DD836E1";
paths = (
{
closed = 1;
nodes = (
"88 352 LINE SMOOTH",
"53 352 OFFCURVE",
"25 324 OFFCURVE",
"25 289 CURVE SMOOTH",
"25 254 OFFCURVE",
"53 226 OFFCURVE",
"88 226 CURVE SMOOTH",
"326 226 LINE SMOOTH",
"361 226 OFFCURVE",
"389 254 OFFCURVE",
"389 289 CURVE SMOOTH",
"389 324 OFFCURVE",
"361 352 OFFCURVE",
"326 352 CURVE SMOOTH"
);
}
);
width = 414;
}
);
note = hyphen;
unicode = 002D;
},
{
glyphname = plus;
layers = (
{
hints = (
{
horizontal = 1;
place = "{-7, 21}";
target = up;
type = BottomGhost;
},
{
horizontal = 1;
place = "{182, 125}";
type = Stem;
},
{
horizontal = 1;
place = "{496, -20}";
target = down;
type = TopGhost;
},
{
place = "{219, 126}";
type = Stem;
}
);
layerId = "9F677CD6-B234-481A-8F27-4A5B4DD836E1";
paths = (
{
closed = 1;
nodes = (
"219 55 LINE SMOOTH",
"219 21 OFFCURVE",
"248 -7 OFFCURVE",
"282 -7 CURVE SMOOTH",
"317 -7 OFFCURVE",
"345 21 OFFCURVE",
"345 55 CURVE SMOOTH",
"345 182 LINE",
"471 182 LINE SMOOTH",
"506 182 OFFCURVE",
"534 210 OFFCURVE",
"534 245 CURVE SMOOTH",
"534 279 OFFCURVE",
"506 307 OFFCURVE",
"471 307 CURVE SMOOTH",
"345 307 LINE",
"345 434 LINE SMOOTH",
"345 468 OFFCURVE",
"317 496 OFFCURVE",
"282 496 CURVE SMOOTH",
"248 496 OFFCURVE",
"219 468 OFFCURVE",
"219 434 CURVE SMOOTH",
"219 307 LINE",
"93 307 LINE SMOOTH",
"58 307 OFFCURVE",
"30 279 OFFCURVE",
"30 245 CURVE SMOOTH",
"30 210 OFFCURVE",
"58 182 OFFCURVE",
"93 182 CURVE SMOOTH",
"219 182 LINE"
);
}
);
width = 564;
}
);
note = plus;
unicode = 002B;
},
{
glyphname = minus;
layers = (
{
hints = (
{
horizontal = 1;
place = "{182, 125}";
type = Stem;
}
);
layerId = "9F677CD6-B234-481A-8F27-4A5B4DD836E1";
paths = (
{
closed = 1;
nodes = (
"471 182 LINE SMOOTH",
"506 182 OFFCURVE",
"534 210 OFFCURVE",
"534 245 CURVE SMOOTH",
"534 279 OFFCURVE",
"506 307 OFFCURVE",
"471 307 CURVE SMOOTH",
"93 307 LINE SMOOTH",
"58 307 OFFCURVE",
"30 279 OFFCURVE",
"30 245 CURVE SMOOTH",
"30 210 OFFCURVE",
"58 182 OFFCURVE",
"93 182 CURVE SMOOTH"
);
}
);
width = 564;
}
);
note = minus;
unicode = 2212;
},
{
glyphname = multiply;
layers = (
{
hints = (
{
horizontal = 1;
place = "{23, 21}";
target = up;
type = BottomGhost;
}
);
layerId = "9F677CD6-B234-481A-8F27-4A5B4DD836E1";
paths = (
{
closed = 1;
nodes = (
"60 29 OFFCURVE",
"77 23 OFFCURVE",
"93 23 CURVE SMOOTH",
"109 23 OFFCURVE",
"125 29 OFFCURVE",
"137 41 CURVE SMOOTH",
"251 156 LINE",
"366 41 LINE SMOOTH",
"378 29 OFFCURVE",
"394 23 OFFCURVE",
"410 23 CURVE SMOOTH",
"426 23 OFFCURVE",
"442 29 OFFCURVE",
"455 41 CURVE SMOOTH",
"479 66 OFFCURVE",
"479 106 OFFCURVE",
"455 130 CURVE SMOOTH",
"340 245 LINE",
"442 346 LINE SMOOTH",
"467 371 OFFCURVE",
"467 411 OFFCURVE",
"442 435 CURVE SMOOTH",
"418 460 OFFCURVE",
"378 460 OFFCURVE",
"353 435 CURVE SMOOTH",
"251 333 LINE",
"150 435 LINE SMOOTH",
"125 460 OFFCURVE",
"85 460 OFFCURVE",
"61 435 CURVE SMOOTH",
"36 411 OFFCURVE",
"36 371 OFFCURVE",
"61 346 CURVE SMOOTH",
"163 245 LINE",
"48 130 LINE SMOOTH",
"24 106 OFFCURVE",
"24 66 OFFCURVE",
"48 41 CURVE SMOOTH"
);
}
);
width = 503;
}
);
note = multiply;
unicode = 00D7;
},
{
glyphname = divide;
layers = (
{
hints = (
{
horizontal = 1;
place = "{0, 21}";
target = up;
type = BottomGhost;
},
{
horizontal = 1;
place = "{126, 56}";
type = Stem;
},
{
horizontal = 1;
place = "{307, 56}";
type = Stem;
},
{
place = "{222, 125}";
type = Stem;
},
{
horizontal = 1;
place = "{363, 126}";
type = Stem;
}
);
layerId = "9F677CD6-B234-481A-8F27-4A5B4DD836E1";
paths = (
{
closed = 1;
nodes = (
"471 182 LINE SMOOTH",
"506 182 OFFCURVE",
"534 210 OFFCURVE",
"534 245 CURVE SMOOTH",
"534 279 OFFCURVE",
"506 307 OFFCURVE",
"471 307 CURVE SMOOTH",
"93 307 LINE SMOOTH",
"58 307 OFFCURVE",
"30 279 OFFCURVE",
"30 245 CURVE SMOOTH",
"30 210 OFFCURVE",
"58 182 OFFCURVE",
"93 182 CURVE SMOOTH"
);
},
{
closed = 1;
nodes = (
"301 0 OFFCURVE",
"317 7 OFFCURVE",
"329 19 CURVE SMOOTH",
"341 30 OFFCURVE",
"347 46 OFFCURVE",
"347 63 CURVE SMOOTH",
"347 79 OFFCURVE",
"341 96 OFFCURVE",
"329 107 CURVE SMOOTH",
"317 119 OFFCURVE",
"301 126 OFFCURVE",
"284 126 CURVE SMOOTH",
"268 126 OFFCURVE",
"252 119 OFFCURVE",
"240 107 CURVE SMOOTH",
"228 96 OFFCURVE",
"222 79 OFFCURVE",
"222 63 CURVE SMOOTH",
"222 46 OFFCURVE",
"228 30 OFFCURVE",
"240 19 CURVE SMOOTH",
"252 7 OFFCURVE",
"268 0 OFFCURVE",
"284 0 CURVE SMOOTH"
);
},
{
closed = 1;
nodes = (
"224 459 OFFCURVE",
"217 443 OFFCURVE",
"217 426 CURVE SMOOTH",
"217 410 OFFCURVE",
"224 394 OFFCURVE",
"236 382 CURVE SMOOTH",
"247 370 OFFCURVE",
"264 363 OFFCURVE",
"280 363 CURVE SMOOTH",
"297 363 OFFCURVE",
"313 370 OFFCURVE",
"325 382 CURVE SMOOTH",
"336 394 OFFCURVE",
"343 410 OFFCURVE",
"343 426 CURVE SMOOTH",
"343 443 OFFCURVE",
"336 459 OFFCURVE",
"325 471 CURVE SMOOTH",
"313 482 OFFCURVE",
"297 489 OFFCURVE",
"280 489 CURVE SMOOTH",
"264 489 OFFCURVE",
"247 482 OFFCURVE",
"236 471 CURVE SMOOTH"
);
}
);
width = 564;
}
);
note = divide;
unicode = 00F7;
},
{
glyphname = equal;
layers = (
{
hints = (
{
horizontal = 1;
place = "{56, 126}";
type = Stem;
},
{
horizontal = 1;
place = "{288, 126}";
type = Stem;
}
);
layerId = "9F677CD6-B234-481A-8F27-4A5B4DD836E1";
paths = (
{
closed = 1;
nodes = (
"483 154 OFFCURVE",
"455 182 OFFCURVE",
"421 182 CURVE SMOOTH",
"93 182 LINE SMOOTH",
"58 182 OFFCURVE",
"30 154 OFFCURVE",
"30 119 CURVE SMOOTH",
"30 84 OFFCURVE",
"58 56 OFFCURVE",
"93 56 CURVE SMOOTH",
"421 56 LINE SMOOTH",
"455 56 OFFCURVE",
"483 84 OFFCURVE",
"483 119 CURVE SMOOTH"
);
},
{
closed = 1;
nodes = (
"93 414 LINE SMOOTH",
"58 414 OFFCURVE",
"30 386 OFFCURVE",
"30 351 CURVE SMOOTH",
"30 317 OFFCURVE",
"58 288 OFFCURVE",
"93 288 CURVE SMOOTH",
"421 288 LINE SMOOTH",
"455 288 OFFCURVE",
"483 317 OFFCURVE",
"483 351 CURVE SMOOTH",
"483 386 OFFCURVE",
"455 414 OFFCURVE",
"421 414 CURVE SMOOTH"
);
}
);
width = 513;
}
);
note = equal;
unicode = 003D;
},
{
glyphname = notequal;
layers = (
{
hints = (
{
horizontal = 1;
place = "{-87, 21}";
target = up;
type = BottomGhost;
},
{
horizontal = 1;
place = "{56, 126}";
type = Stem;
},
{
horizontal = 1;
place = "{288, 126}";
type = Stem;
}
);
layerId = "9F677CD6-B234-481A-8F27-4A5B4DD836E1";
paths = (
{
closed = 1;
nodes = (
"517 288 LINE SMOOTH",
"552 288 OFFCURVE",
"580 317 OFFCURVE",
"580 351 CURVE SMOOTH",
"580 386 OFFCURVE",
"552 414 OFFCURVE",
"517 414 CURVE SMOOTH",
"456 414 LINE",
"488 481 LINE SMOOTH",
"503 512 OFFCURVE",
"489 549 OFFCURVE",
"458 564 CURVE SMOOTH",
"427 579 OFFCURVE",
"389 566 OFFCURVE",
"374 534 CURVE SMOOTH",
"317 414 LINE",
"93 414 LINE SMOOTH",
"58 414 OFFCURVE",
"30 386 OFFCURVE",
"30 351 CURVE SMOOTH",
"30 317 OFFCURVE",
"58 288 OFFCURVE",
"93 288 CURVE SMOOTH",
"258 288 LINE",
"207 182 LINE",
"93 182 LINE SMOOTH",
"58 182 OFFCURVE",
"30 154 OFFCURVE",
"30 119 CURVE SMOOTH",
"30 84 OFFCURVE",
"58 56 OFFCURVE",
"93 56 CURVE SMOOTH",
"148 56 LINE",
"122 2 LINE SMOOTH",
"107 -29 OFFCURVE",
"121 -67 OFFCURVE",
"152 -81 CURVE SMOOTH",
"161 -86 OFFCURVE",
"170 -87 OFFCURVE",
"179 -87 CURVE SMOOTH",
"202 -87 OFFCURVE",
"225 -74 OFFCURVE",
"236 -52 CURVE SMOOTH",
"287 56 LINE",
"517 56 LINE SMOOTH",
"552 56 OFFCURVE",
"580 84 OFFCURVE",
"580 119 CURVE SMOOTH",
"580 154 OFFCURVE",
"552 182 OFFCURVE",
"517 182 CURVE SMOOTH",
"346 182 LINE",
"397 288 LINE"
);
}
);
width = 610;
}
);
note = notequal;
unicode = 2260;
},
{
glyphname = zero;
layers = (
{
hints = (
{
horizontal = 1;
place = "{-13, 125}";
type = Stem;
},
{
horizontal = 1;
place = "{650, 126}";
type = Stem;
},
{
place = "{44, 126}";
type = Stem;
},
{
place = "{417, 126}";
type = Stem;
}
);
layerId = "9F677CD6-B234-481A-8F27-4A5B4DD836E1";
paths = (
{
closed = 1;
nodes = (
"156 776 OFFCURVE",
"44 664 OFFCURVE",
"44 526 CURVE SMOOTH",
"44 236 LINE SMOOTH",
"44 99 OFFCURVE",
"156 -13 OFFCURVE",
"294 -13 CURVE SMOOTH",
"431 -13 OFFCURVE",
"543 99 OFFCURVE",
"543 236 CURVE SMOOTH",
"543 526 LINE SMOOTH",
"543 664 OFFCURVE",
"431 776 OFFCURVE",
"294 776 CURVE SMOOTH"
);
},
{
closed = 1;
nodes = (
"417 236 LINE SMOOTH",
"417 168 OFFCURVE",
"362 112 OFFCURVE",
"294 112 CURVE SMOOTH",
"225 112 OFFCURVE",
"170 168 OFFCURVE",
"170 236 CURVE SMOOTH",
"170 526 LINE SMOOTH",
"170 594 OFFCURVE",
"225 650 OFFCURVE",
"294 650 CURVE SMOOTH",
"362 650 OFFCURVE",
"417 594 OFFCURVE",
"417 526 CURVE SMOOTH"
);
}
);
width = 587;
}
);
leftKerningGroup = zero;
note = zero;
rightKerningGroup = zero;
unicode = 0030;
},
{
glyphname = one;
layers = (
{
hints = (
{
horizontal = 1;
place = "{-1, 21}";
target = up;
type = BottomGhost;
},
{
place = "{176, 126}";
type = Stem;
}
);
layerId = "9F677CD6-B234-481A-8F27-4A5B4DD836E1";
paths = (
{
closed = 1;
nodes = (
"239 768 OFFCURVE",
"212 762 OFFCURVE",
"194 744 CURVE SMOOTH",
"59 608 LINE SMOOTH",
"34 584 OFFCURVE",
"34 544 OFFCURVE",
"59 520 CURVE SMOOTH",
"83 495 OFFCURVE",
"123 495 OFFCURVE",
"147 520 CURVE SMOOTH",
"176 548 LINE",
"176 62 LINE SMOOTH",
"176 28 OFFCURVE",
"204 -1 OFFCURVE",
"239 -1 CURVE SMOOTH",
"273 -1 OFFCURVE",
"302 28 OFFCURVE",
"302 62 CURVE SMOOTH",
"302 700 LINE SMOOTH",
"302 725 OFFCURVE",
"286 748 OFFCURVE",
"263 758 CURVE SMOOTH"
);
}
);
width = 352;
}
);
note = one;
unicode = 0031;
},
{
glyphname = two;
layers = (
{
hints = (
{
horizontal = 1;
place = "{0, 126}";
type = Stem;
},
{
horizontal = 1;
place = "{336, 125}";
type = Stem;
},
{
horizontal = 1;
place = "{637, 126}";
type = Stem;
},
{
place = "{50, 126}";
type = Stem;
},
{
place = "{368, 126}";
type = Stem;
}
);
layerId = "9F677CD6-B234-481A-8F27-4A5B4DD836E1";
paths = (
{
closed = 1;
nodes = (
"398 336 OFFCURVE",
"494 432 OFFCURVE",
"494 549 CURVE SMOOTH",
"494 667 OFFCURVE",
"398 763 OFFCURVE",
"280 763 CURVE SMOOTH",
"146 763 LINE SMOOTH",
"111 763 OFFCURVE",
"83 734 OFFCURVE",
"83 700 CURVE SMOOTH",
"83 665 OFFCURVE",
"111 637 OFFCURVE",
"146 637 CURVE SMOOTH",
"280 637 LINE SMOOTH",
"329 637 OFFCURVE",
"368 598 OFFCURVE",
"368 549 CURVE SMOOTH",
"368 501 OFFCURVE",
"329 461 OFFCURVE",
"280 461 CURVE SMOOTH",
"153 461 OFFCURVE",
"50 358 OFFCURVE",
"50 231 CURVE SMOOTH",
"50 63 LINE SMOOTH",
"50 29 OFFCURVE",
"78 0 OFFCURVE",
"113 0 CURVE SMOOTH",
"407 0 LINE SMOOTH",
"442 0 OFFCURVE",
"470 29 OFFCURVE",
"470 63 CURVE SMOOTH",
"470 98 OFFCURVE",
"442 126 OFFCURVE",
"407 126 CURVE SMOOTH",
"176 126 LINE",
"176 231 LINE SMOOTH",
"176 289 OFFCURVE",
"223 336 OFFCURVE",
"280 336 CURVE SMOOTH"
);
}
);
width = 534;
}
);
note = two;
unicode = 0032;
},
{
glyphname = three;
layers = (
{
hints = (
{
horizontal = 1;
place = "{-13, 126}";
type = Stem;
},
{
horizontal = 1;
place = "{352, 126}";
type = Stem;
},
{
horizontal = 1;
place = "{650, 125}";
type = Stem;
},
{
place = "{64, 125}";
type = Stem;
},
{
place = "{362, 125}";
type = Stem;
},
{
place = "{32, 126}";
type = Stem;
},
{
place = "{396, 126}";
type = Stem;
}
);
layerId = "9F677CD6-B234-481A-8F27-4A5B4DD836E1";
paths = (
{
closed = 1;
nodes = (
"467 459 OFFCURVE",
"487 509 OFFCURVE",
"487 564 CURVE SMOOTH",
"487 680 OFFCURVE",
"392 775 OFFCURVE",
"276 775 CURVE SMOOTH",
"159 775 OFFCURVE",
"64 680 OFFCURVE",
"64 564 CURVE SMOOTH",
"64 561 OFFCURVE",
"64 558 OFFCURVE",
"64 556 CURVE SMOOTH",
"65 521 OFFCURVE",
"95 494 OFFCURVE",
"129 495 CURVE SMOOTH",
"164 497 OFFCURVE",
"191 526 OFFCURVE",
"189 560 CURVE SMOOTH",
"189 562 OFFCURVE",
"189 563 OFFCURVE",
"189 564 CURVE SMOOTH",
"189 611 OFFCURVE",
"228 650 OFFCURVE",
"276 650 CURVE SMOOTH",
"323 650 OFFCURVE",
"362 611 OFFCURVE",
"362 564 CURVE SMOOTH",
"362 516 OFFCURVE",
"323 478 OFFCURVE",
"276 478 CURVE SMOOTH",
"241 478 OFFCURVE",
"213 449 OFFCURVE",
"213 415 CURVE SMOOTH",
"213 380 OFFCURVE",
"241 352 OFFCURVE",
"276 352 CURVE SMOOTH",
"342 352 OFFCURVE",
"396 298 OFFCURVE",
"396 232 CURVE SMOOTH",
"396 166 OFFCURVE",
"343 113 OFFCURVE",
"277 113 CURVE SMOOTH",
"211 113 OFFCURVE",
"158 166 OFFCURVE",
"158 232 CURVE SMOOTH",
"158 267 OFFCURVE",
"130 295 OFFCURVE",
"95 295 CURVE SMOOTH",
"60 295 OFFCURVE",
"32 267 OFFCURVE",
"32 232 CURVE SMOOTH",
"32 97 OFFCURVE",
"142 -13 OFFCURVE",
"277 -13 CURVE SMOOTH",
"412 -13 OFFCURVE",
"522 97 OFFCURVE",
"522 232 CURVE SMOOTH",
"522 308 OFFCURVE",
"487 376 OFFCURVE",
"432 421 CURVE"
);
}
);
width = 562;
}
);
leftKerningGroup = three;
note = three;
rightKerningGroup = three;
unicode = 0033;
},
{
glyphname = four;
layers = (
{
hints = (
{
horizontal = 1;
place = "{-1, 21}";
target = up;
type = BottomGhost;
},
{
horizontal = 1;
place = "{186, 125}";
type = Stem;
},
{
place = "{368, 125}";
type = Stem;
}
);
layerId = "9F677CD6-B234-481A-8F27-4A5B4DD836E1";
paths = (
{
closed = 1;
nodes = (
"396 516 OFFCURVE",
"368 488 OFFCURVE",
"368 453 CURVE SMOOTH",
"368 311 LINE",
"193 311 LINE",
"366 673 LINE SMOOTH",
"381 704 OFFCURVE",
"368 741 OFFCURVE",
"337 756 CURVE SMOOTH",
"306 771 OFFCURVE",
"268 758 OFFCURVE",
"253 727 CURVE SMOOTH",
"37 276 LINE SMOOTH",
"27 256 OFFCURVE",
"28 233 OFFCURVE",
"40 215 CURVE SMOOTH",
"51 197 OFFCURVE",
"72 186 OFFCURVE",
"93 186 CURVE SMOOTH",
"368 186 LINE",
"368 62 LINE SMOOTH",
"368 28 OFFCURVE",
"396 -1 OFFCURVE",
"431 -1 CURVE SMOOTH",
"465 -1 OFFCURVE",
"493 28 OFFCURVE",
"493 62 CURVE SMOOTH",
"493 453 LINE SMOOTH",
"493 488 OFFCURVE",
"465 516 OFFCURVE",
"431 516 CURVE SMOOTH"
);
}
);
width = 538;
}
);
note = four;
unicode = 0034;
},
{
glyphname = five;
layers = (
{
hints = (
{
horizontal = 1;
place = "{-13, 126}";
type = Stem;
},
{
horizontal = 1;
place = "{360, 125}";
type = Stem;
},
{
horizontal = 1;
place = "{637, 126}";
type = Stem;
},
{
place = "{41, 125}";
type = Stem;
},
{
place = "{412, 126}";
type = Stem;
}
);
layerId = "9F677CD6-B234-481A-8F27-4A5B4DD836E1";
paths = (
{
closed = 1;
nodes = (
"426 -13 OFFCURVE",
"538 99 OFFCURVE",
"538 236 CURVE SMOOTH",
"538 374 OFFCURVE",
"426 485 OFFCURVE",
"289 485 CURVE SMOOTH",
"208 485 LINE",
"222 637 LINE",
"431 637 LINE SMOOTH",
"466 637 OFFCURVE",
"494 666 OFFCURVE",
"494 700 CURVE SMOOTH",
"494 735 OFFCURVE",
"466 763 OFFCURVE",
"431 763 CURVE SMOOTH",
"165 763 LINE SMOOTH",
"132 763 OFFCURVE",
"105 738 OFFCURVE",
"102 706 CURVE SMOOTH",
"77 428 LINE SMOOTH",
"75 411 OFFCURVE",
"81 393 OFFCURVE",
"93 380 CURVE SMOOTH",
"105 367 OFFCURVE",
"122 360 OFFCURVE",
"139 360 CURVE SMOOTH",
"289 360 LINE SMOOTH",
"357 360 OFFCURVE",
"412 305 OFFCURVE",
"412 236 CURVE SMOOTH",
"412 168 OFFCURVE",
"357 113 OFFCURVE",
"289 113 CURVE SMOOTH",
"224 113 OFFCURVE",
"170 163 OFFCURVE",
"166 228 CURVE SMOOTH",
"163 262 OFFCURVE",
"133 288 OFFCURVE",
"99 286 CURVE SMOOTH",
"64 283 OFFCURVE",
"38 253 OFFCURVE",
"41 219 CURVE SMOOTH",
"50 89 OFFCURVE",
"159 -13 OFFCURVE",
"289 -13 CURVE SMOOTH"
);
}
);
width = 578;
}
);
note = five;
unicode = 0035;
},
{
glyphname = six;
layers = (
{
hints = (
{
horizontal = 1;
place = "{-13, 126}";
type = Stem;
},
{
horizontal = 1;
place = "{360, 125}";
type = Stem;
},
{
horizontal = 1;
place = "{651, 125}";
type = Stem;
},
{
place = "{50, 125}";
type = Stem;
},
{
place = "{422, 126}";
type = Stem;
}
);
layerId = "9F677CD6-B234-481A-8F27-4A5B4DD836E1";
paths = (
{
closed = 1;
nodes = (
"254 485 OFFCURVE",
"212 473 OFFCURVE",
"175 452 CURVE",
"175 527 LINE SMOOTH",
"175 595 OFFCURVE",
"231 651 OFFCURVE",
"299 651 CURVE SMOOTH",
"354 651 OFFCURVE",
"403 614 OFFCURVE",
"418 561 CURVE SMOOTH",
"427 528 OFFCURVE",
"462 508 OFFCURVE",
"495 518 CURVE SMOOTH",
"529 527 OFFCURVE",
"548 562 OFFCURVE",
"538 595 CURVE SMOOTH",
"508 702 OFFCURVE",
"410 776 OFFCURVE",
"299 776 CURVE SMOOTH",
"162 776 OFFCURVE",
"50 665 OFFCURVE",
"50 527 CURVE SMOOTH",
"50 242 OFFCURVE",
"50 239 OFFCURVE",
"50 236 CURVE SMOOTH",
"50 99 OFFCURVE",
"162 -13 OFFCURVE",
"299 -13 CURVE SMOOTH",
"436 -13 OFFCURVE",
"548 99 OFFCURVE",
"548 236 CURVE SMOOTH",
"548 373 OFFCURVE",
"436 485 OFFCURVE",
"299 485 CURVE SMOOTH"
);
},
{
closed = 1;
nodes = (
"231 113 OFFCURVE",
"175 168 OFFCURVE",
"175 236 CURVE SMOOTH",
"175 304 OFFCURVE",
"231 360 OFFCURVE",
"299 360 CURVE SMOOTH",
"367 360 OFFCURVE",
"422 304 OFFCURVE",
"422 236 CURVE SMOOTH",
"422 168 OFFCURVE",
"367 113 OFFCURVE",
"299 113 CURVE SMOOTH"
);
}
);
width = 583;
}
);
leftKerningGroup = zero;
note = six;
rightKerningGroup = zero;
unicode = 0036;
},
{
glyphname = seven;
layers = (
{
hints = (
{
horizontal = 1;
place = "{-1, 21}";
target = up;
type = BottomGhost;
},
{
horizontal = 1;
place = "{637, 126}";
type = Stem;
}
);
layerId = "9F677CD6-B234-481A-8F27-4A5B4DD836E1";
paths = (
{
closed = 1;
nodes = (
"83 763 LINE SMOOTH",
"48 763 OFFCURVE",
"20 734 OFFCURVE",
"20 700 CURVE SMOOTH",
"20 665 OFFCURVE",
"48 637 OFFCURVE",
"83 637 CURVE SMOOTH",
"304 637 LINE",
"55 88 LINE SMOOTH",
"41 57 OFFCURVE",
"55 19 OFFCURVE",
"87 5 CURVE SMOOTH",
"95 1 OFFCURVE",
"104 -1 OFFCURVE",
"113 -1 CURVE SMOOTH",
"136 -1 OFFCURVE",
"159 13 OFFCURVE",
"170 36 CURVE SMOOTH",
"459 674 LINE SMOOTH",
"468 693 OFFCURVE",
"466 716 OFFCURVE",
"455 734 CURVE SMOOTH",
"443 752 OFFCURVE",
"423 763 OFFCURVE",
"402 763 CURVE SMOOTH"
);
}
);
width = 485;
}
);
note = seven;
unicode = 0037;
},
{
glyphname = eight;
layers = (
{
hints = (
{
horizontal = 1;
place = "{-13, 126}";
type = Stem;
},
{
horizontal = 1;
place = "{360, 125}";
type = Stem;
},
{
horizontal = 1;
place = "{650, 126}";
type = Stem;
},
{
place = "{71, 126}";
type = Stem;
},
{
place = "{362, 125}";
type = Stem;
},
{
place = "{30, 126}";
type = Stem;
},
{
place = "{402, 126}";
type = Stem;
}
);
layerId = "9F677CD6-B234-481A-8F27-4A5B4DD836E1";
paths = (
{
closed = 1;
nodes = (
"467 467 OFFCURVE",
"487 515 OFFCURVE",
"487 568 CURVE SMOOTH",
"487 682 OFFCURVE",
"394 776 OFFCURVE",
"279 776 CURVE SMOOTH",
"164 776 OFFCURVE",
"71 682 OFFCURVE",
"71 568 CURVE SMOOTH",
"71 515 OFFCURVE",
"91 467 OFFCURVE",
"123 430 CURVE",
"66 384 OFFCURVE",
"30 314 OFFCURVE",
"30 236 CURVE SMOOTH",
"30 99 OFFCURVE",
"142 -13 OFFCURVE",
"279 -13 CURVE SMOOTH",
"416 -13 OFFCURVE",
"528 99 OFFCURVE",
"528 236 CURVE SMOOTH",
"528 314 OFFCURVE",
"492 384 OFFCURVE",
"435 430 CURVE"
);
},
{
closed = 1;
nodes = (
"325 650 OFFCURVE",
"362 613 OFFCURVE",
"362 568 CURVE SMOOTH",
"362 522 OFFCURVE",
"325 485 OFFCURVE",
"279 485 CURVE SMOOTH",
"234 485 OFFCURVE",
"197 522 OFFCURVE",
"197 568 CURVE SMOOTH",
"197 613 OFFCURVE",
"234 650 OFFCURVE",
"279 650 CURVE SMOOTH"
);
},
{
closed = 1;
nodes = (
"211 113 OFFCURVE",
"156 168 OFFCURVE",
"156 236 CURVE SMOOTH",
"156 304 OFFCURVE",
"211 360 OFFCURVE",
"279 360 CURVE SMOOTH",
"347 360 OFFCURVE",
"402 304 OFFCURVE",
"402 236 CURVE SMOOTH",
"402 168 OFFCURVE",
"347 113 OFFCURVE",
"279 113 CURVE SMOOTH"
);
}
);
width = 558;
}
);
leftKerningGroup = three;
note = eight;
rightKerningGroup = three;
unicode = 0038;
},
{
glyphname = nine;
layers = (
{
hints = (
{
horizontal = 1;
place = "{-13, 126}";
type = Stem;
},
{
horizontal = 1;
place = "{290, 126}";
type = Stem;
},
{
horizontal = 1;
place = "{651, 125}";
type = Stem;
},
{
place = "{39, 126}";
type = Stem;
},
{
place = "{400, 126}";
type = Stem;
}
);
layerId = "9F677CD6-B234-481A-8F27-4A5B4DD836E1";
paths = (
{
closed = 1;
nodes = (
"148 776 OFFCURVE",
"39 667 OFFCURVE",
"39 533 CURVE SMOOTH",
"39 399 OFFCURVE",
"148 290 OFFCURVE",
"283 290 CURVE SMOOTH",
"325 290 OFFCURVE",
"365 301 OFFCURVE",
"400 321 CURVE",
"400 236 LINE SMOOTH",
"400 168 OFFCURVE",
"344 113 OFFCURVE",
"276 113 CURVE SMOOTH",
"216 113 OFFCURVE",
"165 156 OFFCURVE",
"154 215 CURVE SMOOTH",
"149 249 OFFCURVE",
"116 272 OFFCURVE",
"82 266 CURVE SMOOTH",
"48 260 OFFCURVE",
"25 228 OFFCURVE",
"31 193 CURVE SMOOTH",
"51 74 OFFCURVE",
"155 -13 OFFCURVE",
"276 -13 CURVE SMOOTH",
"414 -13 OFFCURVE",
"526 99 OFFCURVE",
"526 236 CURVE SMOOTH",
"525 529 OFFCURVE",
"526 530 OFFCURVE",
"526 533 CURVE SMOOTH",
"526 667 OFFCURVE",
"417 776 OFFCURVE",
"283 776 CURVE SMOOTH"
);
},
{
closed = 1;
nodes = (
"218 416 OFFCURVE",
"165 469 OFFCURVE",
"165 533 CURVE SMOOTH",
"165 598 OFFCURVE",
"218 651 OFFCURVE",
"283 651 CURVE SMOOTH",
"347 651 OFFCURVE",
"400 598 OFFCURVE",
"400 533 CURVE SMOOTH",
"400 469 OFFCURVE",
"347 416 OFFCURVE",
"283 416 CURVE SMOOTH"
);
}
);
width = 581;
}
);
leftKerningGroup = zero;
note = nine;
rightKerningGroup = zero;
unicode = 0039;
},
{
glyphname = A;
layers = (
{
hints = (
{
horizontal = 1;
place = "{0, 21}";
target = up;
type = BottomGhost;
},
{
horizontal = 1;
place = "{284, 125}";
type = Stem;
},
{
horizontal = 1;
place = "{650, 126}";
type = Stem;
},
{
place = "{48, 126}";
type = Stem;
},
{
place = "{421, 126}";
type = Stem;
}
);
layerId = "9F677CD6-B234-481A-8F27-4A5B4DD836E1";
paths = (
{
closed = 1;
nodes = (
"160 776 OFFCURVE",
"48 664 OFFCURVE",
"48 526 CURVE SMOOTH",
"48 62 LINE SMOOTH",
"48 28 OFFCURVE",
"76 0 OFFCURVE",
"111 0 CURVE SMOOTH",
"145 0 OFFCURVE",
"174 28 OFFCURVE",
"174 62 CURVE SMOOTH",
"174 284 LINE",
"421 284 LINE",
"421 62 LINE SMOOTH",
"421 28 OFFCURVE",
"449 0 OFFCURVE",
"484 0 CURVE SMOOTH",
"519 0 OFFCURVE",
"547 28 OFFCURVE",
"547 62 CURVE SMOOTH",
"547 526 LINE SMOOTH",
"547 664 OFFCURVE",
"435 776 OFFCURVE",
"297 776 CURVE SMOOTH"
);
},
{
closed = 1;
nodes = (
"174 409 LINE",
"174 526 LINE SMOOTH",
"174 594 OFFCURVE",
"229 650 OFFCURVE",
"297 650 CURVE SMOOTH",
"366 650 OFFCURVE",
"421 594 OFFCURVE",
"421 526 CURVE SMOOTH",
"421 409 LINE"
);
}
);
width = 595;
}
);
leftKerningGroup = A;
note = A;
rightKerningGroup = A;
unicode = 0041;
},
{
glyphname = Aacute;
layers = (
{
hints = (
{
horizontal = 1;
place = "{0, 21}";
target = up;
type = BottomGhost;
},
{
horizontal = 1;
place = "{284, 125}";
type = Stem;
},
{
horizontal = 1;
place = "{650, 126}";
type = Stem;
},
{
place = "{48, 126}";
type = Stem;
},
{
place = "{421, 126}";
type = Stem;
}
);
layerId = "9F677CD6-B234-481A-8F27-4A5B4DD836E1";
paths = (
{
closed = 1;
nodes = (
"160 776 OFFCURVE",
"48 664 OFFCURVE",
"48 526 CURVE SMOOTH",
"48 62 LINE SMOOTH",
"48 28 OFFCURVE",
"76 0 OFFCURVE",
"111 0 CURVE SMOOTH",
"145 0 OFFCURVE",
"174 28 OFFCURVE",
"174 62 CURVE SMOOTH",
"174 284 LINE",
"421 284 LINE",
"421 62 LINE SMOOTH",
"421 28 OFFCURVE",
"449 0 OFFCURVE",
"484 0 CURVE SMOOTH",
"519 0 OFFCURVE",
"547 28 OFFCURVE",
"547 62 CURVE SMOOTH",
"547 526 LINE SMOOTH",
"547 664 OFFCURVE",
"435 776 OFFCURVE",
"297 776 CURVE SMOOTH"
);
},
{
closed = 1;
nodes = (
"174 409 LINE",
"174 526 LINE SMOOTH",
"174 594 OFFCURVE",
"229 650 OFFCURVE",
"297 650 CURVE SMOOTH",
"366 650 OFFCURVE",
"421 594 OFFCURVE",
"421 526 CURVE SMOOTH",
"421 409 LINE"
);
},
{
closed = 1;
nodes = (
"318 817 OFFCURVE",
"328 820 OFFCURVE",
"337 825 CURVE SMOOTH",
"432 881 LINE SMOOTH",
"459 897 OFFCURVE",
"468 931 OFFCURVE",
"452 958 CURVE SMOOTH",
"437 985 OFFCURVE",
"402 994 OFFCURVE",
"375 978 CURVE SMOOTH",
"280 922 LINE SMOOTH",
"253 906 OFFCURVE",
"244 872 OFFCURVE",
"260 845 CURVE SMOOTH",
"270 827 OFFCURVE",
"289 817 OFFCURVE",
"308 817 CURVE SMOOTH"
);
}
);
width = 595;
}
);
leftKerningGroup = A;
note = Aacute;
rightKerningGroup = A;
unicode = 00C1;
},
{
glyphname = Atilde;
layers = (
{
hints = (
{
horizontal = 1;
place = "{0, 21}";
target = up;
type = BottomGhost;
},
{
horizontal = 1;
place = "{284, 125}";
type = Stem;
},
{
horizontal = 1;
place = "{650, 126}";
type = Stem;
},
{
horizontal = 1;
place = "{812, 141}";
type = Stem;
},
{
place = "{48, 126}";
type = Stem;
},
{
place = "{421, 126}";
type = Stem;
}
);
layerId = "9F677CD6-B234-481A-8F27-4A5B4DD836E1";
paths = (
{
closed = 1;
nodes = (
"160 776 OFFCURVE",
"48 664 OFFCURVE",
"48 526 CURVE SMOOTH",
"48 62 LINE SMOOTH",
"48 28 OFFCURVE",
"76 0 OFFCURVE",
"111 0 CURVE SMOOTH",
"145 0 OFFCURVE",
"174 28 OFFCURVE",
"174 62 CURVE SMOOTH",
"174 284 LINE",
"421 284 LINE",
"421 62 LINE SMOOTH",
"421 28 OFFCURVE",
"449 0 OFFCURVE",
"484 0 CURVE SMOOTH",
"519 0 OFFCURVE",
"547 28 OFFCURVE",
"547 62 CURVE SMOOTH",
"547 526 LINE SMOOTH",
"547 664 OFFCURVE",
"435 776 OFFCURVE",
"297 776 CURVE SMOOTH"
);
},
{
closed = 1;
nodes = (
"174 409 LINE",
"174 526 LINE SMOOTH",
"174 594 OFFCURVE",
"229 650 OFFCURVE",
"297 650 CURVE SMOOTH",
"366 650 OFFCURVE",
"421 594 OFFCURVE",
"421 526 CURVE SMOOTH",
"421 409 LINE"
);
},
{
closed = 1;
nodes = (
"386 812 OFFCURVE",
"420 825 OFFCURVE",
"450 852 CURVE SMOOTH",
"473 873 OFFCURVE",
"475 909 OFFCURVE",
"454 932 CURVE SMOOTH",
"433 955 OFFCURVE",
"398 957 OFFCURVE",
"374 936 CURVE SMOOTH",
"364 927 OFFCURVE",
"357 925 OFFCURVE",
"348 925 CURVE SMOOTH",
"341 925 OFFCURVE",
"335 928 OFFCURVE",
"331 931 CURVE SMOOTH",
"307 945 OFFCURVE",
"281 953 OFFCURVE",
"254 953 CURVE SMOOTH",
"216 953 OFFCURVE",
"182 940 OFFCURVE",
"152 913 CURVE SMOOTH",
"129 892 OFFCURVE",
"127 857 OFFCURVE",
"148 833 CURVE SMOOTH",
"169 810 OFFCURVE",
"204 808 OFFCURVE",
"228 829 CURVE SMOOTH",
"238 838 OFFCURVE",
"246 840 OFFCURVE",
"254 840 CURVE SMOOTH",
"261 840 OFFCURVE",
"267 837 OFFCURVE",
"271 835 CURVE SMOOTH",
"295 820 OFFCURVE",
"322 812 OFFCURVE",
"348 812 CURVE SMOOTH"
);
}
);
width = 595;
}
);
leftKerningGroup = A;
note = Atilde;
rightKerningGroup = A;
unicode = 00C3;
},
{
glyphname = Acircumflex;
layers = (
{
hints = (
{
horizontal = 1;
place = "{0, 21}";
target = up;
type = BottomGhost;
},
{
horizontal = 1;
place = "{284, 125}";
type = Stem;
},
{
horizontal = 1;
place = "{650, 126}";
type = Stem;
},
{
place = "{48, 126}";
type = Stem;
},
{
place = "{421, 126}";
type = Stem;
},
{
horizontal = 1;
place = "{776, 29}";
type = Stem;
}
);
layerId = "9F677CD6-B234-481A-8F27-4A5B4DD836E1";
paths = (
{
closed = 1;
nodes = (
"160 776 OFFCURVE",
"48 664 OFFCURVE",
"48 526 CURVE SMOOTH",
"48 62 LINE SMOOTH",
"48 28 OFFCURVE",
"76 0 OFFCURVE",
"111 0 CURVE SMOOTH",
"145 0 OFFCURVE",
"174 28 OFFCURVE",
"174 62 CURVE SMOOTH",
"174 284 LINE",
"421 284 LINE",
"421 62 LINE SMOOTH",
"421 28 OFFCURVE",
"449 0 OFFCURVE",
"484 0 CURVE SMOOTH",
"519 0 OFFCURVE",
"547 28 OFFCURVE",
"547 62 CURVE SMOOTH",
"547 526 LINE SMOOTH",
"547 664 OFFCURVE",
"435 776 OFFCURVE",
"297 776 CURVE SMOOTH"
);
},
{
closed = 1;
nodes = (
"174 409 LINE",
"174 526 LINE SMOOTH",
"174 594 OFFCURVE",
"229 650 OFFCURVE",
"297 650 CURVE SMOOTH",
"366 650 OFFCURVE",
"421 594 OFFCURVE",
"421 526 CURVE SMOOTH",
"421 409 LINE"
);
},
{
closed = 1;
nodes = (
"297 852 LINE",
"363 813 LINE SMOOTH",
"372 808 OFFCURVE",
"382 805 OFFCURVE",
"392 805 CURVE SMOOTH",
"411 805 OFFCURVE",
"430 815 OFFCURVE",
"441 833 CURVE SMOOTH",
"456 860 OFFCURVE",
"447 895 OFFCURVE",
"421 910 CURVE SMOOTH",
"325 966 LINE SMOOTH",
"308 977 OFFCURVE",
"286 977 OFFCURVE",
"268 966 CURVE SMOOTH",
"173 910 LINE SMOOTH",
"146 895 OFFCURVE",
"137 860 OFFCURVE",
"153 833 CURVE SMOOTH",
"168 806 OFFCURVE",
"203 797 OFFCURVE",
"230 813 CURVE SMOOTH"
);
}
);
width = 595;
}
);
leftKerningGroup = A;
note = Acircumflex;
rightKerningGroup = A;
unicode = 00C2;
},
{
glyphname = Adieresis;
layers = (
{
hints = (
{
horizontal = 1;
place = "{0, 21}";
target = up;
type = BottomGhost;
},
{
horizontal = 1;
place = "{284, 125}";
type = Stem;
},
{
horizontal = 1;
place = "{650, 126}";
type = Stem;
},
{
horizontal = 1;
place = "{801, 127}";
type = Stem;
},
{
place = "{48, 126}";
type = Stem;
},
{
place = "{421, 126}";
type = Stem;
},
{
place = "{129, 128}";
type = Stem;
},
{
place = "{337, 128}";
type = Stem;
}
);
layerId = "9F677CD6-B234-481A-8F27-4A5B4DD836E1";
paths = (
{
closed = 1;
nodes = (
"160 776 OFFCURVE",
"48 664 OFFCURVE",
"48 526 CURVE SMOOTH",
"48 62 LINE SMOOTH",
"48 28 OFFCURVE",
"76 0 OFFCURVE",
"111 0 CURVE SMOOTH",
"145 0 OFFCURVE",
"174 28 OFFCURVE",
"174 62 CURVE SMOOTH",
"174 284 LINE",
"421 284 LINE",
"421 62 LINE SMOOTH",
"421 28 OFFCURVE",
"449 0 OFFCURVE",
"484 0 CURVE SMOOTH",
"519 0 OFFCURVE",
"547 28 OFFCURVE",
"547 62 CURVE SMOOTH",
"547 526 LINE SMOOTH",
"547 664 OFFCURVE",
"435 776 OFFCURVE",
"297 776 CURVE SMOOTH"
);
},
{
closed = 1;
nodes = (
"174 409 LINE",
"174 526 LINE SMOOTH",
"174 594 OFFCURVE",
"229 650 OFFCURVE",
"297 650 CURVE SMOOTH",
"366 650 OFFCURVE",
"421 594 OFFCURVE",
"421 526 CURVE SMOOTH",
"421 409 LINE"
);
},
{
closed = 1;
nodes = (
"158 928 OFFCURVE",
"129 899 OFFCURVE",
"129 864 CURVE SMOOTH",
"129 829 OFFCURVE",
"158 801 OFFCURVE",
"193 801 CURVE SMOOTH",
"228 801 OFFCURVE",
"257 829 OFFCURVE",
"257 864 CURVE SMOOTH",
"257 899 OFFCURVE",
"228 928 OFFCURVE",
"193 928 CURVE SMOOTH"
);
},
{
closed = 1;
nodes = (
"366 928 OFFCURVE",
"337 899 OFFCURVE",
"337 864 CURVE SMOOTH",
"337 829 OFFCURVE",
"366 801 OFFCURVE",
"401 801 CURVE SMOOTH",
"436 801 OFFCURVE",
"465 829 OFFCURVE",
"465 864 CURVE SMOOTH",
"465 899 OFFCURVE",
"436 928 OFFCURVE",
"401 928 CURVE SMOOTH"
);
}
);
width = 595;
}
);
leftKerningGroup = A;
note = Adieresis;
rightKerningGroup = A;
unicode = 00C4;
},
{
glyphname = Agrave;
layers = (
{
hints = (
{
horizontal = 1;
place = "{0, 21}";
target = up;
type = BottomGhost;
},
{
horizontal = 1;
place = "{284, 125}";
type = Stem;
},
{
horizontal = 1;
place = "{650, 126}";
type = Stem;
},
{
place = "{48, 126}";
type = Stem;
},
{
place = "{421, 126}";
type = Stem;
}
);
layerId = "9F677CD6-B234-481A-8F27-4A5B4DD836E1";
paths = (
{
closed = 1;
nodes = (
"160 776 OFFCURVE",
"48 664 OFFCURVE",
"48 526 CURVE SMOOTH",
"48 62 LINE SMOOTH",
"48 28 OFFCURVE",
"76 0 OFFCURVE",
"111 0 CURVE SMOOTH",
"145 0 OFFCURVE",
"174 28 OFFCURVE",
"174 62 CURVE SMOOTH",
"174 284 LINE",
"421 284 LINE",
"421 62 LINE SMOOTH",
"421 28 OFFCURVE",
"449 0 OFFCURVE",
"484 0 CURVE SMOOTH",
"519 0 OFFCURVE",
"547 28 OFFCURVE",
"547 62 CURVE SMOOTH",
"547 526 LINE SMOOTH",
"547 664 OFFCURVE",
"435 776 OFFCURVE",
"297 776 CURVE SMOOTH"
);
},
{
closed = 1;
nodes = (
"174 409 LINE",
"174 526 LINE SMOOTH",
"174 594 OFFCURVE",
"229 650 OFFCURVE",
"297 650 CURVE SMOOTH",
"366 650 OFFCURVE",
"421 594 OFFCURVE",
"421 526 CURVE SMOOTH",
"421 409 LINE"
);
},
{
closed = 1;
nodes = (
"298 817 OFFCURVE",
"317 827 OFFCURVE",
"328 845 CURVE SMOOTH",
"344 872 OFFCURVE",
"335 906 OFFCURVE",
"308 922 CURVE SMOOTH",
"212 978 LINE SMOOTH",
"186 994 OFFCURVE",
"151 985 OFFCURVE",
"135 958 CURVE SMOOTH",
"119 931 OFFCURVE",
"128 897 OFFCURVE",
"155 881 CURVE SMOOTH",
"250 825 LINE SMOOTH",
"259 819 OFFCURVE",
"269 817 OFFCURVE",
"279 817 CURVE SMOOTH"
);
}
);
width = 595;
}
);
leftKerningGroup = A;
note = Agrave;
rightKerningGroup = A;
unicode = 00C0;
},
{
glyphname = A.alt1;
layers = (
{
hints = (
{
horizontal = 1;
place = "{0, 21}";
target = up;
type = BottomGhost;
},
{
horizontal = 1;
place = "{763, -20}";
target = down;
type = TopGhost;
}
);
layerId = "9F677CD6-B234-481A-8F27-4A5B4DD836E1";
paths = (
{
closed = 1;
nodes = (
"527 0 OFFCURVE",
"534 2 OFFCURVE",
"541 4 CURVE SMOOTH",
"573 15 OFFCURVE",
"591 51 OFFCURVE",
"580 84 CURVE SMOOTH",
"361 721 LINE SMOOTH",
"352 746 OFFCURVE",
"329 763 OFFCURVE",
"302 763 CURVE SMOOTH",
"275 763 OFFCURVE",
"251 746 OFFCURVE",
"242 721 CURVE SMOOTH",
"24 84 LINE SMOOTH",
"17 63 OFFCURVE",
"21 40 OFFCURVE",
"35 23 CURVE SMOOTH",
"49 6 OFFCURVE",
"71 -2 OFFCURVE",
"92 1 CURVE SMOOTH",
"352 38 LINE SMOOTH",
"386 43 OFFCURVE",
"410 75 OFFCURVE",
"405 110 CURVE SMOOTH",
"400 144 OFFCURVE",
"368 168 OFFCURVE",
"334 163 CURVE SMOOTH",
"176 140 LINE",
"302 507 LINE",
"461 43 LINE SMOOTH",
"470 17 OFFCURVE",
"494 0 OFFCURVE",
"520 0 CURVE SMOOTH"
);
}
);
width = 604;
}
);
leftKerningGroup = A.alt1;
note = A.alt1;
rightKerningGroup = A.alt1;
},
{
glyphname = A.alt2;
layers = (
{
hints = (
{
horizontal = 1;
place = "{0, 21}";
target = up;
type = BottomGhost;
},
{
horizontal = 1;
place = "{763, -20}";
target = down;
type = TopGhost;
}
);
layerId = "9F677CD6-B234-481A-8F27-4A5B4DD836E1";
paths = (
{
closed = 1;
nodes = (
"110 0 OFFCURVE",
"134 17 OFFCURVE",
"143 43 CURVE SMOOTH",
"302 507 LINE",
"428 140 LINE",
"270 163 LINE SMOOTH",
"236 168 OFFCURVE",
"204 144 OFFCURVE",
"199 110 CURVE SMOOTH",
"194 75 OFFCURVE",
"218 43 OFFCURVE",
"252 38 CURVE SMOOTH",
"512 1 LINE SMOOTH",
"533 -2 OFFCURVE",
"555 6 OFFCURVE",
"569 23 CURVE SMOOTH",
"583 40 OFFCURVE",
"587 63 OFFCURVE",
"580 84 CURVE SMOOTH",
"362 721 LINE SMOOTH",
"353 746 OFFCURVE",
"329 763 OFFCURVE",
"302 763 CURVE SMOOTH",
"275 763 OFFCURVE",
"252 746 OFFCURVE",
"243 721 CURVE SMOOTH",
"24 84 LINE SMOOTH",
"13 51 OFFCURVE",
"31 15 OFFCURVE",
"63 4 CURVE SMOOTH",
"70 2 OFFCURVE",
"77 0 OFFCURVE",
"84 0 CURVE SMOOTH"
);
}
);
width = 604;
}
);
leftKerningGroup = A.alt1;
note = A.alt2;
rightKerningGroup = A.alt1;
},
{
glyphname = A.alt2acute;
layers = (
{
hints = (
{
horizontal = 1;
place = "{0, 21}";
target = up;
type = BottomGhost;
},
{
horizontal = 1;
place = "{763, -20}";
target = down;
type = TopGhost;
}
);
layerId = "9F677CD6-B234-481A-8F27-4A5B4DD836E1";
paths = (
{
closed = 1;
nodes = (
"110 0 OFFCURVE",
"134 17 OFFCURVE",
"143 43 CURVE SMOOTH",
"302 507 LINE",
"428 140 LINE",
"270 163 LINE SMOOTH",
"236 168 OFFCURVE",
"204 144 OFFCURVE",
"199 110 CURVE SMOOTH",
"194 75 OFFCURVE",
"218 43 OFFCURVE",
"252 38 CURVE SMOOTH",
"512 1 LINE SMOOTH",
"533 -2 OFFCURVE",
"555 6 OFFCURVE",
"569 23 CURVE SMOOTH",
"583 40 OFFCURVE",
"587 63 OFFCURVE",
"580 84 CURVE SMOOTH",
"362 721 LINE SMOOTH",
"353 746 OFFCURVE",
"329 763 OFFCURVE",
"302 763 CURVE SMOOTH",
"275 763 OFFCURVE",
"252 746 OFFCURVE",
"243 721 CURVE SMOOTH",
"24 84 LINE SMOOTH",
"13 51 OFFCURVE",
"31 15 OFFCURVE",
"63 4 CURVE SMOOTH",
"70 2 OFFCURVE",
"77 0 OFFCURVE",
"84 0 CURVE SMOOTH"
);
},
{
closed = 1;
nodes = (
"333 817 OFFCURVE",
"343 820 OFFCURVE",
"352 825 CURVE SMOOTH",
"447 881 LINE SMOOTH",
"474 897 OFFCURVE",
"483 931 OFFCURVE",
"467 958 CURVE SMOOTH",
"452 985 OFFCURVE",
"417 994 OFFCURVE",
"390 978 CURVE SMOOTH",
"295 922 LINE SMOOTH",
"268 906 OFFCURVE",
"259 872 OFFCURVE",
"275 845 CURVE SMOOTH",
"285 827 OFFCURVE",
"304 817 OFFCURVE",
"323 817 CURVE SMOOTH"
);
}
);
width = 604;
}
);
leftKerningGroup = A.alt1;
note = A.alt2acute;
rightKerningGroup = A.alt1;
},
{
glyphname = A.alt2circumflex;
layers = (
{
hints = (
{
horizontal = 1;
place = "{0, 21}";
target = up;
type = BottomGhost;
},
{
horizontal = 1;
place = "{763, -20}";
target = down;
type = TopGhost;
}
);
layerId = "9F677CD6-B234-481A-8F27-4A5B4DD836E1";
paths = (
{
closed = 1;
nodes = (
"110 0 OFFCURVE",
"134 17 OFFCURVE",
"143 43 CURVE SMOOTH",
"302 507 LINE",
"428 140 LINE",
"270 163 LINE SMOOTH",
"236 168 OFFCURVE",
"204 144 OFFCURVE",
"199 110 CURVE SMOOTH",
"194 75 OFFCURVE",
"218 43 OFFCURVE",
"252 38 CURVE SMOOTH",
"512 1 LINE SMOOTH",
"533 -2 OFFCURVE",
"555 6 OFFCURVE",
"569 23 CURVE SMOOTH",
"583 40 OFFCURVE",
"587 63 OFFCURVE",
"580 84 CURVE SMOOTH",
"362 721 LINE SMOOTH",
"353 746 OFFCURVE",
"329 763 OFFCURVE",
"302 763 CURVE SMOOTH",
"275 763 OFFCURVE",
"252 746 OFFCURVE",
"243 721 CURVE SMOOTH",
"24 84 LINE SMOOTH",
"13 51 OFFCURVE",
"31 15 OFFCURVE",
"63 4 CURVE SMOOTH",
"70 2 OFFCURVE",
"77 0 OFFCURVE",
"84 0 CURVE SMOOTH"
);
},
{
closed = 1;
nodes = (
"300 829 LINE",
"366 790 LINE SMOOTH",
"375 785 OFFCURVE",
"385 782 OFFCURVE",
"395 782 CURVE SMOOTH",
"414 782 OFFCURVE",
"433 792 OFFCURVE",
"444 810 CURVE SMOOTH",
"459 837 OFFCURVE",
"450 872 OFFCURVE",
"424 887 CURVE SMOOTH",
"328 943 LINE SMOOTH",
"311 954 OFFCURVE",
"289 954 OFFCURVE",
"271 943 CURVE SMOOTH",
"176 887 LINE SMOOTH",
"149 872 OFFCURVE",
"140 837 OFFCURVE",
"156 810 CURVE SMOOTH",
"171 783 OFFCURVE",
"206 774 OFFCURVE",
"233 790 CURVE SMOOTH"
);
}
);
width = 604;
}
);
leftKerningGroup = A.alt1;
note = A.alt2circumflex;
rightKerningGroup = A.alt1;
},
{
glyphname = A.alt2dieresis;
layers = (
{
hints = (
{
horizontal = 1;
place = "{0, 21}";
target = up;
type = BottomGhost;
},
{
horizontal = 1;
place = "{763, 38}";
type = Stem;
},
{
place = "{132, 128}";
type = Stem;
},
{
place = "{340, 128}";
type = Stem;
},
{
horizontal = 1;
place = "{801, 127}";
type = Stem;
}
);
layerId = "9F677CD6-B234-481A-8F27-4A5B4DD836E1";
paths = (
{
closed = 1;
nodes = (
"110 0 OFFCURVE",
"134 17 OFFCURVE",
"143 43 CURVE SMOOTH",
"302 507 LINE",
"428 140 LINE",
"270 163 LINE SMOOTH",
"236 168 OFFCURVE",
"204 144 OFFCURVE",
"199 110 CURVE SMOOTH",
"194 75 OFFCURVE",
"218 43 OFFCURVE",
"252 38 CURVE SMOOTH",
"512 1 LINE SMOOTH",
"533 -2 OFFCURVE",
"555 6 OFFCURVE",
"569 23 CURVE SMOOTH",
"583 40 OFFCURVE",
"587 63 OFFCURVE",
"580 84 CURVE SMOOTH",
"362 721 LINE SMOOTH",
"353 746 OFFCURVE",
"329 763 OFFCURVE",
"302 763 CURVE SMOOTH",
"275 763 OFFCURVE",
"252 746 OFFCURVE",
"243 721 CURVE SMOOTH",
"24 84 LINE SMOOTH",
"13 51 OFFCURVE",
"31 15 OFFCURVE",
"63 4 CURVE SMOOTH",
"70 2 OFFCURVE",
"77 0 OFFCURVE",
"84 0 CURVE SMOOTH"
);
},
{
closed = 1;
nodes = (
"161 928 OFFCURVE",
"132 899 OFFCURVE",
"132 864 CURVE SMOOTH",
"132 829 OFFCURVE",
"161 801 OFFCURVE",
"196 801 CURVE SMOOTH",
"231 801 OFFCURVE",
"260 829 OFFCURVE",
"260 864 CURVE SMOOTH",
"260 899 OFFCURVE",
"231 928 OFFCURVE",
"196 928 CURVE SMOOTH"
);
},
{
closed = 1;
nodes = (
"369 928 OFFCURVE",
"340 899 OFFCURVE",
"340 864 CURVE SMOOTH",
"340 829 OFFCURVE",
"369 801 OFFCURVE",
"404 801 CURVE SMOOTH",
"439 801 OFFCURVE",
"468 829 OFFCURVE",
"468 864 CURVE SMOOTH",
"468 899 OFFCURVE",
"439 928 OFFCURVE",
"404 928 CURVE SMOOTH"
);
}
);
width = 604;
}
);
leftKerningGroup = A.alt1;
note = A.alt2dieresis;
rightKerningGroup = A.alt1;
},
{
glyphname = A.alt2grave;
layers = (
{
hints = (
{
horizontal = 1;
place = "{0, 21}";
target = up;
type = BottomGhost;
},
{
horizontal = 1;
place = "{763, -20}";
target = down;
type = TopGhost;
}
);
layerId = "9F677CD6-B234-481A-8F27-4A5B4DD836E1";
paths = (
{
closed = 1;
nodes = (
"110 0 OFFCURVE",
"134 17 OFFCURVE",
"143 43 CURVE SMOOTH",
"302 507 LINE",
"428 140 LINE",
"270 163 LINE SMOOTH",
"236 168 OFFCURVE",
"204 144 OFFCURVE",
"199 110 CURVE SMOOTH",
"194 75 OFFCURVE",
"218 43 OFFCURVE",
"252 38 CURVE SMOOTH",
"512 1 LINE SMOOTH",
"533 -2 OFFCURVE",
"555 6 OFFCURVE",
"569 23 CURVE SMOOTH",
"583 40 OFFCURVE",
"587 63 OFFCURVE",
"580 84 CURVE SMOOTH",
"362 721 LINE SMOOTH",
"353 746 OFFCURVE",
"329 763 OFFCURVE",
"302 763 CURVE SMOOTH",
"275 763 OFFCURVE",
"252 746 OFFCURVE",
"243 721 CURVE SMOOTH",
"24 84 LINE SMOOTH",
"13 51 OFFCURVE",
"31 15 OFFCURVE",
"63 4 CURVE SMOOTH",
"70 2 OFFCURVE",
"77 0 OFFCURVE",
"84 0 CURVE SMOOTH"
);
},
{
closed = 1;
nodes = (
"298 817 OFFCURVE",
"317 827 OFFCURVE",
"328 845 CURVE SMOOTH",
"344 872 OFFCURVE",
"335 906 OFFCURVE",
"308 922 CURVE SMOOTH",
"212 978 LINE SMOOTH",
"186 994 OFFCURVE",
"151 985 OFFCURVE",
"135 958 CURVE SMOOTH",
"119 931 OFFCURVE",
"128 897 OFFCURVE",
"155 881 CURVE SMOOTH",
"250 825 LINE SMOOTH",
"259 819 OFFCURVE",
"269 817 OFFCURVE",
"279 817 CURVE SMOOTH"
);
}
);
width = 604;
}
);
leftKerningGroup = A.alt1;
note = A.alt2grave;
rightKerningGroup = A.alt1;
},
{
glyphname = A.alt2tilde;
layers = (
{
hints = (
{
horizontal = 1;
place = "{0, 21}";
target = up;
type = BottomGhost;
},
{
horizontal = 1;
place = "{763, 44}";
type = Stem;
},
{
horizontal = 1;
place = "{807, 141}";
type = Stem;
}
);
layerId = "9F677CD6-B234-481A-8F27-4A5B4DD836E1";
paths = (
{
closed = 1;
nodes = (
"110 0 OFFCURVE",
"134 17 OFFCURVE",
"143 43 CURVE SMOOTH",
"302 507 LINE",
"428 140 LINE",
"270 163 LINE SMOOTH",
"236 168 OFFCURVE",
"204 144 OFFCURVE",
"199 110 CURVE SMOOTH",
"194 75 OFFCURVE",
"218 43 OFFCURVE",
"252 38 CURVE SMOOTH",
"512 1 LINE SMOOTH",
"533 -2 OFFCURVE",
"555 6 OFFCURVE",
"569 23 CURVE SMOOTH",
"583 40 OFFCURVE",
"587 63 OFFCURVE",
"580 84 CURVE SMOOTH",
"362 721 LINE SMOOTH",
"353 746 OFFCURVE",
"329 763 OFFCURVE",
"302 763 CURVE SMOOTH",
"275 763 OFFCURVE",
"252 746 OFFCURVE",
"243 721 CURVE SMOOTH",
"24 84 LINE SMOOTH",
"13 51 OFFCURVE",
"31 15 OFFCURVE",
"63 4 CURVE SMOOTH",
"70 2 OFFCURVE",
"77 0 OFFCURVE",
"84 0 CURVE SMOOTH"
);
},
{
closed = 1;
nodes = (
"391 807 OFFCURVE",
"425 820 OFFCURVE",
"455 847 CURVE SMOOTH",
"478 868 OFFCURVE",
"480 904 OFFCURVE",
"459 927 CURVE SMOOTH",
"438 950 OFFCURVE",
"403 952 OFFCURVE",
"379 931 CURVE SMOOTH",
"369 922 OFFCURVE",
"362 920 OFFCURVE",
"353 920 CURVE SMOOTH",
"346 920 OFFCURVE",
"340 923 OFFCURVE",
"336 926 CURVE SMOOTH",
"312 940 OFFCURVE",
"286 948 OFFCURVE",
"259 948 CURVE SMOOTH",
"221 948 OFFCURVE",
"187 935 OFFCURVE",
"157 908 CURVE SMOOTH",
"134 887 OFFCURVE",
"132 852 OFFCURVE",
"153 828 CURVE SMOOTH",
"174 805 OFFCURVE",
"209 803 OFFCURVE",
"233 824 CURVE SMOOTH",
"243 833 OFFCURVE",
"251 835 OFFCURVE",
"259 835 CURVE SMOOTH",
"266 835 OFFCURVE",
"272 832 OFFCURVE",
"276 830 CURVE SMOOTH",
"300 815 OFFCURVE",
"327 807 OFFCURVE",
"353 807 CURVE SMOOTH"
);
}
);
width = 604;
}
);
leftKerningGroup = A.alt1;
note = A.alt2tilde;
rightKerningGroup = A.alt1;
},
{
glyphname = A.alt4;
layers = (
{
hints = (
{
horizontal = 1;
place = "{156, 125}";
type = Stem;
},
{
place = "{50, 126}";
type = Stem;
}
);
layerId = "9F677CD6-B234-481A-8F27-4A5B4DD836E1";
paths = (
{
closed = 1;
nodes = (
"165 736 LINE SMOOTH",
"149 759 OFFCURVE",
"121 769 OFFCURVE",
"95 761 CURVE SMOOTH",
"68 753 OFFCURVE",
"50 729 OFFCURVE",
"50 701 CURVE SMOOTH",
"50 64 LINE SMOOTH",
"50 29 OFFCURVE",
"78 1 OFFCURVE",
"113 1 CURVE SMOOTH",
"148 1 OFFCURVE",
"176 29 OFFCURVE",
"176 64 CURVE SMOOTH",
"176 156 LINE",
"408 156 LINE",
"494 28 LINE SMOOTH",
"514 0 OFFCURVE",
"553 -8 OFFCURVE",
"582 12 CURVE SMOOTH",
"610 31 OFFCURVE",
"618 70 OFFCURVE",
"598 99 CURVE SMOOTH"
);
},
{
closed = 1;
nodes = (
"176 281 LINE",
"176 497 LINE",
"323 281 LINE"
);
}
);
width = 630;
}
);
note = A.alt4;
rightKerningGroup = A.alt4;
},
{
glyphname = A.alt4acute;
layers = (
{
hints = (
{
horizontal = 1;
place = "{156, 125}";
type = Stem;
},
{
place = "{50, 126}";
type = Stem;
}
);
layerId = "9F677CD6-B234-481A-8F27-4A5B4DD836E1";
paths = (
{
closed = 1;
nodes = (
"165 736 LINE SMOOTH",
"149 759 OFFCURVE",
"121 769 OFFCURVE",
"95 761 CURVE SMOOTH",
"68 753 OFFCURVE",
"50 729 OFFCURVE",
"50 701 CURVE SMOOTH",
"50 64 LINE SMOOTH",
"50 29 OFFCURVE",
"78 1 OFFCURVE",
"113 1 CURVE SMOOTH",
"148 1 OFFCURVE",
"176 29 OFFCURVE",
"176 64 CURVE SMOOTH",
"176 156 LINE",
"408 156 LINE",
"494 28 LINE SMOOTH",
"514 0 OFFCURVE",
"553 -8 OFFCURVE",
"582 12 CURVE SMOOTH",
"610 31 OFFCURVE",
"618 70 OFFCURVE",
"598 99 CURVE SMOOTH"
);
},
{
closed = 1;
nodes = (
"176 281 LINE",
"176 497 LINE",
"323 281 LINE"
);
},
{
closed = 1;
nodes = (
"116 817 OFFCURVE",
"126 820 OFFCURVE",
"135 825 CURVE SMOOTH",
"230 881 LINE SMOOTH",
"257 897 OFFCURVE",
"266 931 OFFCURVE",
"250 958 CURVE SMOOTH",
"235 985 OFFCURVE",
"200 994 OFFCURVE",
"173 978 CURVE SMOOTH",
"78 922 LINE SMOOTH",
"51 906 OFFCURVE",
"42 872 OFFCURVE",
"58 845 CURVE SMOOTH",
"68 827 OFFCURVE",
"87 817 OFFCURVE",
"106 817 CURVE SMOOTH"
);
}
);
width = 629;
}
);
note = A.alt4acute;
rightKerningGroup = A.alt4;
},
{
glyphname = A.alt4tilde;
layers = (
{
hints = (
{
horizontal = 1;
place = "{156, 125}";
type = Stem;
},
{
horizontal = 1;
place = "{807, 141}";
type = Stem;
},
{
place = "{50, 126}";
type = Stem;
}
);
layerId = "9F677CD6-B234-481A-8F27-4A5B4DD836E1";
paths = (
{
closed = 1;
nodes = (
"165 736 LINE SMOOTH",
"149 759 OFFCURVE",
"121 769 OFFCURVE",
"95 761 CURVE SMOOTH",
"68 753 OFFCURVE",
"50 729 OFFCURVE",
"50 701 CURVE SMOOTH",
"50 64 LINE SMOOTH",
"50 29 OFFCURVE",
"78 1 OFFCURVE",
"113 1 CURVE SMOOTH",
"148 1 OFFCURVE",
"176 29 OFFCURVE",
"176 64 CURVE SMOOTH",
"176 156 LINE",
"408 156 LINE",
"494 28 LINE SMOOTH",
"514 0 OFFCURVE",
"553 -8 OFFCURVE",
"582 12 CURVE SMOOTH",
"610 31 OFFCURVE",
"618 70 OFFCURVE",
"598 99 CURVE SMOOTH"
);
},
{
closed = 1;
nodes = (
"176 281 LINE",
"176 497 LINE",
"323 281 LINE"
);
},
{
closed = 1;
nodes = (
"201 807 OFFCURVE",
"235 820 OFFCURVE",
"265 847 CURVE SMOOTH",
"288 868 OFFCURVE",
"290 904 OFFCURVE",
"269 927 CURVE SMOOTH",
"248 950 OFFCURVE",
"213 952 OFFCURVE",
"189 931 CURVE SMOOTH",
"179 922 OFFCURVE",
"172 920 OFFCURVE",
"163 920 CURVE SMOOTH",
"156 920 OFFCURVE",
"150 923 OFFCURVE",
"146 926 CURVE SMOOTH",
"122 940 OFFCURVE",
"96 948 OFFCURVE",
"69 948 CURVE SMOOTH",
"31 948 OFFCURVE",
"-3 935 OFFCURVE",
"-33 908 CURVE SMOOTH",
"-56 887 OFFCURVE",
"-58 852 OFFCURVE",
"-37 828 CURVE SMOOTH",
"-16 805 OFFCURVE",
"19 803 OFFCURVE",
"43 824 CURVE SMOOTH",
"53 833 OFFCURVE",
"61 835 OFFCURVE",
"69 835 CURVE SMOOTH",
"76 835 OFFCURVE",
"82 832 OFFCURVE",
"86 830 CURVE SMOOTH",
"110 815 OFFCURVE",
"137 807 OFFCURVE",
"163 807 CURVE SMOOTH"
);
}
);
width = 629;
}
);
note = A.alt4tilde;
rightKerningGroup = A.alt4;
},
{
glyphname = A.alt4circumflex;
layers = (
{
hints = (
{
horizontal = 1;
place = "{156, 125}";
type = Stem;
},
{
place = "{50, 126}";
type = Stem;
}
);
layerId = "9F677CD6-B234-481A-8F27-4A5B4DD836E1";
paths = (
{
closed = 1;
nodes = (
"165 736 LINE SMOOTH",
"149 759 OFFCURVE",
"121 769 OFFCURVE",
"95 761 CURVE SMOOTH",
"68 753 OFFCURVE",
"50 729 OFFCURVE",
"50 701 CURVE SMOOTH",
"50 64 LINE SMOOTH",
"50 29 OFFCURVE",
"78 1 OFFCURVE",
"113 1 CURVE SMOOTH",
"148 1 OFFCURVE",
"176 29 OFFCURVE",
"176 64 CURVE SMOOTH",
"176 156 LINE",
"408 156 LINE",
"494 28 LINE SMOOTH",
"514 0 OFFCURVE",
"553 -8 OFFCURVE",
"582 12 CURVE SMOOTH",
"610 31 OFFCURVE",
"618 70 OFFCURVE",
"598 99 CURVE SMOOTH"
);
},
{
closed = 1;
nodes = (
"176 281 LINE",
"176 497 LINE",
"323 281 LINE"
);
},
{
closed = 1;
nodes = (
"112 829 LINE",
"178 790 LINE SMOOTH",
"187 785 OFFCURVE",
"197 782 OFFCURVE",
"207 782 CURVE SMOOTH",
"226 782 OFFCURVE",
"245 792 OFFCURVE",
"256 810 CURVE SMOOTH",
"271 837 OFFCURVE",
"262 872 OFFCURVE",
"236 887 CURVE SMOOTH",
"140 943 LINE SMOOTH",
"123 954 OFFCURVE",
"101 954 OFFCURVE",
"83 943 CURVE SMOOTH",
"-12 887 LINE SMOOTH",
"-39 872 OFFCURVE",
"-48 837 OFFCURVE",
"-32 810 CURVE SMOOTH",
"-17 783 OFFCURVE",
"18 774 OFFCURVE",
"45 790 CURVE SMOOTH"
);
}
);
width = 629;
}
);
note = A.alt4circumflex;
rightKerningGroup = A.alt4;
},
{
glyphname = A.alt5;
layers = (
{
hints = (
{
horizontal = 1;
place = "{156, 125}";
type = Stem;
},
{
place = "{454, 126}";
type = Stem;
}
);
layerId = "9F677CD6-B234-481A-8F27-4A5B4DD836E1";
paths = (
{
closed = 1;
nodes = (
"32 99 LINE SMOOTH",
"12 70 OFFCURVE",
"20 31 OFFCURVE",
"48 12 CURVE SMOOTH",
"77 -8 OFFCURVE",
"116 0 OFFCURVE",
"136 28 CURVE SMOOTH",
"222 156 LINE",
"454 156 LINE",
"454 64 LINE SMOOTH",
"454 29 OFFCURVE",
"482 1 OFFCURVE",
"517 1 CURVE SMOOTH",
"552 1 OFFCURVE",
"580 29 OFFCURVE",
"580 64 CURVE SMOOTH",
"580 701 LINE SMOOTH",
"580 729 OFFCURVE",
"562 753 OFFCURVE",
"535 761 CURVE SMOOTH",
"509 769 OFFCURVE",
"481 759 OFFCURVE",
"465 736 CURVE SMOOTH"
);
},
{
closed = 1;
nodes = (
"307 281 LINE",
"454 497 LINE",
"454 281 LINE"
);
}
);
width = 620;
}
);
leftKerningGroup = A.alt5;
note = A.alt5;
},
{
glyphname = A.alt5acute;
layers = (
{
hints = (
{
horizontal = 1;
place = "{156, 125}";
type = Stem;
},
{
place = "{454, 126}";
type = Stem;
}
);
layerId = "9F677CD6-B234-481A-8F27-4A5B4DD836E1";
paths = (
{
closed = 1;
nodes = (
"32 99 LINE SMOOTH",
"12 70 OFFCURVE",
"20 31 OFFCURVE",
"48 12 CURVE SMOOTH",
"77 -8 OFFCURVE",
"116 0 OFFCURVE",
"136 28 CURVE SMOOTH",
"222 156 LINE",
"454 156 LINE",
"454 64 LINE SMOOTH",
"454 29 OFFCURVE",
"482 1 OFFCURVE",
"517 1 CURVE SMOOTH",
"552 1 OFFCURVE",
"580 29 OFFCURVE",
"580 64 CURVE SMOOTH",
"580 701 LINE SMOOTH",
"580 729 OFFCURVE",
"562 753 OFFCURVE",
"535 761 CURVE SMOOTH",
"509 769 OFFCURVE",
"481 759 OFFCURVE",
"465 736 CURVE SMOOTH"
);
},
{
closed = 1;
nodes = (
"307 281 LINE",
"454 497 LINE",
"454 281 LINE"
);
},
{
closed = 1;
nodes = (
"584 817 OFFCURVE",
"594 820 OFFCURVE",
"603 825 CURVE SMOOTH",
"698 881 LINE SMOOTH",
"725 897 OFFCURVE",
"734 931 OFFCURVE",
"718 958 CURVE SMOOTH",
"703 985 OFFCURVE",
"668 994 OFFCURVE",
"641 978 CURVE SMOOTH",
"546 922 LINE SMOOTH",
"519 906 OFFCURVE",
"510 872 OFFCURVE",
"526 845 CURVE SMOOTH",
"536 827 OFFCURVE",
"555 817 OFFCURVE",
"574 817 CURVE SMOOTH"
);
}
);
width = 629;
}
);
leftKerningGroup = A.alt5;
note = A.alt5acute;
},
{
glyphname = A.alt5tilde;
layers = (
{
hints = (
{
horizontal = 1;
place = "{156, 125}";
type = Stem;
},
{
horizontal = 1;
place = "{807, 141}";
type = Stem;
},
{
place = "{454, 126}";
type = Stem;
}
);
layerId = "9F677CD6-B234-481A-8F27-4A5B4DD836E1";
paths = (
{
closed = 1;
nodes = (
"32 99 LINE SMOOTH",
"12 70 OFFCURVE",
"20 31 OFFCURVE",
"48 12 CURVE SMOOTH",
"77 -8 OFFCURVE",
"116 0 OFFCURVE",
"136 28 CURVE SMOOTH",
"222 156 LINE",
"454 156 LINE",
"454 64 LINE SMOOTH",
"454 29 OFFCURVE",
"482 1 OFFCURVE",
"517 1 CURVE SMOOTH",
"552 1 OFFCURVE",
"580 29 OFFCURVE",
"580 64 CURVE SMOOTH",
"580 701 LINE SMOOTH",
"580 729 OFFCURVE",
"562 753 OFFCURVE",
"535 761 CURVE SMOOTH",
"509 769 OFFCURVE",
"481 759 OFFCURVE",
"465 736 CURVE SMOOTH"
);
},
{
closed = 1;
nodes = (
"307 281 LINE",
"454 497 LINE",
"454 281 LINE"
);
},
{
closed = 1;
nodes = (
"620 807 OFFCURVE",
"654 820 OFFCURVE",
"684 847 CURVE SMOOTH",
"707 868 OFFCURVE",
"709 904 OFFCURVE",
"688 927 CURVE SMOOTH",
"667 950 OFFCURVE",
"632 952 OFFCURVE",
"608 931 CURVE SMOOTH",
"598 922 OFFCURVE",
"591 920 OFFCURVE",
"582 920 CURVE SMOOTH",
"575 920 OFFCURVE",
"569 923 OFFCURVE",
"565 926 CURVE SMOOTH",
"541 940 OFFCURVE",
"515 948 OFFCURVE",
"488 948 CURVE SMOOTH",
"450 948 OFFCURVE",
"416 935 OFFCURVE",
"386 908 CURVE SMOOTH",
"363 887 OFFCURVE",
"361 852 OFFCURVE",
"382 828 CURVE SMOOTH",
"403 805 OFFCURVE",
"438 803 OFFCURVE",
"462 824 CURVE SMOOTH",
"472 833 OFFCURVE",
"480 835 OFFCURVE",
"488 835 CURVE SMOOTH",
"495 835 OFFCURVE",
"501 832 OFFCURVE",
"505 830 CURVE SMOOTH",
"529 815 OFFCURVE",
"556 807 OFFCURVE",
"582 807 CURVE SMOOTH"
);
}
);
width = 629;
}
);
leftKerningGroup = A.alt5;
note = A.alt5tilde;
},
{
glyphname = A.alt5circumflex;
layers = (
{
hints = (
{
horizontal = 1;
place = "{156, 125}";
type = Stem;
},
{
place = "{454, 126}";
type = Stem;
}
);
layerId = "9F677CD6-B234-481A-8F27-4A5B4DD836E1";
paths = (
{
closed = 1;
nodes = (
"32 99 LINE SMOOTH",
"12 70 OFFCURVE",
"20 31 OFFCURVE",
"48 12 CURVE SMOOTH",
"77 -8 OFFCURVE",
"116 0 OFFCURVE",
"136 28 CURVE SMOOTH",
"222 156 LINE",
"454 156 LINE",
"454 64 LINE SMOOTH",
"454 29 OFFCURVE",
"482 1 OFFCURVE",
"517 1 CURVE SMOOTH",
"552 1 OFFCURVE",
"580 29 OFFCURVE",
"580 64 CURVE SMOOTH",
"580 701 LINE SMOOTH",
"580 729 OFFCURVE",
"562 753 OFFCURVE",
"535 761 CURVE SMOOTH",
"509 769 OFFCURVE",
"481 759 OFFCURVE",
"465 736 CURVE SMOOTH"
);
},
{
closed = 1;
nodes = (
"307 281 LINE",
"454 497 LINE",
"454 281 LINE"
);
},
{
closed = 1;
nodes = (
"517 829 LINE",
"583 790 LINE SMOOTH",
"592 785 OFFCURVE",
"602 782 OFFCURVE",
"612 782 CURVE SMOOTH",
"631 782 OFFCURVE",
"650 792 OFFCURVE",
"661 810 CURVE SMOOTH",
"676 837 OFFCURVE",
"667 872 OFFCURVE",
"641 887 CURVE SMOOTH",
"545 943 LINE SMOOTH",
"528 954 OFFCURVE",
"506 954 OFFCURVE",
"488 943 CURVE SMOOTH",
"393 887 LINE SMOOTH",
"366 872 OFFCURVE",
"357 837 OFFCURVE",
"373 810 CURVE SMOOTH",
"388 783 OFFCURVE",
"423 774 OFFCURVE",
"450 790 CURVE SMOOTH"
);
}
);
width = 629;
}
);
leftKerningGroup = A.alt5;
note = A.alt5circumflex;
},
{
glyphname = A.alt6;
layers = (
{
hints = (
{
horizontal = 1;
place = "{0, 21}";
target = up;
type = BottomGhost;
},
{
horizontal = 1;
place = "{155, 125}";
type = Stem;
},
{
horizontal = 1;
place = "{763, -20}";
target = down;
type = TopGhost;
}
);
layerId = "9F677CD6-B234-481A-8F27-4A5B4DD836E1";
paths = (
{
closed = 1;
nodes = (
"362 720 LINE SMOOTH",
"353 746 OFFCURVE",
"329 763 OFFCURVE",
"302 763 CURVE SMOOTH",
"276 763 OFFCURVE",
"252 746 OFFCURVE",
"243 720 CURVE SMOOTH",
"24 83 LINE SMOOTH",
"13 50 OFFCURVE",
"31 14 OFFCURVE",
"64 3 CURVE SMOOTH",
"96 -8 OFFCURVE",
"132 9 OFFCURVE",
"143 42 CURVE SMOOTH",
"182 155 LINE",
"423 155 LINE",
"462 42 LINE SMOOTH",
"470 16 OFFCURVE",
"495 0 OFFCURVE",
"521 0 CURVE SMOOTH",
"528 0 OFFCURVE",
"535 1 OFFCURVE",
"541 3 CURVE SMOOTH",
"574 14 OFFCURVE",
"592 50 OFFCURVE",
"580 83 CURVE SMOOTH"
);
},
{
closed = 1;
nodes = (
"225 280 LINE",
"302 506 LINE",
"380 280 LINE"
);
}
);
width = 604;
}
);
leftKerningGroup = A.alt1;
note = A.alt6;
rightKerningGroup = A.alt1;
},
{
glyphname = A.alt6acute;
layers = (
{
hints = (
{
horizontal = 1;
place = "{0, 21}";
target = up;
type = BottomGhost;
},
{
horizontal = 1;
place = "{155, 125}";
type = Stem;
},
{
horizontal = 1;
place = "{763, -20}";
target = down;
type = TopGhost;
}
);
layerId = "9F677CD6-B234-481A-8F27-4A5B4DD836E1";
paths = (
{
closed = 1;
nodes = (
"362 720 LINE SMOOTH",
"353 746 OFFCURVE",
"329 763 OFFCURVE",
"302 763 CURVE SMOOTH",
"276 763 OFFCURVE",
"252 746 OFFCURVE",
"243 720 CURVE SMOOTH",
"24 83 LINE SMOOTH",
"13 50 OFFCURVE",
"31 14 OFFCURVE",
"64 3 CURVE SMOOTH",
"96 -8 OFFCURVE",
"132 9 OFFCURVE",
"143 42 CURVE SMOOTH",
"182 155 LINE",
"423 155 LINE",
"462 42 LINE SMOOTH",
"470 16 OFFCURVE",
"495 0 OFFCURVE",
"521 0 CURVE SMOOTH",
"528 0 OFFCURVE",
"535 1 OFFCURVE",
"541 3 CURVE SMOOTH",
"574 14 OFFCURVE",
"592 50 OFFCURVE",
"580 83 CURVE SMOOTH"
);
},
{
closed = 1;
nodes = (
"225 280 LINE",
"302 506 LINE",
"380 280 LINE"
);
},
{
closed = 1;
nodes = (
"336 817 OFFCURVE",
"346 820 OFFCURVE",
"355 825 CURVE SMOOTH",
"450 881 LINE SMOOTH",
"477 897 OFFCURVE",
"486 931 OFFCURVE",
"470 958 CURVE SMOOTH",
"455 985 OFFCURVE",
"420 994 OFFCURVE",
"393 978 CURVE SMOOTH",
"298 922 LINE SMOOTH",
"271 906 OFFCURVE",
"262 872 OFFCURVE",
"278 845 CURVE SMOOTH",
"288 827 OFFCURVE",
"307 817 OFFCURVE",
"326 817 CURVE SMOOTH"
);
}
);
width = 604;
}
);
leftKerningGroup = A.alt1;
note = A.alt6acute;
rightKerningGroup = A.alt1;
},
{
glyphname = A.alt6tilde;
layers = (
{
hints = (
{
horizontal = 1;
place = "{0, 21}";
target = up;
type = BottomGhost;
},
{
horizontal = 1;
place = "{155, 125}";
type = Stem;
},
{
horizontal = 1;
place = "{763, -20}";
target = down;
type = TopGhost;
},
{
horizontal = 1;
place = "{807, 141}";
type = Stem;
}
);
layerId = "9F677CD6-B234-481A-8F27-4A5B4DD836E1";
paths = (
{
closed = 1;
nodes = (
"362 720 LINE SMOOTH",
"353 746 OFFCURVE",
"329 763 OFFCURVE",
"302 763 CURVE SMOOTH",
"276 763 OFFCURVE",
"252 746 OFFCURVE",
"243 720 CURVE SMOOTH",
"24 83 LINE SMOOTH",
"13 50 OFFCURVE",
"31 14 OFFCURVE",
"64 3 CURVE SMOOTH",
"96 -8 OFFCURVE",
"132 9 OFFCURVE",
"143 42 CURVE SMOOTH",
"182 155 LINE",
"423 155 LINE",
"462 42 LINE SMOOTH",
"470 16 OFFCURVE",
"495 0 OFFCURVE",
"521 0 CURVE SMOOTH",
"528 0 OFFCURVE",
"535 1 OFFCURVE",
"541 3 CURVE SMOOTH",
"574 14 OFFCURVE",
"592 50 OFFCURVE",
"580 83 CURVE SMOOTH"
);
},
{
closed = 1;
nodes = (
"225 280 LINE",
"302 506 LINE",
"380 280 LINE"
);
},
{
closed = 1;
nodes = (
"382 807 OFFCURVE",
"416 820 OFFCURVE",
"446 847 CURVE SMOOTH",
"469 868 OFFCURVE",
"471 904 OFFCURVE",
"450 927 CURVE SMOOTH",
"429 950 OFFCURVE",
"394 952 OFFCURVE",
"370 931 CURVE SMOOTH",
"360 922 OFFCURVE",
"353 920 OFFCURVE",
"344 920 CURVE SMOOTH",
"337 920 OFFCURVE",
"331 923 OFFCURVE",
"327 926 CURVE SMOOTH",
"303 940 OFFCURVE",
"277 948 OFFCURVE",
"250 948 CURVE SMOOTH",
"212 948 OFFCURVE",
"178 935 OFFCURVE",
"148 908 CURVE SMOOTH",
"125 887 OFFCURVE",
"123 852 OFFCURVE",
"144 828 CURVE SMOOTH",
"165 805 OFFCURVE",
"200 803 OFFCURVE",
"224 824 CURVE SMOOTH",
"234 833 OFFCURVE",
"242 835 OFFCURVE",
"250 835 CURVE SMOOTH",
"257 835 OFFCURVE",
"263 832 OFFCURVE",
"267 830 CURVE SMOOTH",
"291 815 OFFCURVE",
"318 807 OFFCURVE",
"344 807 CURVE SMOOTH"
);
}
);
width = 604;
}
);
leftKerningGroup = A.alt1;
note = A.alt6tilde;
rightKerningGroup = A.alt1;
},
{
glyphname = A.alt6circumflex;
layers = (
{
hints = (
{
horizontal = 1;
place = "{0, 21}";
target = up;
type = BottomGhost;
},
{
horizontal = 1;
place = "{763, -20}";
target = down;
type = TopGhost;
}
);
layerId = "9F677CD6-B234-481A-8F27-4A5B4DD836E1";
paths = (
{
closed = 1;
nodes = (
"362 720 LINE SMOOTH",
"353 746 OFFCURVE",
"329 763 OFFCURVE",
"302 763 CURVE SMOOTH",
"276 763 OFFCURVE",
"252 746 OFFCURVE",
"243 720 CURVE SMOOTH",
"24 83 LINE SMOOTH",
"13 50 OFFCURVE",
"31 14 OFFCURVE",
"64 3 CURVE SMOOTH",
"96 -8 OFFCURVE",
"132 9 OFFCURVE",
"143 42 CURVE SMOOTH",
"182 155 LINE",
"423 155 LINE",
"462 42 LINE SMOOTH",
"470 16 OFFCURVE",
"495 0 OFFCURVE",
"521 0 CURVE SMOOTH",
"528 0 OFFCURVE",
"535 1 OFFCURVE",
"541 3 CURVE SMOOTH",
"574 14 OFFCURVE",
"592 50 OFFCURVE",
"580 83 CURVE SMOOTH"
);
},
{
closed = 1;
nodes = (
"225 280 LINE",
"302 506 LINE",
"380 280 LINE"
);
},
{
closed = 1;
nodes = (
"304 829 LINE",
"370 790 LINE SMOOTH",
"379 785 OFFCURVE",
"389 782 OFFCURVE",
"399 782 CURVE SMOOTH",
"418 782 OFFCURVE",
"437 792 OFFCURVE",
"448 810 CURVE SMOOTH",
"463 837 OFFCURVE",
"454 872 OFFCURVE",
"428 887 CURVE SMOOTH",
"332 943 LINE SMOOTH",
"315 954 OFFCURVE",
"293 954 OFFCURVE",
"275 943 CURVE SMOOTH",
"180 887 LINE SMOOTH",
"153 872 OFFCURVE",
"144 837 OFFCURVE",
"160 810 CURVE SMOOTH",
"175 783 OFFCURVE",
"210 774 OFFCURVE",
"237 790 CURVE SMOOTH"
);
}
);
width = 604;
}
);
leftKerningGroup = A.alt1;
note = A.alt6circumflex;
rightKerningGroup = A.alt1;
},
{
glyphname = A.alt6dieresis;
layers = (
{
hints = (
{
horizontal = 1;
place = "{0, 21}";
target = up;
type = BottomGhost;
},
{
horizontal = 1;
place = "{155, 125}";
type = Stem;
},
{
horizontal = 1;
place = "{763, -20}";
target = down;
type = TopGhost;
},
{
horizontal = 1;
place = "{801, 127}";
type = Stem;
},
{
place = "{134, 128}";
type = Stem;
},
{
place = "{342, 128}";
type = Stem;
}
);
layerId = "9F677CD6-B234-481A-8F27-4A5B4DD836E1";
paths = (
{
closed = 1;
nodes = (
"362 720 LINE SMOOTH",
"353 746 OFFCURVE",
"329 763 OFFCURVE",
"302 763 CURVE SMOOTH",
"276 763 OFFCURVE",
"252 746 OFFCURVE",
"243 720 CURVE SMOOTH",
"24 83 LINE SMOOTH",
"13 50 OFFCURVE",
"31 14 OFFCURVE",
"64 3 CURVE SMOOTH",
"96 -8 OFFCURVE",
"132 9 OFFCURVE",
"143 42 CURVE SMOOTH",
"182 155 LINE",
"423 155 LINE",
"462 42 LINE SMOOTH",
"470 16 OFFCURVE",
"495 0 OFFCURVE",
"521 0 CURVE SMOOTH",
"528 0 OFFCURVE",
"535 1 OFFCURVE",
"541 3 CURVE SMOOTH",
"574 14 OFFCURVE",
"592 50 OFFCURVE",
"580 83 CURVE SMOOTH"
);
},
{
closed = 1;
nodes = (
"225 280 LINE",
"302 506 LINE",
"380 280 LINE"
);
},
{
closed = 1;
nodes = (
"163 928 OFFCURVE",
"134 899 OFFCURVE",
"134 864 CURVE SMOOTH",
"134 829 OFFCURVE",
"163 801 OFFCURVE",
"198 801 CURVE SMOOTH",
"233 801 OFFCURVE",
"262 829 OFFCURVE",
"262 864 CURVE SMOOTH",
"262 899 OFFCURVE",
"233 928 OFFCURVE",
"198 928 CURVE SMOOTH"
);
},
{
closed = 1;
nodes = (
"371 928 OFFCURVE",
"342 899 OFFCURVE",
"342 864 CURVE SMOOTH",
"342 829 OFFCURVE",
"371 801 OFFCURVE",
"406 801 CURVE SMOOTH",
"441 801 OFFCURVE",
"470 829 OFFCURVE",
"470 864 CURVE SMOOTH",
"470 899 OFFCURVE",
"441 928 OFFCURVE",
"406 928 CURVE SMOOTH"
);
}
);
width = 604;
}
);
leftKerningGroup = A.alt1;
note = A.alt6dieresis;
rightKerningGroup = A.alt1;
},
{
glyphname = A.alt6grave;
layers = (
{
hints = (
{
horizontal = 1;
place = "{0, 21}";
target = up;
type = BottomGhost;
},
{
horizontal = 1;
place = "{155, 125}";
type = Stem;
},
{
horizontal = 1;
place = "{763, -20}";
target = down;
type = TopGhost;
}
);
layerId = "9F677CD6-B234-481A-8F27-4A5B4DD836E1";
paths = (
{
closed = 1;
nodes = (
"362 720 LINE SMOOTH",
"353 746 OFFCURVE",
"329 763 OFFCURVE",
"302 763 CURVE SMOOTH",
"276 763 OFFCURVE",
"252 746 OFFCURVE",
"243 720 CURVE SMOOTH",
"24 83 LINE SMOOTH",
"13 50 OFFCURVE",
"31 14 OFFCURVE",
"64 3 CURVE SMOOTH",
"96 -8 OFFCURVE",
"132 9 OFFCURVE",
"143 42 CURVE SMOOTH",
"182 155 LINE",
"423 155 LINE",
"462 42 LINE SMOOTH",
"470 16 OFFCURVE",
"495 0 OFFCURVE",
"521 0 CURVE SMOOTH",
"528 0 OFFCURVE",
"535 1 OFFCURVE",
"541 3 CURVE SMOOTH",
"574 14 OFFCURVE",
"592 50 OFFCURVE",
"580 83 CURVE SMOOTH"
);
},
{
closed = 1;
nodes = (
"225 280 LINE",
"302 506 LINE",
"380 280 LINE"
);
},
{
closed = 1;
nodes = (
"298 817 OFFCURVE",
"317 827 OFFCURVE",
"328 845 CURVE SMOOTH",
"344 872 OFFCURVE",
"335 906 OFFCURVE",
"308 922 CURVE SMOOTH",
"212 978 LINE SMOOTH",
"186 994 OFFCURVE",
"151 985 OFFCURVE",
"135 958 CURVE SMOOTH",
"119 931 OFFCURVE",
"128 897 OFFCURVE",
"155 881 CURVE SMOOTH",
"250 825 LINE SMOOTH",
"259 819 OFFCURVE",
"269 817 OFFCURVE",
"279 817 CURVE SMOOTH"
);
}
);
width = 604;
}
);
leftKerningGroup = A.alt1;
note = A.alt6grave;
rightKerningGroup = A.alt1;
},
{
glyphname = a;
layers = (
{
hints = (
{
horizontal = 1;
place = "{-6, 120}";
type = Stem;
},
{
horizontal = 1;
place = "{280, 119}";
type = Stem;
},
{
horizontal = 1;
place = "{455, 120}";
type = Stem;
},
{
place = "{25, 120}";
type = Stem;
},
{
place = "{369, 119}";
type = Stem;
}
);
layerId = "9F677CD6-B234-481A-8F27-4A5B4DD836E1";
paths = (
{
closed = 1;
nodes = (
"171 575 LINE SMOOTH",
"138 575 OFFCURVE",
"112 548 OFFCURVE",
"112 515 CURVE SMOOTH",
"112 482 OFFCURVE",
"138 455 OFFCURVE",
"171 455 CURVE SMOOTH",
"257 455 LINE SMOOTH",
"298 455 OFFCURVE",
"335 433 OFFCURVE",
"354 399 CURVE",
"257 399 LINE SMOOTH",
"123 399 OFFCURVE",
"25 321 OFFCURVE",
"25 213 CURVE SMOOTH",
"25 88 OFFCURVE",
"125 -6 OFFCURVE",
"257 -6 CURVE SMOOTH",
"301 -6 OFFCURVE",
"343 7 OFFCURVE",
"378 29 CURVE",
"388 12 OFFCURVE",
"407 1 OFFCURVE",
"428 1 CURVE SMOOTH",
"461 1 OFFCURVE",
"488 27 OFFCURVE",
"488 60 CURVE SMOOTH",
"488 343 LINE SMOOTH",
"488 471 OFFCURVE",
"384 575 OFFCURVE",
"257 575 CURVE SMOOTH"
);
},
{
closed = 1;
nodes = (
"203 114 OFFCURVE",
"145 145 OFFCURVE",
"145 213 CURVE SMOOTH",
"145 256 OFFCURVE",
"202 280 OFFCURVE",
"257 280 CURVE SMOOTH",
"369 280 LINE",
"369 226 LINE",
"369 226 OFFCURVE",
"369 226 OFFCURVE",
"369 226 CURVE",
"369 164 OFFCURVE",
"318 114 OFFCURVE",
"257 114 CURVE SMOOTH"
);
}
);
width = 528;
}
);
leftKerningGroup = a;
note = a;
rightKerningGroup = a;
unicode = 0061;
},
{
glyphname = aacute;
layers = (
{
hints = (
{
horizontal = 1;
place = "{-6, 120}";
type = Stem;
},
{
horizontal = 1;
place = "{280, 119}";
type = Stem;
},
{
horizontal = 1;
place = "{455, 120}";
type = Stem;
},
{
place = "{39, 120}";
type = Stem;
},
{
place = "{383, 119}";
type = Stem;
}
);
layerId = "9F677CD6-B234-481A-8F27-4A5B4DD836E1";
paths = (
{
closed = 1;
nodes = (
"185 575 LINE SMOOTH",
"152 575 OFFCURVE",
"126 548 OFFCURVE",
"126 515 CURVE SMOOTH",
"126 482 OFFCURVE",
"152 455 OFFCURVE",
"185 455 CURVE SMOOTH",
"271 455 LINE SMOOTH",
"312 455 OFFCURVE",
"349 433 OFFCURVE",
"368 399 CURVE",
"271 399 LINE SMOOTH",
"137 399 OFFCURVE",
"39 321 OFFCURVE",
"39 213 CURVE SMOOTH",
"39 88 OFFCURVE",
"139 -6 OFFCURVE",
"271 -6 CURVE SMOOTH",
"315 -6 OFFCURVE",
"357 7 OFFCURVE",
"392 29 CURVE",
"402 12 OFFCURVE",
"421 1 OFFCURVE",
"442 1 CURVE SMOOTH",
"475 1 OFFCURVE",
"502 27 OFFCURVE",
"502 60 CURVE SMOOTH",
"502 343 LINE SMOOTH",
"502 471 OFFCURVE",
"398 575 OFFCURVE",
"271 575 CURVE SMOOTH"
);
},
{
closed = 1;
nodes = (
"217 114 OFFCURVE",
"159 145 OFFCURVE",
"159 213 CURVE SMOOTH",
"159 256 OFFCURVE",
"216 280 OFFCURVE",
"271 280 CURVE SMOOTH",
"383 280 LINE",
"383 226 LINE",
"383 226 OFFCURVE",
"383 226 OFFCURVE",
"383 226 CURVE",
"383 164 OFFCURVE",
"332 114 OFFCURVE",
"271 114 CURVE SMOOTH"
);
},
{
closed = 1;
nodes = (
"304 623 OFFCURVE",
"314 626 OFFCURVE",
"323 631 CURVE SMOOTH",
"418 687 LINE SMOOTH",
"445 703 OFFCURVE",
"454 737 OFFCURVE",
"438 764 CURVE SMOOTH",
"423 791 OFFCURVE",
"388 800 OFFCURVE",
"361 784 CURVE SMOOTH",
"266 728 LINE SMOOTH",
"239 712 OFFCURVE",
"230 678 OFFCURVE",
"246 651 CURVE SMOOTH",
"256 633 OFFCURVE",
"275 623 OFFCURVE",
"294 623 CURVE SMOOTH"
);
}
);
width = 542;
}
);
leftKerningGroup = a;
note = aacute;
rightKerningGroup = a;
unicode = 00E1;
},
{
glyphname = acircumflex;
layers = (
{
hints = (
{
horizontal = 1;
place = "{-6, 120}";
type = Stem;
},
{
horizontal = 1;
place = "{280, 119}";
type = Stem;
},
{
horizontal = 1;
place = "{455, 120}";
type = Stem;
},
{
place = "{39, 120}";
type = Stem;
},
{
place = "{383, 119}";
type = Stem;
},
{
horizontal = 1;
place = "{575, 36}";
type = Stem;
}
);
layerId = "9F677CD6-B234-481A-8F27-4A5B4DD836E1";
paths = (
{
closed = 1;
nodes = (
"185 575 LINE SMOOTH",
"152 575 OFFCURVE",
"126 548 OFFCURVE",
"126 515 CURVE SMOOTH",
"126 482 OFFCURVE",
"152 455 OFFCURVE",
"185 455 CURVE SMOOTH",
"271 455 LINE SMOOTH",
"312 455 OFFCURVE",
"349 433 OFFCURVE",
"368 399 CURVE",
"271 399 LINE SMOOTH",
"137 399 OFFCURVE",
"39 321 OFFCURVE",
"39 213 CURVE SMOOTH",
"39 88 OFFCURVE",
"139 -6 OFFCURVE",
"271 -6 CURVE SMOOTH",
"315 -6 OFFCURVE",
"357 7 OFFCURVE",
"392 29 CURVE",
"402 12 OFFCURVE",
"421 1 OFFCURVE",
"442 1 CURVE SMOOTH",
"475 1 OFFCURVE",
"502 27 OFFCURVE",
"502 60 CURVE SMOOTH",
"502 343 LINE SMOOTH",
"502 471 OFFCURVE",
"398 575 OFFCURVE",
"271 575 CURVE SMOOTH"
);
},
{
closed = 1;
nodes = (
"217 114 OFFCURVE",
"159 145 OFFCURVE",
"159 213 CURVE SMOOTH",
"159 256 OFFCURVE",
"216 280 OFFCURVE",
"271 280 CURVE SMOOTH",
"383 280 LINE",
"383 226 LINE",
"383 226 OFFCURVE",
"383 226 OFFCURVE",
"383 226 CURVE",
"383 164 OFFCURVE",
"332 114 OFFCURVE",
"271 114 CURVE SMOOTH"
);
},
{
closed = 1;
nodes = (
"276 658 LINE",
"342 619 LINE SMOOTH",
"351 614 OFFCURVE",
"361 611 OFFCURVE",
"371 611 CURVE SMOOTH",
"390 611 OFFCURVE",
"409 621 OFFCURVE",
"420 639 CURVE SMOOTH",
"435 666 OFFCURVE",
"426 701 OFFCURVE",
"400 716 CURVE SMOOTH",
"304 772 LINE SMOOTH",
"287 783 OFFCURVE",
"265 783 OFFCURVE",
"247 772 CURVE SMOOTH",
"152 716 LINE SMOOTH",
"125 701 OFFCURVE",
"116 666 OFFCURVE",
"132 639 CURVE SMOOTH",
"147 612 OFFCURVE",
"182 603 OFFCURVE",
"209 619 CURVE SMOOTH"
);
}
);
width = 542;
}
);
leftKerningGroup = a;
note = acircumflex;
rightKerningGroup = a;
unicode = 00E2;
},
{
glyphname = adieresis;
layers = (
{
hints = (
{
horizontal = 1;
place = "{-6, 120}";
type = Stem;
},
{
horizontal = 1;
place = "{280, 119}";
type = Stem;
},
{
horizontal = 1;
place = "{455, 120}";
type = Stem;
},
{
horizontal = 1;
place = "{622, 127}";
type = Stem;
},
{
place = "{39, 120}";
type = Stem;
},
{
place = "{383, 119}";
type = Stem;
},
{
place = "{108, 128}";
type = Stem;
},
{
place = "{316, 128}";
type = Stem;
}
);
layerId = "9F677CD6-B234-481A-8F27-4A5B4DD836E1";
paths = (
{
closed = 1;
nodes = (
"185 575 LINE SMOOTH",
"152 575 OFFCURVE",
"126 548 OFFCURVE",
"126 515 CURVE SMOOTH",
"126 482 OFFCURVE",
"152 455 OFFCURVE",
"185 455 CURVE SMOOTH",
"271 455 LINE SMOOTH",
"312 455 OFFCURVE",
"349 433 OFFCURVE",
"368 399 CURVE",
"271 399 LINE SMOOTH",
"137 399 OFFCURVE",
"39 321 OFFCURVE",
"39 213 CURVE SMOOTH",
"39 88 OFFCURVE",
"139 -6 OFFCURVE",
"271 -6 CURVE SMOOTH",
"315 -6 OFFCURVE",
"357 7 OFFCURVE",
"392 29 CURVE",
"402 12 OFFCURVE",
"421 1 OFFCURVE",
"442 1 CURVE SMOOTH",
"475 1 OFFCURVE",
"502 27 OFFCURVE",
"502 60 CURVE SMOOTH",
"502 343 LINE SMOOTH",
"502 471 OFFCURVE",
"398 575 OFFCURVE",
"271 575 CURVE SMOOTH"
);
},
{
closed = 1;
nodes = (
"217 114 OFFCURVE",
"159 145 OFFCURVE",
"159 213 CURVE SMOOTH",
"159 256 OFFCURVE",
"216 280 OFFCURVE",
"271 280 CURVE SMOOTH",
"383 280 LINE",
"383 226 LINE",
"383 226 OFFCURVE",
"383 226 OFFCURVE",
"383 226 CURVE",
"383 164 OFFCURVE",
"332 114 OFFCURVE",
"271 114 CURVE SMOOTH"
);
},
{
closed = 1;
nodes = (
"137 749 OFFCURVE",
"108 720 OFFCURVE",
"108 685 CURVE SMOOTH",
"108 650 OFFCURVE",
"137 622 OFFCURVE",
"172 622 CURVE SMOOTH",
"207 622 OFFCURVE",
"236 650 OFFCURVE",
"236 685 CURVE SMOOTH",
"236 720 OFFCURVE",
"207 749 OFFCURVE",
"172 749 CURVE SMOOTH"
);
},
{
closed = 1;
nodes = (
"345 749 OFFCURVE",
"316 720 OFFCURVE",
"316 685 CURVE SMOOTH",
"316 650 OFFCURVE",
"345 622 OFFCURVE",
"380 622 CURVE SMOOTH",
"415 622 OFFCURVE",
"444 650 OFFCURVE",
"444 685 CURVE SMOOTH",
"444 720 OFFCURVE",
"415 749 OFFCURVE",
"380 749 CURVE SMOOTH"
);
}
);
width = 542;
}
);
leftKerningGroup = a;
note = adieresis;
rightKerningGroup = a;
unicode = 00E4;
},
{
glyphname = agrave;
layers = (
{
hints = (
{
horizontal = 1;
place = "{-6, 120}";
type = Stem;
},
{
horizontal = 1;
place = "{280, 119}";
type = Stem;
},
{
horizontal = 1;
place = "{455, 120}";
type = Stem;
},
{
place = "{39, 120}";
type = Stem;
},
{
place = "{383, 119}";
type = Stem;
}
);
layerId = "9F677CD6-B234-481A-8F27-4A5B4DD836E1";
paths = (
{
closed = 1;
nodes = (
"185 575 LINE SMOOTH",
"152 575 OFFCURVE",
"126 548 OFFCURVE",
"126 515 CURVE SMOOTH",
"126 482 OFFCURVE",
"152 455 OFFCURVE",
"185 455 CURVE SMOOTH",
"271 455 LINE SMOOTH",
"312 455 OFFCURVE",
"349 433 OFFCURVE",
"368 399 CURVE",
"271 399 LINE SMOOTH",
"137 399 OFFCURVE",
"39 321 OFFCURVE",
"39 213 CURVE SMOOTH",
"39 88 OFFCURVE",
"139 -6 OFFCURVE",
"271 -6 CURVE SMOOTH",
"315 -6 OFFCURVE",
"357 7 OFFCURVE",
"392 29 CURVE",
"402 12 OFFCURVE",
"421 1 OFFCURVE",
"442 1 CURVE SMOOTH",
"475 1 OFFCURVE",
"502 27 OFFCURVE",
"502 60 CURVE SMOOTH",
"502 343 LINE SMOOTH",
"502 471 OFFCURVE",
"398 575 OFFCURVE",
"271 575 CURVE SMOOTH"
);
},
{
closed = 1;
nodes = (
"217 114 OFFCURVE",
"159 145 OFFCURVE",
"159 213 CURVE SMOOTH",
"159 256 OFFCURVE",
"216 280 OFFCURVE",
"271 280 CURVE SMOOTH",
"383 280 LINE",
"383 226 LINE",
"383 226 OFFCURVE",
"383 226 OFFCURVE",
"383 226 CURVE",
"383 164 OFFCURVE",
"332 114 OFFCURVE",
"271 114 CURVE SMOOTH"
);
},
{
closed = 1;
nodes = (
"291 623 OFFCURVE",
"310 633 OFFCURVE",
"321 651 CURVE SMOOTH",
"337 678 OFFCURVE",
"328 712 OFFCURVE",
"301 728 CURVE SMOOTH",
"205 784 LINE SMOOTH",
"179 800 OFFCURVE",
"144 791 OFFCURVE",
"128 764 CURVE SMOOTH",
"112 737 OFFCURVE",
"121 703 OFFCURVE",
"148 687 CURVE SMOOTH",
"243 631 LINE SMOOTH",
"252 625 OFFCURVE",
"262 623 OFFCURVE",
"272 623 CURVE SMOOTH"
);
}
);
width = 542;
}
);
leftKerningGroup = a;
note = agrave;
rightKerningGroup = a;
unicode = 00E0;
},
{
glyphname = atilde;
layers = (
{
hints = (
{
horizontal = 1;
place = "{-6, 120}";
type = Stem;
},
{
horizontal = 1;
place = "{280, 119}";
type = Stem;
},
{
horizontal = 1;
place = "{455, 120}";
type = Stem;
},
{
horizontal = 1;
place = "{621, 141}";
type = Stem;
},
{
place = "{39, 120}";
type = Stem;
},
{
place = "{383, 119}";
type = Stem;
}
);
layerId = "9F677CD6-B234-481A-8F27-4A5B4DD836E1";
paths = (
{
closed = 1;
nodes = (
"185 575 LINE SMOOTH",
"152 575 OFFCURVE",
"126 548 OFFCURVE",
"126 515 CURVE SMOOTH",
"126 482 OFFCURVE",
"152 455 OFFCURVE",
"185 455 CURVE SMOOTH",
"271 455 LINE SMOOTH",
"312 455 OFFCURVE",
"349 433 OFFCURVE",
"368 399 CURVE",
"271 399 LINE SMOOTH",
"137 399 OFFCURVE",
"39 321 OFFCURVE",
"39 213 CURVE SMOOTH",
"39 88 OFFCURVE",
"139 -6 OFFCURVE",
"271 -6 CURVE SMOOTH",
"315 -6 OFFCURVE",
"357 7 OFFCURVE",
"392 29 CURVE",
"402 12 OFFCURVE",
"421 1 OFFCURVE",
"442 1 CURVE SMOOTH",
"475 1 OFFCURVE",
"502 27 OFFCURVE",
"502 60 CURVE SMOOTH",
"502 343 LINE SMOOTH",
"502 471 OFFCURVE",
"398 575 OFFCURVE",
"271 575 CURVE SMOOTH"
);
},
{
closed = 1;
nodes = (
"217 114 OFFCURVE",
"159 145 OFFCURVE",
"159 213 CURVE SMOOTH",
"159 256 OFFCURVE",
"216 280 OFFCURVE",
"271 280 CURVE SMOOTH",
"383 280 LINE",
"383 226 LINE",
"383 226 OFFCURVE",
"383 226 OFFCURVE",
"383 226 CURVE",
"383 164 OFFCURVE",
"332 114 OFFCURVE",
"271 114 CURVE SMOOTH"
);
},
{
closed = 1;
nodes = (
"370 621 OFFCURVE",
"404 634 OFFCURVE",
"434 661 CURVE SMOOTH",
"457 682 OFFCURVE",
"459 718 OFFCURVE",
"438 741 CURVE SMOOTH",
"417 764 OFFCURVE",
"382 766 OFFCURVE",
"358 745 CURVE SMOOTH",
"348 736 OFFCURVE",
"341 734 OFFCURVE",
"332 734 CURVE SMOOTH",
"325 734 OFFCURVE",
"319 737 OFFCURVE",
"315 740 CURVE SMOOTH",
"291 754 OFFCURVE",
"265 762 OFFCURVE",
"238 762 CURVE SMOOTH",
"200 762 OFFCURVE",
"166 749 OFFCURVE",
"136 722 CURVE SMOOTH",
"113 701 OFFCURVE",
"111 666 OFFCURVE",
"132 642 CURVE SMOOTH",
"153 619 OFFCURVE",
"188 617 OFFCURVE",
"212 638 CURVE SMOOTH",
"222 647 OFFCURVE",
"230 649 OFFCURVE",
"238 649 CURVE SMOOTH",
"245 649 OFFCURVE",
"251 646 OFFCURVE",
"255 644 CURVE SMOOTH",
"279 629 OFFCURVE",
"306 621 OFFCURVE",
"332 621 CURVE SMOOTH"
);
}
);
width = 542;
}
);
leftKerningGroup = a;
note = atilde;
rightKerningGroup = a;
unicode = 00E3;
},
{
glyphname = B;
layers = (
{
hints = (
{
horizontal = 1;
place = "{0, 125}";
type = Stem;
},
{
horizontal = 1;
place = "{344, 125}";
type = Stem;
},
{
horizontal = 1;
place = "{637, 126}";
type = Stem;
},
{
place = "{50, 126}";
type = Stem;
},
{
place = "{396, 125}";
type = Stem;
},
{
place = "{308, 125}";
type = Stem;
}
);
layerId = "9F677CD6-B234-481A-8F27-4A5B4DD836E1";
paths = (
{
closed = 1;
nodes = (
"286 0 LINE SMOOTH",
"416 0 OFFCURVE",
"521 105 OFFCURVE",
"521 235 CURVE SMOOTH",
"521 323 OFFCURVE",
"472 400 OFFCURVE",
"400 440 CURVE",
"421 473 OFFCURVE",
"433 512 OFFCURVE",
"433 553 CURVE SMOOTH",
"433 669 OFFCURVE",
"339 763 OFFCURVE",
"224 763 CURVE SMOOTH",
"113 763 LINE SMOOTH",
"78 763 OFFCURVE",
"50 735 OFFCURVE",
"50 700 CURVE SMOOTH",
"50 62 LINE SMOOTH",
"50 28 OFFCURVE",
"78 0 OFFCURVE",
"113 0 CURVE SMOOTH"
);
},
{
closed = 1;
nodes = (
"176 637 LINE",
"224 637 LINE SMOOTH",
"270 637 OFFCURVE",
"308 600 OFFCURVE",
"308 553 CURVE SMOOTH",
"308 507 OFFCURVE",
"270 469 OFFCURVE",
"224 469 CURVE SMOOTH",
"223 469 OFFCURVE",
"222 469 OFFCURVE",
"222 469 CURVE",
"176 469 LINE"
);
},
{
closed = 1;
nodes = (
"176 344 LINE",
"286 344 LINE SMOOTH",
"347 344 OFFCURVE",
"396 295 OFFCURVE",
"396 235 CURVE SMOOTH",
"396 174 OFFCURVE",
"347 125 OFFCURVE",
"286 125 CURVE SMOOTH",
"176 125 LINE"
);
}
);
width = 553;
}
);
note = B;
rightKerningGroup = B;
unicode = 0042;
},
{
glyphname = B.alt1;
layers = (
{
hints = (
{
horizontal = 1;
place = "{0, 125}";
type = Stem;
},
{
horizontal = 1;
place = "{637, 126}";
type = Stem;
},
{
place = "{50, 125}";
type = Stem;
},
{
place = "{396, 126}";
type = Stem;
},
{
place = "{323, 126}";
type = Stem;
}
);
layerId = "9F677CD6-B234-481A-8F27-4A5B4DD836E1";
paths = (
{
closed = 1;
nodes = (
"285 0 LINE SMOOTH",
"415 0 OFFCURVE",
"522 106 OFFCURVE",
"522 236 CURVE SMOOTH",
"522 320 OFFCURVE",
"478 393 OFFCURVE",
"412 435 CURVE",
"436 469 OFFCURVE",
"449 510 OFFCURVE",
"449 554 CURVE SMOOTH",
"449 669 OFFCURVE",
"355 763 OFFCURVE",
"240 763 CURVE SMOOTH",
"237 763 OFFCURVE",
"234 763 OFFCURVE",
"231 762 CURVE",
"229 763 OFFCURVE",
"226 763 OFFCURVE",
"223 763 CURVE",
"223 763 OFFCURVE",
"223 763 OFFCURVE",
"223 763 CURVE",
"112 763 LINE SMOOTH",
"78 763 OFFCURVE",
"50 735 OFFCURVE",
"50 700 CURVE SMOOTH",
"50 62 LINE SMOOTH",
"50 28 OFFCURVE",
"78 0 OFFCURVE",
"112 0 CURVE SMOOTH"
);
},
{
closed = 1;
nodes = (
"175 637 LINE",
"223 637 LINE SMOOTH",
"226 637 OFFCURVE",
"229 637 OFFCURVE",
"231 638 CURVE",
"234 637 OFFCURVE",
"237 637 OFFCURVE",
"240 637 CURVE SMOOTH",
"286 637 OFFCURVE",
"323 600 OFFCURVE",
"323 554 CURVE SMOOTH",
"323 514 OFFCURVE",
"295 479 OFFCURVE",
"256 472 CURVE SMOOTH",
"225 465 OFFCURVE",
"203 436 OFFCURVE",
"206 404 CURVE SMOOTH",
"209 372 OFFCURVE",
"236 347 OFFCURVE",
"268 347 CURVE SMOOTH",
"285 347 LINE SMOOTH",
"346 347 OFFCURVE",
"396 297 OFFCURVE",
"396 236 CURVE SMOOTH",
"396 175 OFFCURVE",
"346 125 OFFCURVE",
"285 125 CURVE SMOOTH",
"175 125 LINE"
);
}
);
width = 554;
}
);
note = B.alt1;
rightKerningGroup = B;
},
{
glyphname = B.alt2;
layers = (
{
hints = (
{
horizontal = 1;
place = "{0, 125}";
type = Stem;
},
{
horizontal = 1;
place = "{344, 125}";
type = Stem;
},
{
horizontal = 1;
place = "{637, 126}";
type = Stem;
},
{
place = "{50, 126}";
type = Stem;
},
{
place = "{421, 125}";
type = Stem;
},
{
place = "{345, 126}";
type = Stem;
}
);
layerId = "9F677CD6-B234-481A-8F27-4A5B4DD836E1";
paths = (
{
closed = 1;
nodes = (
"113 763 LINE SMOOTH",
"78 763 OFFCURVE",
"50 735 OFFCURVE",
"50 700 CURVE SMOOTH",
"50 62 LINE SMOOTH",
"50 28 OFFCURVE",
"78 0 OFFCURVE",
"113 0 CURVE SMOOTH",
"311 0 LINE SMOOTH",
"441 0 OFFCURVE",
"546 105 OFFCURVE",
"546 235 CURVE SMOOTH",
"546 319 OFFCURVE",
"501 393 OFFCURVE",
"434 435 CURVE",
"457 469 OFFCURVE",
"471 509 OFFCURVE",
"471 553 CURVE SMOOTH",
"471 669 OFFCURVE",
"377 763 OFFCURVE",
"261 763 CURVE SMOOTH"
);
},
{
closed = 1;
nodes = (
"176 637 LINE",
"261 637 LINE SMOOTH",
"308 637 OFFCURVE",
"345 600 OFFCURVE",
"345 553 CURVE SMOOTH",
"345 507 OFFCURVE",
"308 469 OFFCURVE",
"261 469 CURVE",
"261 469 OFFCURVE",
"260 469 OFFCURVE",
"259 469 CURVE SMOOTH",
"176 469 LINE"
);
},
{
closed = 1;
nodes = (
"176 125 LINE",
"176 344 LINE",
"311 344 LINE SMOOTH",
"372 344 OFFCURVE",
"421 295 OFFCURVE",
"421 235 CURVE SMOOTH",
"421 174 OFFCURVE",
"372 125 OFFCURVE",
"311 125 CURVE SMOOTH"
);
}
);
width = 578;
}
);
note = B.alt2;
rightKerningGroup = B;
},
{
glyphname = b;
layers = (
{
hints = (
{
horizontal = 1;
place = "{0, 21}";
target = up;
type = BottomGhost;
},
{
horizontal = 1;
place = "{454, 119}";
type = Stem;
},
{
horizontal = 1;
place = "{763, -20}";
target = down;
type = TopGhost;
},
{
place = "{45, 119}";
type = Stem;
},
{
place = "{388, 119}";
type = Stem;
},
{
horizontal = 1;
place = "{-7, 120}";
type = Stem;
}
);
layerId = "9F677CD6-B234-481A-8F27-4A5B4DD836E1";
paths = (
{
closed = 1;
nodes = (
"235 573 OFFCURVE",
"197 563 OFFCURVE",
"164 544 CURVE",
"164 704 LINE SMOOTH",
"164 737 OFFCURVE",
"137 763 OFFCURVE",
"104 763 CURVE SMOOTH",
"71 763 OFFCURVE",
"45 737 OFFCURVE",
"45 704 CURVE SMOOTH",
"45 342 LINE",
"45 225 LINE",
"45 59 LINE SMOOTH",
"45 26 OFFCURVE",
"71 0 OFFCURVE",
"104 0 CURVE SMOOTH",
"125 0 OFFCURVE",
"144 11 OFFCURVE",
"155 28 CURVE",
"190 6 OFFCURVE",
"231 -7 OFFCURVE",
"276 -7 CURVE SMOOTH",
"403 -7 OFFCURVE",
"507 97 OFFCURVE",
"507 225 CURVE SMOOTH",
"507 342 LINE SMOOTH",
"507 470 OFFCURVE",
"403 573 OFFCURVE",
"276 573 CURVE SMOOTH"
);
},
{
closed = 1;
nodes = (
"388 225 LINE SMOOTH",
"388 163 OFFCURVE",
"337 113 OFFCURVE",
"276 113 CURVE SMOOTH",
"214 113 OFFCURVE",
"164 163 OFFCURVE",
"164 225 CURVE SMOOTH",
"164 342 LINE SMOOTH",
"164 404 OFFCURVE",
"214 454 OFFCURVE",
"276 454 CURVE SMOOTH",
"337 454 OFFCURVE",
"388 404 OFFCURVE",
"388 342 CURVE SMOOTH"
);
}
);
width = 542;
}
);
note = b;
rightKerningGroup = a;
unicode = 0062;
},
{
glyphname = C;
layers = (
{
hints = (
{
horizontal = 1;
place = "{-12, 125}";
type = Stem;
},
{
horizontal = 1;
place = "{650, 126}";
type = Stem;
},
{
place = "{44, 125}";
type = Stem;
},
{
place = "{416, 126}";
type = Stem;
}
);
layerId = "9F677CD6-B234-481A-8F27-4A5B4DD836E1";
paths = (
{
closed = 1;
nodes = (
"430 -12 OFFCURVE",
"542 100 OFFCURVE",
"542 237 CURVE SMOOTH",
"542 251 OFFCURVE",
"541 265 OFFCURVE",
"538 279 CURVE SMOOTH",
"533 313 OFFCURVE",
"500 336 OFFCURVE",
"466 330 CURVE SMOOTH",
"432 324 OFFCURVE",
"409 292 OFFCURVE",
"415 258 CURVE SMOOTH",
"416 251 OFFCURVE",
"416 244 OFFCURVE",
"416 237 CURVE SMOOTH",
"416 169 OFFCURVE",
"361 113 OFFCURVE",
"293 113 CURVE SMOOTH",
"224 113 OFFCURVE",
"169 169 OFFCURVE",
"169 237 CURVE SMOOTH",
"169 527 LINE SMOOTH",
"169 595 OFFCURVE",
"224 650 OFFCURVE",
"293 650 CURVE SMOOTH",
"361 650 OFFCURVE",
"416 595 OFFCURVE",
"416 527 CURVE SMOOTH",
"416 521 OFFCURVE",
"416 515 OFFCURVE",
"415 508 CURVE SMOOTH",
"410 474 OFFCURVE",
"433 442 OFFCURVE",
"468 437 CURVE SMOOTH",
"502 432 OFFCURVE",
"534 455 OFFCURVE",
"539 489 CURVE SMOOTH",
"541 502 OFFCURVE",
"542 515 OFFCURVE",
"542 527 CURVE SMOOTH",
"542 664 OFFCURVE",
"430 776 OFFCURVE",
"293 776 CURVE SMOOTH",
"155 776 OFFCURVE",
"44 664 OFFCURVE",
"44 527 CURVE SMOOTH",
"44 237 LINE SMOOTH",
"44 100 OFFCURVE",
"155 -12 OFFCURVE",
"293 -12 CURVE SMOOTH"
);
}
);
width = 586;
}
);
leftKerningGroup = zero;
note = C;
rightKerningGroup = zero;
unicode = 0043;
},
{
glyphname = Ccedilla;
layers = (
{
hints = (
{
horizontal = 1;
place = "{-146, 113}";
type = Stem;
},
{
horizontal = 1;
place = "{-12, 125}";
type = Stem;
},
{
horizontal = 1;
place = "{650, 126}";
type = Stem;
},
{
place = "{44, 125}";
type = Stem;
},
{
place = "{379, 163}";
type = Stem;
},
{
place = "{416, 126}";
type = Stem;
}
);
layerId = "9F677CD6-B234-481A-8F27-4A5B4DD836E1";
paths = (
{
closed = 1;
nodes = (
"262 -146 LINE SMOOTH",
"231 -146 OFFCURVE",
"206 -121 OFFCURVE",
"206 -89 CURVE SMOOTH",
"206 -58 OFFCURVE",
"231 -33 OFFCURVE",
"262 -33 CURVE SMOOTH",
"322 -33 LINE SMOOTH",
"354 -33 OFFCURVE",
"379 -58 OFFCURVE",
"379 -89 CURVE SMOOTH",
"379 -121 OFFCURVE",
"354 -146 OFFCURVE",
"322 -146 CURVE SMOOTH"
);
},
{
closed = 1;
nodes = (
"430 -12 OFFCURVE",
"542 100 OFFCURVE",
"542 237 CURVE SMOOTH",
"542 251 OFFCURVE",
"541 265 OFFCURVE",
"538 279 CURVE SMOOTH",
"533 313 OFFCURVE",
"500 336 OFFCURVE",
"466 330 CURVE SMOOTH",
"432 324 OFFCURVE",
"409 292 OFFCURVE",
"415 258 CURVE SMOOTH",
"416 251 OFFCURVE",
"416 244 OFFCURVE",
"416 237 CURVE SMOOTH",
"416 169 OFFCURVE",
"361 113 OFFCURVE",
"293 113 CURVE SMOOTH",
"224 113 OFFCURVE",
"169 169 OFFCURVE",
"169 237 CURVE SMOOTH",
"169 527 LINE SMOOTH",
"169 595 OFFCURVE",
"224 650 OFFCURVE",
"293 650 CURVE SMOOTH",
"361 650 OFFCURVE",
"416 595 OFFCURVE",
"416 527 CURVE SMOOTH",
"416 521 OFFCURVE",
"416 515 OFFCURVE",
"415 508 CURVE SMOOTH",
"410 474 OFFCURVE",
"433 442 OFFCURVE",
"468 437 CURVE SMOOTH",
"502 432 OFFCURVE",
"534 455 OFFCURVE",
"539 489 CURVE SMOOTH",
"541 502 OFFCURVE",
"542 515 OFFCURVE",
"542 527 CURVE SMOOTH",
"542 664 OFFCURVE",
"430 776 OFFCURVE",
"293 776 CURVE SMOOTH",
"155 776 OFFCURVE",
"44 664 OFFCURVE",
"44 527 CURVE SMOOTH",
"44 237 LINE SMOOTH",
"44 100 OFFCURVE",
"155 -12 OFFCURVE",
"293 -12 CURVE SMOOTH"
);
}
);
width = 586;
}
);
leftKerningGroup = zero;
note = Ccedilla;
rightKerningGroup = zero;
unicode = 00C7;
},
{
glyphname = C.alt1;
layers = (
{
hints = (
{
horizontal = 1;
place = "{-20, 126}";
type = Stem;
},
{
horizontal = 1;
place = "{657, 125}";
type = Stem;
},
{
place = "{35, 126}";
type = Stem;
}
);
layerId = "9F677CD6-B234-481A-8F27-4A5B4DD836E1";
paths = (
{
closed = 1;
nodes = (
"610 -20 OFFCURVE",
"763 91 OFFCURVE",
"817 256 CURVE SMOOTH",
"828 289 OFFCURVE",
"810 324 OFFCURVE",
"777 335 CURVE SMOOTH",
"744 346 OFFCURVE",
"709 328 OFFCURVE",
"698 295 CURVE SMOOTH",
"661 182 OFFCURVE",
"555 106 OFFCURVE",
"436 106 CURVE SMOOTH",
"284 106 OFFCURVE",
"161 229 OFFCURVE",
"161 381 CURVE SMOOTH",
"161 533 OFFCURVE",
"284 657 OFFCURVE",
"436 657 CURVE SMOOTH",
"555 657 OFFCURVE",
"660 581 OFFCURVE",
"698 468 CURVE SMOOTH",
"709 435 OFFCURVE",
"744 417 OFFCURVE",
"777 428 CURVE SMOOTH",
"810 439 OFFCURVE",
"828 474 OFFCURVE",
"817 507 CURVE SMOOTH",
"763 672 OFFCURVE",
"610 782 OFFCURVE",
"436 782 CURVE SMOOTH",
"215 782 OFFCURVE",
"35 602 OFFCURVE",
"35 381 CURVE SMOOTH",
"35 160 OFFCURVE",
"215 -20 OFFCURVE",
"436 -20 CURVE SMOOTH"
);
}
);
width = 851;
}
);
leftKerningGroup = at;
note = C.alt1;
rightKerningGroup = at;
},
{
glyphname = C.alt1cedilla;
layers = (
{
hints = (
{
horizontal = 1;
place = "{-151, 113}";
type = Stem;
},
{
horizontal = 1;
place = "{-20, 126}";
type = Stem;
},
{
horizontal = 1;
place = "{657, 125}";
type = Stem;
},
{
place = "{35, 126}";
type = Stem;
},
{
place = "{327, 208}";
type = Stem;
}
);
layerId = "9F677CD6-B234-481A-8F27-4A5B4DD836E1";
paths = (
{
closed = 1;
nodes = (
"383 -151 LINE SMOOTH",
"352 -151 OFFCURVE",
"327 -126 OFFCURVE",
"327 -94 CURVE SMOOTH",
"327 -63 OFFCURVE",
"352 -38 OFFCURVE",
"383 -38 CURVE SMOOTH",
"479 -38 LINE SMOOTH",
"510 -38 OFFCURVE",
"535 -63 OFFCURVE",
"535 -94 CURVE SMOOTH",
"535 -126 OFFCURVE",
"510 -151 OFFCURVE",
"479 -151 CURVE SMOOTH"
);
},
{
closed = 1;
nodes = (
"610 -20 OFFCURVE",
"763 91 OFFCURVE",
"817 256 CURVE SMOOTH",
"828 289 OFFCURVE",
"810 324 OFFCURVE",
"777 335 CURVE SMOOTH",
"744 346 OFFCURVE",
"709 328 OFFCURVE",
"698 295 CURVE SMOOTH",
"661 182 OFFCURVE",
"555 106 OFFCURVE",
"436 106 CURVE SMOOTH",
"284 106 OFFCURVE",
"161 229 OFFCURVE",
"161 381 CURVE SMOOTH",
"161 533 OFFCURVE",
"284 657 OFFCURVE",
"436 657 CURVE SMOOTH",
"555 657 OFFCURVE",
"660 581 OFFCURVE",
"698 468 CURVE SMOOTH",
"709 435 OFFCURVE",
"744 417 OFFCURVE",
"777 428 CURVE SMOOTH",
"810 439 OFFCURVE",
"828 474 OFFCURVE",
"817 507 CURVE SMOOTH",
"763 672 OFFCURVE",
"610 782 OFFCURVE",
"436 782 CURVE SMOOTH",
"215 782 OFFCURVE",
"35 602 OFFCURVE",
"35 381 CURVE SMOOTH",
"35 160 OFFCURVE",
"215 -20 OFFCURVE",
"436 -20 CURVE SMOOTH"
);
}
);
width = 851;
}
);
note = C.alt1cedilla;
rightKerningGroup = at;
},
{
glyphname = C.alt2;
layers = (
{
hints = (
{
horizontal = 1;
place = "{0, 125}";
type = Stem;
},
{
horizontal = 1;
place = "{637, 126}";
type = Stem;
},
{
place = "{45, 125}";
type = Stem;
}
);
layerId = "9F677CD6-B234-481A-8F27-4A5B4DD836E1";
paths = (
{
closed = 1;
nodes = (
"481 0 OFFCURVE",
"509 28 OFFCURVE",
"509 63 CURVE SMOOTH",
"509 97 OFFCURVE",
"481 125 OFFCURVE",
"447 125 CURVE SMOOTH",
"250 125 LINE SMOOTH",
"206 125 OFFCURVE",
"170 161 OFFCURVE",
"170 205 CURVE SMOOTH",
"170 558 LINE SMOOTH",
"170 602 OFFCURVE",
"206 637 OFFCURVE",
"250 637 CURVE SMOOTH",
"429 637 LINE SMOOTH",
"464 637 OFFCURVE",
"492 666 OFFCURVE",
"492 700 CURVE SMOOTH",
"492 735 OFFCURVE",
"464 763 OFFCURVE",
"429 763 CURVE SMOOTH",
"250 763 LINE SMOOTH",
"137 763 OFFCURVE",
"45 671 OFFCURVE",
"45 558 CURVE SMOOTH",
"45 205 LINE SMOOTH",
"45 92 OFFCURVE",
"137 0 OFFCURVE",
"250 0 CURVE SMOOTH",
"447 0 LINE SMOOTH"
);
}
);
width = 524;
}
);
leftKerningGroup = C.alt2;
note = C.alt2;
rightKerningGroup = C.alt2;
},
{
glyphname = C.alt2cedilla;
layers = (
{
hints = (
{
horizontal = 1;
place = "{-136, 113}";
type = Stem;
},
{
horizontal = 1;
place = "{0, 125}";
type = Stem;
},
{
horizontal = 1;
place = "{637, 126}";
type = Stem;
},
{
place = "{45, 125}";
type = Stem;
},
{
place = "{398, 111}";
type = Stem;
}
);
layerId = "9F677CD6-B234-481A-8F27-4A5B4DD836E1";
paths = (
{
closed = 1;
nodes = (
"447 0 LINE SMOOTH",
"481 0 OFFCURVE",
"509 28 OFFCURVE",
"509 63 CURVE SMOOTH",
"509 97 OFFCURVE",
"481 125 OFFCURVE",
"447 125 CURVE SMOOTH",
"250 125 LINE SMOOTH",
"206 125 OFFCURVE",
"170 161 OFFCURVE",
"170 205 CURVE SMOOTH",
"170 558 LINE SMOOTH",
"170 602 OFFCURVE",
"206 637 OFFCURVE",
"250 637 CURVE SMOOTH",
"429 637 LINE SMOOTH",
"464 637 OFFCURVE",
"492 666 OFFCURVE",
"492 700 CURVE SMOOTH",
"492 735 OFFCURVE",
"464 763 OFFCURVE",
"429 763 CURVE SMOOTH",
"250 763 LINE SMOOTH",
"137 763 OFFCURVE",
"45 671 OFFCURVE",
"45 558 CURVE SMOOTH",
"45 205 LINE SMOOTH",
"45 92 OFFCURVE",
"137 0 OFFCURVE",
"250 0 CURVE SMOOTH"
);
},
{
closed = 1;
nodes = (
"248 -136 LINE SMOOTH",
"217 -136 OFFCURVE",
"192 -111 OFFCURVE",
"192 -79 CURVE SMOOTH",
"192 -48 OFFCURVE",
"217 -23 OFFCURVE",
"248 -23 CURVE SMOOTH",
"341 -23 LINE SMOOTH",
"372 -23 OFFCURVE",
"398 -48 OFFCURVE",
"398 -79 CURVE SMOOTH",
"398 -111 OFFCURVE",
"372 -136 OFFCURVE",
"341 -136 CURVE SMOOTH"
);
}
);
width = 524;
}
);
leftKerningGroup = C.alt2;
note = C.alt2cedilla;
rightKerningGroup = C.alt2;
},
{
glyphname = c;
layers = (
{
hints = (
{
place = "{35, 119}";
type = Stem;
}
);
layerId = "9F677CD6-B234-481A-8F27-4A5B4DD836E1";
paths = (
{
closed = 1;
nodes = (
"35 224 LINE SMOOTH",
"35 149 OFFCURVE",
"73 77 OFFCURVE",
"135 34 CURVE SMOOTH",
"199 -11 OFFCURVE",
"283 -20 OFFCURVE",
"355 10 CURVE SMOOTH",
"385 23 OFFCURVE",
"412 41 OFFCURVE",
"434 64 CURVE SMOOTH",
"456 88 OFFCURVE",
"480 120 OFFCURVE",
"484 153 CURVE SMOOTH",
"489 187 OFFCURVE",
"472 225 OFFCURVE",
"437 233 CURVE SMOOTH",
"404 241 OFFCURVE",
"370 218 OFFCURVE",
"364 185 CURVE SMOOTH",
"361 164 OFFCURVE",
"349 146 OFFCURVE",
"333 134 CURVE SMOOTH",
"298 108 OFFCURVE",
"248 105 OFFCURVE",
"210 127 CURVE SMOOTH",
"176 147 OFFCURVE",
"154 184 OFFCURVE",
"154 224 CURVE SMOOTH",
"154 342 LINE SMOOTH",
"154 381 OFFCURVE",
"175 417 OFFCURVE",
"208 438 CURVE SMOOTH",
"247 461 OFFCURVE",
"297 458 OFFCURVE",
"333 432 CURVE SMOOTH",
"349 420 OFFCURVE",
"361 402 OFFCURVE",
"364 381 CURVE SMOOTH",
"371 340 OFFCURVE",
"418 318 OFFCURVE",
"453 339 CURVE SMOOTH",
"471 350 OFFCURVE",
"482 369 OFFCURVE",
"484 390 CURVE SMOOTH",
"487 413 OFFCURVE",
"480 433 OFFCURVE",
"469 453 CURVE SMOOTH",
"430 523 OFFCURVE",
"356 569 OFFCURVE",
"276 573 CURVE SMOOTH",
"213 575 OFFCURVE",
"151 552 OFFCURVE",
"106 508 CURVE SMOOTH",
"61 465 OFFCURVE",
"35 404 OFFCURVE",
"35 342 CURVE SMOOTH"
);
}
);
width = 520;
}
);
leftKerningGroup = a;
note = c;
rightKerningGroup = a;
unicode = 0063;
},
{
glyphname = D;
layers = (
{
hints = (
{
horizontal = 1;
place = "{0, 125}";
type = Stem;
},
{
horizontal = 1;
place = "{637, 126}";
type = Stem;
},
{
place = "{50, 125}";
type = Stem;
},
{
place = "{426, 125}";
type = Stem;
}
);
layerId = "9F677CD6-B234-481A-8F27-4A5B4DD836E1";
paths = (
{
closed = 1;
nodes = (
"169 0 LINE SMOOTH",
"380 0 OFFCURVE",
"551 171 OFFCURVE",
"551 381 CURVE SMOOTH",
"551 592 OFFCURVE",
"380 763 OFFCURVE",
"169 763 CURVE SMOOTH",
"112 763 LINE SMOOTH",
"78 763 OFFCURVE",
"50 735 OFFCURVE",
"50 700 CURVE SMOOTH",
"50 62 LINE SMOOTH",
"50 28 OFFCURVE",
"78 0 OFFCURVE",
"112 0 CURVE SMOOTH"
);
},
{
closed = 1;
nodes = (
"175 637 LINE",
"314 634 OFFCURVE",
"426 520 OFFCURVE",
"426 381 CURVE SMOOTH",
"426 242 OFFCURVE",
"314 128 OFFCURVE",
"175 125 CURVE"
);
}
);
width = 576;
}
);
note = D;
rightKerningGroup = at;
unicode = 0044;
},
{
glyphname = D.alt1;
layers = (
{
hints = (
{
horizontal = 1;
place = "{-1, 21}";
target = up;
type = BottomGhost;
},
{
horizontal = 1;
place = "{637, 125}";
type = Stem;
},
{
place = "{50, 126}";
type = Stem;
},
{
place = "{426, 126}";
type = Stem;
}
);
layerId = "9F677CD6-B234-481A-8F27-4A5B4DD836E1";
paths = (
{
closed = 1;
nodes = (
"113 762 LINE SMOOTH",
"78 762 OFFCURVE",
"50 734 OFFCURVE",
"50 699 CURVE SMOOTH",
"50 62 LINE SMOOTH",
"50 27 OFFCURVE",
"78 -1 OFFCURVE",
"113 -1 CURVE SMOOTH",
"148 -1 OFFCURVE",
"176 27 OFFCURVE",
"176 62 CURVE SMOOTH",
"176 637 LINE",
"314 634 OFFCURVE",
"426 520 OFFCURVE",
"426 381 CURVE SMOOTH",
"426 269 OFFCURVE",
"355 171 OFFCURVE",
"249 137 CURVE SMOOTH",
"216 126 OFFCURVE",
"198 91 OFFCURVE",
"208 58 CURVE SMOOTH",
"219 25 OFFCURVE",
"254 7 OFFCURVE",
"287 17 CURVE SMOOTH",
"445 69 OFFCURVE",
"552 214 OFFCURVE",
"552 381 CURVE SMOOTH",
"552 591 OFFCURVE",
"380 762 OFFCURVE",
"170 762 CURVE SMOOTH"
);
}
);
width = 587;
}
);
note = D.alt1;
rightKerningGroup = at;
},
{
glyphname = D.alt2;
layers = (
{
hints = (
{
horizontal = 1;
place = "{0, 125}";
type = Stem;
},
{
horizontal = 1;
place = "{637, 126}";
type = Stem;
},
{
place = "{50, 125}";
type = Stem;
},
{
place = "{426, 125}";
type = Stem;
}
);
layerId = "9F677CD6-B234-481A-8F27-4A5B4DD836E1";
paths = (
{
closed = 1;
nodes = (
"169 0 LINE SMOOTH",
"380 0 OFFCURVE",
"551 171 OFFCURVE",
"551 381 CURVE SMOOTH",
"551 592 OFFCURVE",
"380 763 OFFCURVE",
"169 763 CURVE SMOOTH",
"112 763 LINE SMOOTH",
"78 763 OFFCURVE",
"50 735 OFFCURVE",
"50 700 CURVE SMOOTH",
"50 62 LINE SMOOTH",
"50 28 OFFCURVE",
"78 0 OFFCURVE",
"112 0 CURVE SMOOTH"
);
},
{
closed = 1;
nodes = (
"175 637 LINE",
"314 634 OFFCURVE",
"426 520 OFFCURVE",
"426 381 CURVE SMOOTH",
"426 242 OFFCURVE",
"314 128 OFFCURVE",
"175 125 CURVE"
);
}
);
width = 586;
}
);
note = D.alt2;
rightKerningGroup = at;
},
{
glyphname = d;
layers = (
{
hints = (
{
horizontal = 1;
place = "{-7, 120}";
type = Stem;
},
{
horizontal = 1;
place = "{454, 119}";
type = Stem;
},
{
horizontal = 1;
place = "{763, -20}";
target = down;
type = TopGhost;
},
{
place = "{35, 119}";
type = Stem;
},
{
place = "{378, 120}";
type = Stem;
},
{
horizontal = 1;
place = "{0, 21}";
target = up;
type = BottomGhost;
}
);
layerId = "9F677CD6-B234-481A-8F27-4A5B4DD836E1";
paths = (
{
closed = 1;
nodes = (
"405 763 OFFCURVE",
"378 737 OFFCURVE",
"378 704 CURVE SMOOTH",
"378 544 LINE",
"345 563 OFFCURVE",
"307 573 OFFCURVE",
"266 573 CURVE SMOOTH",
"139 573 OFFCURVE",
"35 470 OFFCURVE",
"35 342 CURVE SMOOTH",
"35 225 LINE SMOOTH",
"35 97 OFFCURVE",
"139 -7 OFFCURVE",
"266 -7 CURVE SMOOTH",
"311 -7 OFFCURVE",
"352 6 OFFCURVE",
"388 28 CURVE",
"398 11 OFFCURVE",
"417 0 OFFCURVE",
"438 0 CURVE SMOOTH",
"471 0 OFFCURVE",
"498 26 OFFCURVE",
"498 59 CURVE SMOOTH",
"498 225 LINE",
"498 342 LINE",
"498 704 LINE SMOOTH",
"498 737 OFFCURVE",
"471 763 OFFCURVE",
"438 763 CURVE SMOOTH"
);
},
{
closed = 1;
nodes = (
"205 113 OFFCURVE",
"154 163 OFFCURVE",
"154 225 CURVE SMOOTH",
"154 342 LINE SMOOTH",
"154 404 OFFCURVE",
"205 454 OFFCURVE",
"266 454 CURVE SMOOTH",
"328 454 OFFCURVE",
"378 404 OFFCURVE",
"378 342 CURVE SMOOTH",
"378 225 LINE SMOOTH",
"378 163 OFFCURVE",
"328 113 OFFCURVE",
"266 113 CURVE SMOOTH"
);
}
);
width = 543;
}
);
leftKerningGroup = a;
note = d;
unicode = 0064;
},
{
glyphname = E;
layers = (
{
hints = (
{
horizontal = 1;
place = "{0, 125}";
type = Stem;
},
{
horizontal = 1;
place = "{353, 125}";
type = Stem;
},
{
horizontal = 1;
place = "{637, 126}";
type = Stem;
},
{
place = "{45, 125}";
type = Stem;
}
);
layerId = "9F677CD6-B234-481A-8F27-4A5B4DD836E1";
paths = (
{
closed = 1;
nodes = (
"411 0 LINE SMOOTH",
"446 0 OFFCURVE",
"474 28 OFFCURVE",
"474 62 CURVE SMOOTH",
"474 97 OFFCURVE",
"446 125 OFFCURVE",
"411 125 CURVE SMOOTH",
"250 125 LINE SMOOTH",
"206 125 OFFCURVE",
"170 161 OFFCURVE",
"170 205 CURVE SMOOTH",
"170 353 LINE",
"358 353 LINE SMOOTH",
"393 353 OFFCURVE",
"421 381 OFFCURVE",
"421 416 CURVE SMOOTH",
"421 450 OFFCURVE",
"393 478 OFFCURVE",
"358 478 CURVE SMOOTH",
"170 478 LINE",
"170 558 LINE SMOOTH",
"170 602 OFFCURVE",
"206 637 OFFCURVE",
"250 637 CURVE SMOOTH",
"394 637 LINE SMOOTH",
"429 637 OFFCURVE",
"457 665 OFFCURVE",
"457 700 CURVE SMOOTH",
"457 735 OFFCURVE",
"429 763 OFFCURVE",
"394 763 CURVE SMOOTH",
"250 763 LINE SMOOTH",
"137 763 OFFCURVE",
"45 671 OFFCURVE",
"45 558 CURVE SMOOTH",
"45 205 LINE SMOOTH",
"45 92 OFFCURVE",
"137 0 OFFCURVE",
"250 0 CURVE SMOOTH"
);
}
);
width = 499;
}
);
leftKerningGroup = C.alt2;
note = E;
rightKerningGroup = C.alt2;
unicode = 0045;
},
{
glyphname = Eacute;
layers = (
{
hints = (
{
horizontal = 1;
place = "{0, 125}";
type = Stem;
},
{
horizontal = 1;
place = "{353, 125}";
type = Stem;
},
{
horizontal = 1;
place = "{637, 126}";
type = Stem;
},
{
place = "{45, 125}";
type = Stem;
}
);
layerId = "9F677CD6-B234-481A-8F27-4A5B4DD836E1";
paths = (
{
closed = 1;
nodes = (
"411 0 LINE SMOOTH",
"446 0 OFFCURVE",
"474 28 OFFCURVE",
"474 62 CURVE SMOOTH",
"474 97 OFFCURVE",
"446 125 OFFCURVE",
"411 125 CURVE SMOOTH",
"250 125 LINE SMOOTH",
"206 125 OFFCURVE",
"170 161 OFFCURVE",
"170 205 CURVE SMOOTH",
"170 353 LINE",
"358 353 LINE SMOOTH",
"393 353 OFFCURVE",
"421 381 OFFCURVE",
"421 416 CURVE SMOOTH",
"421 450 OFFCURVE",
"393 478 OFFCURVE",
"358 478 CURVE SMOOTH",
"170 478 LINE",
"170 558 LINE SMOOTH",
"170 602 OFFCURVE",
"206 637 OFFCURVE",
"250 637 CURVE SMOOTH",
"394 637 LINE SMOOTH",
"429 637 OFFCURVE",
"457 665 OFFCURVE",
"457 700 CURVE SMOOTH",
"457 735 OFFCURVE",
"429 763 OFFCURVE",
"394 763 CURVE SMOOTH",
"250 763 LINE SMOOTH",
"137 763 OFFCURVE",
"45 671 OFFCURVE",
"45 558 CURVE SMOOTH",
"45 205 LINE SMOOTH",
"45 92 OFFCURVE",
"137 0 OFFCURVE",
"250 0 CURVE SMOOTH"
);
},
{
closed = 1;
nodes = (
"285 817 OFFCURVE",
"295 820 OFFCURVE",
"304 825 CURVE SMOOTH",
"399 881 LINE SMOOTH",
"426 897 OFFCURVE",
"435 931 OFFCURVE",
"419 958 CURVE SMOOTH",
"404 985 OFFCURVE",
"369 994 OFFCURVE",
"342 978 CURVE SMOOTH",
"247 922 LINE SMOOTH",
"220 906 OFFCURVE",
"211 872 OFFCURVE",
"227 845 CURVE SMOOTH",
"237 827 OFFCURVE",
"256 817 OFFCURVE",
"275 817 CURVE SMOOTH"
);
}
);
width = 499;
}
);
leftKerningGroup = C.alt2;
note = Eacute;
rightKerningGroup = C.alt2;
unicode = 00C9;
},
{
glyphname = Ecircumflex;
layers = (
{
hints = (
{
horizontal = 1;
place = "{0, 125}";
type = Stem;
},
{
horizontal = 1;
place = "{353, 125}";
type = Stem;
},
{
horizontal = 1;
place = "{637, 126}";
type = Stem;
},
{
place = "{45, 125}";
type = Stem;
},
{
horizontal = 1;
place = "{763, 42}";
type = Stem;
}
);
layerId = "9F677CD6-B234-481A-8F27-4A5B4DD836E1";
paths = (
{
closed = 1;
nodes = (
"411 0 LINE SMOOTH",
"446 0 OFFCURVE",
"474 28 OFFCURVE",
"474 62 CURVE SMOOTH",
"474 97 OFFCURVE",
"446 125 OFFCURVE",
"411 125 CURVE SMOOTH",
"250 125 LINE SMOOTH",
"206 125 OFFCURVE",
"170 161 OFFCURVE",
"170 205 CURVE SMOOTH",
"170 353 LINE",
"358 353 LINE SMOOTH",
"393 353 OFFCURVE",
"421 381 OFFCURVE",
"421 416 CURVE SMOOTH",
"421 450 OFFCURVE",
"393 478 OFFCURVE",
"358 478 CURVE SMOOTH",
"170 478 LINE",
"170 558 LINE SMOOTH",
"170 602 OFFCURVE",
"206 637 OFFCURVE",
"250 637 CURVE SMOOTH",
"394 637 LINE SMOOTH",
"429 637 OFFCURVE",
"457 665 OFFCURVE",
"457 700 CURVE SMOOTH",
"457 735 OFFCURVE",
"429 763 OFFCURVE",
"394 763 CURVE SMOOTH",
"250 763 LINE SMOOTH",
"137 763 OFFCURVE",
"45 671 OFFCURVE",
"45 558 CURVE SMOOTH",
"45 205 LINE SMOOTH",
"45 92 OFFCURVE",
"137 0 OFFCURVE",
"250 0 CURVE SMOOTH"
);
},
{
closed = 1;
nodes = (
"265 852 LINE",
"331 813 LINE SMOOTH",
"340 808 OFFCURVE",
"350 805 OFFCURVE",
"360 805 CURVE SMOOTH",
"379 805 OFFCURVE",
"398 815 OFFCURVE",
"409 833 CURVE SMOOTH",
"424 860 OFFCURVE",
"415 895 OFFCURVE",
"389 910 CURVE SMOOTH",
"293 966 LINE SMOOTH",
"276 977 OFFCURVE",
"254 977 OFFCURVE",
"236 966 CURVE SMOOTH",
"141 910 LINE SMOOTH",
"114 895 OFFCURVE",
"105 860 OFFCURVE",
"121 833 CURVE SMOOTH",
"136 806 OFFCURVE",
"171 797 OFFCURVE",
"198 813 CURVE SMOOTH"
);
}
);
width = 499;
}
);
leftKerningGroup = C.alt2;
note = Ecircumflex;
rightKerningGroup = C.alt2;
unicode = 00CA;
},
{
glyphname = Edieresis;
layers = (
{
hints = (
{
horizontal = 1;
place = "{0, 125}";
type = Stem;
},
{
horizontal = 1;
place = "{353, 125}";
type = Stem;
},
{
horizontal = 1;
place = "{637, 126}";
type = Stem;
},
{
horizontal = 1;
place = "{817, 127}";
type = Stem;
},
{
place = "{45, 125}";
type = Stem;
},
{
place = "{307, 128}";
type = Stem;
},
{
place = "{99, 128}";
type = Stem;
}
);
layerId = "9F677CD6-B234-481A-8F27-4A5B4DD836E1";
paths = (
{
closed = 1;
nodes = (
"411 0 LINE SMOOTH",
"446 0 OFFCURVE",
"474 28 OFFCURVE",
"474 62 CURVE SMOOTH",
"474 97 OFFCURVE",
"446 125 OFFCURVE",
"411 125 CURVE SMOOTH",
"250 125 LINE SMOOTH",
"206 125 OFFCURVE",
"170 161 OFFCURVE",
"170 205 CURVE SMOOTH",
"170 353 LINE",
"358 353 LINE SMOOTH",
"393 353 OFFCURVE",
"421 381 OFFCURVE",
"421 416 CURVE SMOOTH",
"421 450 OFFCURVE",
"393 478 OFFCURVE",
"358 478 CURVE SMOOTH",
"170 478 LINE",
"170 558 LINE SMOOTH",
"170 602 OFFCURVE",
"206 637 OFFCURVE",
"250 637 CURVE SMOOTH",
"394 637 LINE SMOOTH",
"429 637 OFFCURVE",
"457 665 OFFCURVE",
"457 700 CURVE SMOOTH",
"457 735 OFFCURVE",
"429 763 OFFCURVE",
"394 763 CURVE SMOOTH",
"250 763 LINE SMOOTH",
"137 763 OFFCURVE",
"45 671 OFFCURVE",
"45 558 CURVE SMOOTH",
"45 205 LINE SMOOTH",
"45 92 OFFCURVE",
"137 0 OFFCURVE",
"250 0 CURVE SMOOTH"
);
},
{
closed = 1;
nodes = (
"128 944 OFFCURVE",
"99 915 OFFCURVE",
"99 880 CURVE SMOOTH",
"99 845 OFFCURVE",
"128 817 OFFCURVE",
"163 817 CURVE SMOOTH",
"198 817 OFFCURVE",
"227 845 OFFCURVE",
"227 880 CURVE SMOOTH",
"227 915 OFFCURVE",
"198 944 OFFCURVE",
"163 944 CURVE SMOOTH"
);
},
{
closed = 1;
nodes = (
"336 944 OFFCURVE",
"307 915 OFFCURVE",
"307 880 CURVE SMOOTH",
"307 845 OFFCURVE",
"336 817 OFFCURVE",
"371 817 CURVE SMOOTH",
"406 817 OFFCURVE",
"435 845 OFFCURVE",
"435 880 CURVE SMOOTH",
"435 915 OFFCURVE",
"406 944 OFFCURVE",
"371 944 CURVE SMOOTH"
);
}
);
width = 499;
}
);
leftKerningGroup = C.alt2;
note = Edieresis;
rightKerningGroup = C.alt2;
unicode = 00CB;
},
{
glyphname = Egrave;
layers = (
{
hints = (
{
horizontal = 1;
place = "{0, 125}";
type = Stem;
},
{
horizontal = 1;
place = "{353, 125}";
type = Stem;
},
{
horizontal = 1;
place = "{637, 126}";
type = Stem;
},
{
place = "{45, 125}";
type = Stem;
}
);
layerId = "9F677CD6-B234-481A-8F27-4A5B4DD836E1";
paths = (
{
closed = 1;
nodes = (
"411 0 LINE SMOOTH",
"446 0 OFFCURVE",
"474 28 OFFCURVE",
"474 62 CURVE SMOOTH",
"474 97 OFFCURVE",
"446 125 OFFCURVE",
"411 125 CURVE SMOOTH",
"250 125 LINE SMOOTH",
"206 125 OFFCURVE",
"170 161 OFFCURVE",
"170 205 CURVE SMOOTH",
"170 353 LINE",
"358 353 LINE SMOOTH",
"393 353 OFFCURVE",
"421 381 OFFCURVE",
"421 416 CURVE SMOOTH",
"421 450 OFFCURVE",
"393 478 OFFCURVE",
"358 478 CURVE SMOOTH",
"170 478 LINE",
"170 558 LINE SMOOTH",
"170 602 OFFCURVE",
"206 637 OFFCURVE",
"250 637 CURVE SMOOTH",
"394 637 LINE SMOOTH",
"429 637 OFFCURVE",
"457 665 OFFCURVE",
"457 700 CURVE SMOOTH",
"457 735 OFFCURVE",
"429 763 OFFCURVE",
"394 763 CURVE SMOOTH",
"250 763 LINE SMOOTH",
"137 763 OFFCURVE",
"45 671 OFFCURVE",
"45 558 CURVE SMOOTH",
"45 205 LINE SMOOTH",
"45 92 OFFCURVE",
"137 0 OFFCURVE",
"250 0 CURVE SMOOTH"
);
},
{
closed = 1;
nodes = (
"283 817 OFFCURVE",
"302 827 OFFCURVE",
"313 845 CURVE SMOOTH",
"329 872 OFFCURVE",
"320 906 OFFCURVE",
"293 922 CURVE SMOOTH",
"197 978 LINE SMOOTH",
"171 994 OFFCURVE",
"136 985 OFFCURVE",
"120 958 CURVE SMOOTH",
"104 931 OFFCURVE",
"113 897 OFFCURVE",
"140 881 CURVE SMOOTH",
"235 825 LINE SMOOTH",
"244 819 OFFCURVE",
"254 817 OFFCURVE",
"264 817 CURVE SMOOTH"
);
}
);
width = 499;
}
);
leftKerningGroup = C.alt2;
note = Egrave;
rightKerningGroup = C.alt2;
unicode = 00C8;
},
{
glyphname = E.alt1;
layers = (
{
hints = (
{
horizontal = 1;
place = "{-19, 125}";
type = Stem;
},
{
horizontal = 1;
place = "{353, 126}";
type = Stem;
},
{
horizontal = 1;
place = "{657, 126}";
type = Stem;
},
{
place = "{41, 126}";
type = Stem;
},
{
place = "{413, 126}";
type = Stem;
},
{
place = "{65, 125}";
type = Stem;
},
{
place = "{369, 126}";
type = Stem;
}
);
layerId = "9F677CD6-B234-481A-8F27-4A5B4DD836E1";
paths = (
{
closed = 1;
nodes = (
"63 351 OFFCURVE",
"39 287 OFFCURVE",
"41 221 CURVE SMOOTH",
"44 154 OFFCURVE",
"72 93 OFFCURVE",
"120 47 CURVE SMOOTH",
"167 4 OFFCURVE",
"227 -19 OFFCURVE",
"290 -19 CURVE SMOOTH",
"293 -19 OFFCURVE",
"296 -19 OFFCURVE",
"299 -19 CURVE SMOOTH",
"436 -14 OFFCURVE",
"543 101 OFFCURVE",
"539 238 CURVE SMOOTH",
"537 273 OFFCURVE",
"508 300 OFFCURVE",
"474 299 CURVE SMOOTH",
"439 297 OFFCURVE",
"412 268 OFFCURVE",
"413 234 CURVE SMOOTH",
"416 166 OFFCURVE",
"362 109 OFFCURVE",
"294 106 CURVE SMOOTH",
"261 105 OFFCURVE",
"230 117 OFFCURVE",
"206 139 CURVE SMOOTH",
"182 162 OFFCURVE",
"168 192 OFFCURVE",
"167 225 CURVE SMOOTH",
"166 258 OFFCURVE",
"178 289 OFFCURVE",
"200 314 CURVE SMOOTH",
"223 338 OFFCURVE",
"254 352 OFFCURVE",
"287 353 CURVE",
"287 353 OFFCURVE",
"287 353 OFFCURVE",
"287 353 CURVE",
"313 354 OFFCURVE",
"335 371 OFFCURVE",
"344 393 CURVE",
"346 401 OFFCURVE",
"348 409 OFFCURVE",
"348 418 CURVE SMOOTH",
"346 452 OFFCURVE",
"319 478 OFFCURVE",
"286 479 CURVE SMOOTH",
"285 479 OFFCURVE",
"284 479 OFFCURVE",
"283 479 CURVE SMOOTH",
"234 477 OFFCURVE",
"192 515 OFFCURVE",
"190 565 CURVE SMOOTH",
"189 614 OFFCURVE",
"227 655 OFFCURVE",
"277 657 CURVE SMOOTH",
"301 658 OFFCURVE",
"323 650 OFFCURVE",
"341 633 CURVE SMOOTH",
"358 617 OFFCURVE",
"368 595 OFFCURVE",
"369 571 CURVE SMOOTH",
"369 570 OFFCURVE",
"369 569 OFFCURVE",
"369 568 CURVE SMOOTH",
"369 533 OFFCURVE",
"397 505 OFFCURVE",
"432 505 CURVE SMOOTH",
"466 504 OFFCURVE",
"495 532 OFFCURVE",
"495 567 CURVE SMOOTH",
"495 570 OFFCURVE",
"495 573 OFFCURVE",
"495 575 CURVE SMOOTH",
"493 633 OFFCURVE",
"468 686 OFFCURVE",
"426 725 CURVE SMOOTH",
"384 764 OFFCURVE",
"330 785 OFFCURVE",
"272 783 CURVE SMOOTH",
"154 779 OFFCURVE",
"61 679 OFFCURVE",
"65 560 CURVE SMOOTH",
"67 504 OFFCURVE",
"90 454 OFFCURVE",
"127 417 CURVE",
"121 411 OFFCURVE",
"115 406 OFFCURVE",
"109 399 CURVE SMOOTH"
);
}
);
width = 572;
}
);
leftKerningGroup = three;
note = E.alt1;
rightKerningGroup = three;
},
{
glyphname = E.alt1acute;
layers = (
{
hints = (
{
horizontal = 1;
place = "{-19, 125}";
type = Stem;
},
{
horizontal = 1;
place = "{353, 126}";
type = Stem;
},
{
horizontal = 1;
place = "{657, 126}";
type = Stem;
},
{
place = "{41, 126}";
type = Stem;
},
{
place = "{413, 126}";
type = Stem;
},
{
place = "{65, 125}";
type = Stem;
},
{
place = "{369, 126}";
type = Stem;
}
);
layerId = "9F677CD6-B234-481A-8F27-4A5B4DD836E1";
paths = (
{
closed = 1;
nodes = (
"63 351 OFFCURVE",
"39 287 OFFCURVE",
"41 221 CURVE SMOOTH",
"44 154 OFFCURVE",
"72 93 OFFCURVE",
"120 47 CURVE SMOOTH",
"167 4 OFFCURVE",
"227 -19 OFFCURVE",
"290 -19 CURVE SMOOTH",
"293 -19 OFFCURVE",
"296 -19 OFFCURVE",
"299 -19 CURVE SMOOTH",
"436 -14 OFFCURVE",
"543 101 OFFCURVE",
"539 238 CURVE SMOOTH",
"537 273 OFFCURVE",
"508 300 OFFCURVE",
"474 299 CURVE SMOOTH",
"439 297 OFFCURVE",
"412 268 OFFCURVE",
"413 234 CURVE SMOOTH",
"416 166 OFFCURVE",
"362 109 OFFCURVE",
"294 106 CURVE SMOOTH",
"261 105 OFFCURVE",
"230 117 OFFCURVE",
"206 139 CURVE SMOOTH",
"182 162 OFFCURVE",
"168 192 OFFCURVE",
"167 225 CURVE SMOOTH",
"166 258 OFFCURVE",
"178 289 OFFCURVE",
"200 314 CURVE SMOOTH",
"223 338 OFFCURVE",
"254 352 OFFCURVE",
"287 353 CURVE",
"287 353 OFFCURVE",
"287 353 OFFCURVE",
"287 353 CURVE",
"313 354 OFFCURVE",
"335 371 OFFCURVE",
"344 393 CURVE",
"346 401 OFFCURVE",
"348 409 OFFCURVE",
"348 418 CURVE SMOOTH",
"346 452 OFFCURVE",
"319 478 OFFCURVE",
"286 479 CURVE SMOOTH",
"285 479 OFFCURVE",
"284 479 OFFCURVE",
"283 479 CURVE SMOOTH",
"234 477 OFFCURVE",
"192 515 OFFCURVE",
"190 565 CURVE SMOOTH",
"189 614 OFFCURVE",
"227 655 OFFCURVE",
"277 657 CURVE SMOOTH",
"301 658 OFFCURVE",
"323 650 OFFCURVE",
"341 633 CURVE SMOOTH",
"358 617 OFFCURVE",
"368 595 OFFCURVE",
"369 571 CURVE SMOOTH",
"369 570 OFFCURVE",
"369 569 OFFCURVE",
"369 568 CURVE SMOOTH",
"369 533 OFFCURVE",
"397 505 OFFCURVE",
"432 505 CURVE SMOOTH",
"466 504 OFFCURVE",
"495 532 OFFCURVE",
"495 567 CURVE SMOOTH",
"495 570 OFFCURVE",
"495 573 OFFCURVE",
"495 575 CURVE SMOOTH",
"493 633 OFFCURVE",
"468 686 OFFCURVE",
"426 725 CURVE SMOOTH",
"384 764 OFFCURVE",
"330 785 OFFCURVE",
"272 783 CURVE SMOOTH",
"154 779 OFFCURVE",
"61 679 OFFCURVE",
"65 560 CURVE SMOOTH",
"67 504 OFFCURVE",
"90 454 OFFCURVE",
"127 417 CURVE",
"121 411 OFFCURVE",
"115 406 OFFCURVE",
"109 399 CURVE SMOOTH"
);
},
{
closed = 1;
nodes = (
"383 817 OFFCURVE",
"393 820 OFFCURVE",
"402 825 CURVE SMOOTH",
"497 881 LINE SMOOTH",
"524 897 OFFCURVE",
"533 931 OFFCURVE",
"517 958 CURVE SMOOTH",
"502 985 OFFCURVE",
"467 994 OFFCURVE",
"440 978 CURVE SMOOTH",
"345 922 LINE SMOOTH",
"318 906 OFFCURVE",
"309 872 OFFCURVE",
"325 845 CURVE SMOOTH",
"335 827 OFFCURVE",
"354 817 OFFCURVE",
"373 817 CURVE SMOOTH"
);
}
);
width = 572;
}
);
leftKerningGroup = three;
note = E.alt1acute;
rightKerningGroup = three;
},
{
glyphname = E.alt1circumflex;
layers = (
{
hints = (
{
horizontal = 1;
place = "{-19, 125}";
type = Stem;
},
{
horizontal = 1;
place = "{299, 206}";
type = Stem;
},
{
place = "{41, 126}";
type = Stem;
},
{
place = "{413, 126}";
type = Stem;
},
{
horizontal = 1;
place = "{353, 126}";
type = Stem;
},
{
place = "{65, 125}";
type = Stem;
},
{
place = "{369, 126}";
type = Stem;
},
{
horizontal = 1;
place = "{479, 178}";
type = Stem;
}
);
layerId = "9F677CD6-B234-481A-8F27-4A5B4DD836E1";
paths = (
{
closed = 1;
nodes = (
"63 351 OFFCURVE",
"39 287 OFFCURVE",
"41 221 CURVE SMOOTH",
"44 154 OFFCURVE",
"72 93 OFFCURVE",
"120 47 CURVE SMOOTH",
"167 4 OFFCURVE",
"227 -19 OFFCURVE",
"290 -19 CURVE SMOOTH",
"293 -19 OFFCURVE",
"296 -19 OFFCURVE",
"299 -19 CURVE SMOOTH",
"436 -14 OFFCURVE",
"543 101 OFFCURVE",
"539 238 CURVE SMOOTH",
"537 273 OFFCURVE",
"508 300 OFFCURVE",
"474 299 CURVE SMOOTH",
"439 297 OFFCURVE",
"412 268 OFFCURVE",
"413 234 CURVE SMOOTH",
"416 166 OFFCURVE",
"362 109 OFFCURVE",
"294 106 CURVE SMOOTH",
"261 105 OFFCURVE",
"230 117 OFFCURVE",
"206 139 CURVE SMOOTH",
"182 162 OFFCURVE",
"168 192 OFFCURVE",
"167 225 CURVE SMOOTH",
"166 258 OFFCURVE",
"178 289 OFFCURVE",
"200 314 CURVE SMOOTH",
"223 338 OFFCURVE",
"254 352 OFFCURVE",
"287 353 CURVE",
"287 353 OFFCURVE",
"287 353 OFFCURVE",
"287 353 CURVE",
"313 354 OFFCURVE",
"335 371 OFFCURVE",
"344 393 CURVE",
"346 401 OFFCURVE",
"348 409 OFFCURVE",
"348 418 CURVE SMOOTH",
"346 452 OFFCURVE",
"319 478 OFFCURVE",
"286 479 CURVE SMOOTH",
"285 479 OFFCURVE",
"284 479 OFFCURVE",
"283 479 CURVE SMOOTH",
"234 477 OFFCURVE",
"192 515 OFFCURVE",
"190 565 CURVE SMOOTH",
"189 614 OFFCURVE",
"227 655 OFFCURVE",
"277 657 CURVE SMOOTH",
"301 658 OFFCURVE",
"323 650 OFFCURVE",
"341 633 CURVE SMOOTH",
"358 617 OFFCURVE",
"368 595 OFFCURVE",
"369 571 CURVE SMOOTH",
"369 570 OFFCURVE",
"369 569 OFFCURVE",
"369 568 CURVE SMOOTH",
"369 533 OFFCURVE",
"397 505 OFFCURVE",
"432 505 CURVE SMOOTH",
"466 504 OFFCURVE",
"495 532 OFFCURVE",
"495 567 CURVE SMOOTH",
"495 570 OFFCURVE",
"495 573 OFFCURVE",
"495 575 CURVE SMOOTH",
"493 633 OFFCURVE",
"468 686 OFFCURVE",
"426 725 CURVE SMOOTH",
"384 764 OFFCURVE",
"330 785 OFFCURVE",
"272 783 CURVE SMOOTH",
"154 779 OFFCURVE",
"61 679 OFFCURVE",
"65 560 CURVE SMOOTH",
"67 504 OFFCURVE",
"90 454 OFFCURVE",
"127 417 CURVE",
"121 411 OFFCURVE",
"115 406 OFFCURVE",
"109 399 CURVE SMOOTH"
);
},
{
closed = 1;
nodes = (
"279 852 LINE",
"345 813 LINE SMOOTH",
"354 808 OFFCURVE",
"364 805 OFFCURVE",
"374 805 CURVE SMOOTH",
"393 805 OFFCURVE",
"412 815 OFFCURVE",
"423 833 CURVE SMOOTH",
"438 860 OFFCURVE",
"429 895 OFFCURVE",
"403 910 CURVE SMOOTH",
"307 966 LINE SMOOTH",
"290 977 OFFCURVE",
"268 977 OFFCURVE",
"250 966 CURVE SMOOTH",
"155 910 LINE SMOOTH",
"128 895 OFFCURVE",
"119 860 OFFCURVE",
"135 833 CURVE SMOOTH",
"150 806 OFFCURVE",
"185 797 OFFCURVE",
"212 813 CURVE SMOOTH"
);
}
);
width = 572;
}
);
leftKerningGroup = three;
note = E.alt1circumflex;
rightKerningGroup = three;
},
{
glyphname = E.alt2;
layers = (
{
hints = (
{
horizontal = 1;
place = "{-1, 126}";
type = Stem;
},
{
horizontal = 1;
place = "{352, 126}";
type = Stem;
},
{
horizontal = 1;
place = "{637, 125}";
type = Stem;
},
{
place = "{50, 126}";
type = Stem;
},
{
place = "{206, 220}";
type = Stem;
}
);
layerId = "9F677CD6-B234-481A-8F27-4A5B4DD836E1";
paths = (
{
closed = 1;
nodes = (
"176 125 LINE",
"176 637 LINE",
"399 637 LINE SMOOTH",
"434 637 OFFCURVE",
"462 665 OFFCURVE",
"462 699 CURVE SMOOTH",
"462 734 OFFCURVE",
"434 762 OFFCURVE",
"399 762 CURVE SMOOTH",
"113 762 LINE SMOOTH",
"78 762 OFFCURVE",
"50 734 OFFCURVE",
"50 699 CURVE SMOOTH",
"50 62 LINE SMOOTH",
"50 27 OFFCURVE",
"78 -1 OFFCURVE",
"113 -1 CURVE SMOOTH",
"419 -1 LINE SMOOTH",
"454 -1 OFFCURVE",
"482 27 OFFCURVE",
"482 62 CURVE SMOOTH",
"482 97 OFFCURVE",
"454 125 OFFCURVE",
"419 125 CURVE SMOOTH"
);
},
{
closed = 1;
nodes = (
"269 478 LINE SMOOTH",
"234 478 OFFCURVE",
"206 450 OFFCURVE",
"206 415 CURVE SMOOTH",
"206 380 OFFCURVE",
"234 352 OFFCURVE",
"269 352 CURVE SMOOTH",
"364 352 LINE SMOOTH",
"398 352 OFFCURVE",
"426 380 OFFCURVE",
"426 415 CURVE SMOOTH",
"426 450 OFFCURVE",
"398 478 OFFCURVE",
"364 478 CURVE SMOOTH"
);
}
);
width = 508;
}
);
note = E.alt2;
rightKerningGroup = E.alt2;
},
{
glyphname = E.alt3;
layers = (
{
hints = (
{
horizontal = 1;
place = "{0, 125}";
type = Stem;
},
{
horizontal = 1;
place = "{353, 125}";
type = Stem;
},
{
horizontal = 1;
place = "{637, 126}";
type = Stem;
},
{
place = "{50, 126}";
type = Stem;
}
);
layerId = "9F677CD6-B234-481A-8F27-4A5B4DD836E1";
paths = (
{
closed = 1;
nodes = (
"419 0 LINE SMOOTH",
"454 0 OFFCURVE",
"482 28 OFFCURVE",
"482 62 CURVE SMOOTH",
"482 97 OFFCURVE",
"454 125 OFFCURVE",
"419 125 CURVE SMOOTH",
"176 125 LINE",
"176 353 LINE",
"363 353 LINE SMOOTH",
"398 353 OFFCURVE",
"426 381 OFFCURVE",
"426 416 CURVE SMOOTH",
"426 450 OFFCURVE",
"398 478 OFFCURVE",
"363 478 CURVE SMOOTH",
"176 478 LINE",
"176 637 LINE",
"399 637 LINE SMOOTH",
"434 637 OFFCURVE",
"462 665 OFFCURVE",
"462 700 CURVE SMOOTH",
"462 735 OFFCURVE",
"434 763 OFFCURVE",
"399 763 CURVE SMOOTH",
"113 763 LINE SMOOTH",
"78 763 OFFCURVE",
"50 735 OFFCURVE",
"50 700 CURVE SMOOTH",
"50 62 LINE SMOOTH",
"50 28 OFFCURVE",
"78 0 OFFCURVE",
"113 0 CURVE SMOOTH"
);
}
);
width = 508;
}
);
note = E.alt3;
rightKerningGroup = E.alt2;
},
{
glyphname = E.alt3acute;
layers = (
{
hints = (
{
horizontal = 1;
place = "{0, 125}";
type = Stem;
},
{
horizontal = 1;
place = "{353, 125}";
type = Stem;
},
{
horizontal = 1;
place = "{637, 126}";
type = Stem;
},
{
place = "{50, 126}";
type = Stem;
}
);
layerId = "9F677CD6-B234-481A-8F27-4A5B4DD836E1";
paths = (
{
closed = 1;
nodes = (
"419 0 LINE SMOOTH",
"454 0 OFFCURVE",
"482 28 OFFCURVE",
"482 62 CURVE SMOOTH",
"482 97 OFFCURVE",
"454 125 OFFCURVE",
"419 125 CURVE SMOOTH",
"176 125 LINE",
"176 353 LINE",
"363 353 LINE SMOOTH",
"398 353 OFFCURVE",
"426 381 OFFCURVE",
"426 416 CURVE SMOOTH",
"426 450 OFFCURVE",
"398 478 OFFCURVE",
"363 478 CURVE SMOOTH",
"176 478 LINE",
"176 637 LINE",
"399 637 LINE SMOOTH",
"434 637 OFFCURVE",
"462 665 OFFCURVE",
"462 700 CURVE SMOOTH",
"462 735 OFFCURVE",
"434 763 OFFCURVE",
"399 763 CURVE SMOOTH",
"113 763 LINE SMOOTH",
"78 763 OFFCURVE",
"50 735 OFFCURVE",
"50 700 CURVE SMOOTH",
"50 62 LINE SMOOTH",
"50 28 OFFCURVE",
"78 0 OFFCURVE",
"113 0 CURVE SMOOTH"
);
},
{
closed = 1;
nodes = (
"285 817 OFFCURVE",
"295 820 OFFCURVE",
"304 825 CURVE SMOOTH",
"399 881 LINE SMOOTH",
"426 897 OFFCURVE",
"435 931 OFFCURVE",
"419 958 CURVE SMOOTH",
"404 985 OFFCURVE",
"369 994 OFFCURVE",
"342 978 CURVE SMOOTH",
"247 922 LINE SMOOTH",
"220 906 OFFCURVE",
"211 872 OFFCURVE",
"227 845 CURVE SMOOTH",
"237 827 OFFCURVE",
"256 817 OFFCURVE",
"275 817 CURVE SMOOTH"
);
}
);
width = 508;
}
);
note = E.alt3acute;
rightKerningGroup = E.alt2;
},
{
glyphname = E.alt3circumflex;
layers = (
{
hints = (
{
horizontal = 1;
place = "{0, 125}";
type = Stem;
},
{
horizontal = 1;
place = "{353, 125}";
type = Stem;
},
{
horizontal = 1;
place = "{637, 126}";
type = Stem;
},
{
place = "{50, 126}";
type = Stem;
},
{
horizontal = 1;
place = "{763, 42}";
type = Stem;
}
);
layerId = "9F677CD6-B234-481A-8F27-4A5B4DD836E1";
paths = (
{
closed = 1;
nodes = (
"419 0 LINE SMOOTH",
"454 0 OFFCURVE",
"482 28 OFFCURVE",
"482 62 CURVE SMOOTH",
"482 97 OFFCURVE",
"454 125 OFFCURVE",
"419 125 CURVE SMOOTH",
"176 125 LINE",
"176 353 LINE",
"363 353 LINE SMOOTH",
"398 353 OFFCURVE",
"426 381 OFFCURVE",
"426 416 CURVE SMOOTH",
"426 450 OFFCURVE",
"398 478 OFFCURVE",
"363 478 CURVE SMOOTH",
"176 478 LINE",
"176 637 LINE",
"399 637 LINE SMOOTH",
"434 637 OFFCURVE",
"462 665 OFFCURVE",
"462 700 CURVE SMOOTH",
"462 735 OFFCURVE",
"434 763 OFFCURVE",
"399 763 CURVE SMOOTH",
"113 763 LINE SMOOTH",
"78 763 OFFCURVE",
"50 735 OFFCURVE",
"50 700 CURVE SMOOTH",
"50 62 LINE SMOOTH",
"50 28 OFFCURVE",
"78 0 OFFCURVE",
"113 0 CURVE SMOOTH"
);
},
{
closed = 1;
nodes = (
"259 852 LINE",
"325 813 LINE SMOOTH",
"334 808 OFFCURVE",
"344 805 OFFCURVE",
"354 805 CURVE SMOOTH",
"373 805 OFFCURVE",
"392 815 OFFCURVE",
"403 833 CURVE SMOOTH",
"418 860 OFFCURVE",
"409 895 OFFCURVE",
"383 910 CURVE SMOOTH",
"287 966 LINE SMOOTH",
"270 977 OFFCURVE",
"248 977 OFFCURVE",
"230 966 CURVE SMOOTH",
"135 910 LINE SMOOTH",
"108 895 OFFCURVE",
"99 860 OFFCURVE",
"115 833 CURVE SMOOTH",
"130 806 OFFCURVE",
"165 797 OFFCURVE",
"192 813 CURVE SMOOTH"
);
}
);
width = 508;
}
);
note = E.alt3circumflex;
rightKerningGroup = E.alt2;
},
{
glyphname = E.alt3dieresis;
layers = (
{
hints = (
{
horizontal = 1;
place = "{0, 125}";
type = Stem;
},
{
horizontal = 1;
place = "{353, 125}";
type = Stem;
},
{
horizontal = 1;
place = "{637, 126}";
type = Stem;
},
{
horizontal = 1;
place = "{817, 127}";
type = Stem;
},
{
place = "{50, 126}";
type = Stem;
},
{
place = "{300, 126}";
type = Stem;
},
{
place = "{92, 128}";
type = Stem;
}
);
layerId = "9F677CD6-B234-481A-8F27-4A5B4DD836E1";
paths = (
{
closed = 1;
nodes = (
"419 0 LINE SMOOTH",
"454 0 OFFCURVE",
"482 28 OFFCURVE",
"482 62 CURVE SMOOTH",
"482 97 OFFCURVE",
"454 125 OFFCURVE",
"419 125 CURVE SMOOTH",
"176 125 LINE",
"176 353 LINE",
"363 353 LINE SMOOTH",
"398 353 OFFCURVE",
"426 381 OFFCURVE",
"426 416 CURVE SMOOTH",
"426 450 OFFCURVE",
"398 478 OFFCURVE",
"363 478 CURVE SMOOTH",
"176 478 LINE",
"176 637 LINE",
"399 637 LINE SMOOTH",
"434 637 OFFCURVE",
"462 665 OFFCURVE",
"462 700 CURVE SMOOTH",
"462 735 OFFCURVE",
"434 763 OFFCURVE",
"399 763 CURVE SMOOTH",
"113 763 LINE SMOOTH",
"78 763 OFFCURVE",
"50 735 OFFCURVE",
"50 700 CURVE SMOOTH",
"50 62 LINE SMOOTH",
"50 28 OFFCURVE",
"78 0 OFFCURVE",
"113 0 CURVE SMOOTH"
);
},
{
closed = 1;
nodes = (
"121 944 OFFCURVE",
"92 915 OFFCURVE",
"92 880 CURVE SMOOTH",
"92 845 OFFCURVE",
"121 817 OFFCURVE",
"156 817 CURVE SMOOTH",
"191 817 OFFCURVE",
"220 845 OFFCURVE",
"220 880 CURVE SMOOTH",
"220 915 OFFCURVE",
"191 944 OFFCURVE",
"156 944 CURVE SMOOTH"
);
},
{
closed = 1;
nodes = (
"329 944 OFFCURVE",
"300 915 OFFCURVE",
"300 880 CURVE SMOOTH",
"300 845 OFFCURVE",
"329 817 OFFCURVE",
"364 817 CURVE SMOOTH",
"399 817 OFFCURVE",
"428 845 OFFCURVE",
"428 880 CURVE SMOOTH",
"428 915 OFFCURVE",
"399 944 OFFCURVE",
"364 944 CURVE SMOOTH"
);
}
);
width = 508;
}
);
note = E.alt3dieresis;
rightKerningGroup = E.alt2;
},
{
glyphname = E.alt3grave;
layers = (
{
hints = (
{
horizontal = 1;
place = "{0, 125}";
type = Stem;
},
{
horizontal = 1;
place = "{353, 125}";
type = Stem;
},
{
horizontal = 1;
place = "{637, 126}";
type = Stem;
},
{
place = "{50, 126}";
type = Stem;
}
);
layerId = "9F677CD6-B234-481A-8F27-4A5B4DD836E1";
paths = (
{
closed = 1;
nodes = (
"419 0 LINE SMOOTH",
"454 0 OFFCURVE",
"482 28 OFFCURVE",
"482 62 CURVE SMOOTH",
"482 97 OFFCURVE",
"454 125 OFFCURVE",
"419 125 CURVE SMOOTH",
"176 125 LINE",
"176 353 LINE",
"363 353 LINE SMOOTH",
"398 353 OFFCURVE",
"426 381 OFFCURVE",
"426 416 CURVE SMOOTH",
"426 450 OFFCURVE",
"398 478 OFFCURVE",
"363 478 CURVE SMOOTH",
"176 478 LINE",
"176 637 LINE",
"399 637 LINE SMOOTH",
"434 637 OFFCURVE",
"462 665 OFFCURVE",
"462 700 CURVE SMOOTH",
"462 735 OFFCURVE",
"434 763 OFFCURVE",
"399 763 CURVE SMOOTH",
"113 763 LINE SMOOTH",
"78 763 OFFCURVE",
"50 735 OFFCURVE",
"50 700 CURVE SMOOTH",
"50 62 LINE SMOOTH",
"50 28 OFFCURVE",
"78 0 OFFCURVE",
"113 0 CURVE SMOOTH"
);
},
{
closed = 1;
nodes = (
"283 817 OFFCURVE",
"302 827 OFFCURVE",
"313 845 CURVE SMOOTH",
"329 872 OFFCURVE",
"320 906 OFFCURVE",
"293 922 CURVE SMOOTH",
"197 978 LINE SMOOTH",
"171 994 OFFCURVE",
"136 985 OFFCURVE",
"120 958 CURVE SMOOTH",
"104 931 OFFCURVE",
"113 897 OFFCURVE",
"140 881 CURVE SMOOTH",
"235 825 LINE SMOOTH",
"244 819 OFFCURVE",
"254 817 OFFCURVE",
"264 817 CURVE SMOOTH"
);
}
);
width = 508;
}
);
note = E.alt3grave;
rightKerningGroup = E.alt2;
},
{
glyphname = e;
layers = (
{
hints = (
{
horizontal = 1;
place = "{0, 119}";
type = Stem;
},
{
horizontal = 1;
place = "{229, 119}";
type = Stem;
},
{
horizontal = 1;
place = "{454, 119}";
type = Stem;
},
{
place = "{35, 119}";
type = Stem;
},
{
place = "{378, 119}";
type = Stem;
}
);
layerId = "9F677CD6-B234-481A-8F27-4A5B4DD836E1";
paths = (
{
closed = 1;
nodes = (
"138 573 OFFCURVE",
"35 470 OFFCURVE",
"35 342 CURVE SMOOTH",
"35 231 LINE SMOOTH",
"35 103 OFFCURVE",
"138 0 OFFCURVE",
"266 0 CURVE SMOOTH",
"384 0 LINE SMOOTH",
"417 0 OFFCURVE",
"444 26 OFFCURVE",
"444 59 CURVE SMOOTH",
"444 92 OFFCURVE",
"417 119 OFFCURVE",
"384 119 CURVE SMOOTH",
"266 119 LINE SMOOTH",
"205 119 OFFCURVE",
"155 168 OFFCURVE",
"154 229 CURVE",
"437 229 LINE SMOOTH",
"470 229 OFFCURVE",
"497 256 OFFCURVE",
"497 288 CURVE SMOOTH",
"497 342 LINE SMOOTH",
"497 470 OFFCURVE",
"393 573 OFFCURVE",
"266 573 CURVE SMOOTH"
);
},
{
closed = 1;
nodes = (
"154 348 LINE",
"157 407 OFFCURVE",
"206 454 OFFCURVE",
"266 454 CURVE SMOOTH",
"325 454 OFFCURVE",
"374 407 OFFCURVE",
"378 348 CURVE"
);
}
);
width = 527;
}
);
leftKerningGroup = a;
note = e;
rightKerningGroup = a;
unicode = 0065;
},
{
glyphname = eacute;
layers = (
{
hints = (
{
horizontal = 1;
place = "{0, 119}";
type = Stem;
},
{
horizontal = 1;
place = "{229, 119}";
type = Stem;
},
{
horizontal = 1;
place = "{454, 119}";
type = Stem;
},
{
place = "{35, 119}";
type = Stem;
},
{
place = "{378, 119}";
type = Stem;
}
);
layerId = "9F677CD6-B234-481A-8F27-4A5B4DD836E1";
paths = (
{
closed = 1;
nodes = (
"138 573 OFFCURVE",
"35 470 OFFCURVE",
"35 342 CURVE SMOOTH",
"35 231 LINE SMOOTH",
"35 103 OFFCURVE",
"138 0 OFFCURVE",
"266 0 CURVE SMOOTH",
"384 0 LINE SMOOTH",
"417 0 OFFCURVE",
"444 26 OFFCURVE",
"444 59 CURVE SMOOTH",
"444 92 OFFCURVE",
"417 119 OFFCURVE",
"384 119 CURVE SMOOTH",
"266 119 LINE SMOOTH",
"205 119 OFFCURVE",
"155 168 OFFCURVE",
"154 229 CURVE",
"437 229 LINE SMOOTH",
"470 229 OFFCURVE",
"497 256 OFFCURVE",
"497 288 CURVE SMOOTH",
"497 342 LINE SMOOTH",
"497 470 OFFCURVE",
"393 573 OFFCURVE",
"266 573 CURVE SMOOTH"
);
},
{
closed = 1;
nodes = (
"154 348 LINE",
"157 407 OFFCURVE",
"206 454 OFFCURVE",
"266 454 CURVE SMOOTH",
"325 454 OFFCURVE",
"374 407 OFFCURVE",
"378 348 CURVE"
);
},
{
closed = 1;
nodes = (
"270 623 OFFCURVE",
"280 626 OFFCURVE",
"289 631 CURVE SMOOTH",
"384 687 LINE SMOOTH",
"411 703 OFFCURVE",
"420 737 OFFCURVE",
"404 764 CURVE SMOOTH",
"389 791 OFFCURVE",
"354 800 OFFCURVE",
"327 784 CURVE SMOOTH",
"232 728 LINE SMOOTH",
"205 712 OFFCURVE",
"196 678 OFFCURVE",
"212 651 CURVE SMOOTH",
"222 633 OFFCURVE",
"241 623 OFFCURVE",
"260 623 CURVE SMOOTH"
);
}
);
width = 527;
}
);
leftKerningGroup = a;
note = eacute;
rightKerningGroup = a;
unicode = 00E9;
},
{
glyphname = ecircumflex;
layers = (
{
hints = (
{
horizontal = 1;
place = "{0, 119}";
type = Stem;
},
{
horizontal = 1;
place = "{229, 119}";
type = Stem;
},
{
horizontal = 1;
place = "{454, 119}";
type = Stem;
},
{
place = "{35, 119}";
type = Stem;
},
{
place = "{378, 119}";
type = Stem;
},
{
horizontal = 1;
place = "{573, 38}";
type = Stem;
}
);
layerId = "9F677CD6-B234-481A-8F27-4A5B4DD836E1";
paths = (
{
closed = 1;
nodes = (
"138 573 OFFCURVE",
"35 470 OFFCURVE",
"35 342 CURVE SMOOTH",
"35 231 LINE SMOOTH",
"35 103 OFFCURVE",
"138 0 OFFCURVE",
"266 0 CURVE SMOOTH",
"384 0 LINE SMOOTH",
"417 0 OFFCURVE",
"444 26 OFFCURVE",
"444 59 CURVE SMOOTH",
"444 92 OFFCURVE",
"417 119 OFFCURVE",
"384 119 CURVE SMOOTH",
"266 119 LINE SMOOTH",
"205 119 OFFCURVE",
"155 168 OFFCURVE",
"154 229 CURVE",
"437 229 LINE SMOOTH",
"470 229 OFFCURVE",
"497 256 OFFCURVE",
"497 288 CURVE SMOOTH",
"497 342 LINE SMOOTH",
"497 470 OFFCURVE",
"393 573 OFFCURVE",
"266 573 CURVE SMOOTH"
);
},
{
closed = 1;
nodes = (
"154 348 LINE",
"157 407 OFFCURVE",
"206 454 OFFCURVE",
"266 454 CURVE SMOOTH",
"325 454 OFFCURVE",
"374 407 OFFCURVE",
"378 348 CURVE"
);
},
{
closed = 1;
nodes = (
"271 658 LINE",
"337 619 LINE SMOOTH",
"346 614 OFFCURVE",
"356 611 OFFCURVE",
"366 611 CURVE SMOOTH",
"385 611 OFFCURVE",
"404 621 OFFCURVE",
"415 639 CURVE SMOOTH",
"430 666 OFFCURVE",
"421 701 OFFCURVE",
"395 716 CURVE SMOOTH",
"299 772 LINE SMOOTH",
"282 783 OFFCURVE",
"260 783 OFFCURVE",
"242 772 CURVE SMOOTH",
"147 716 LINE SMOOTH",
"120 701 OFFCURVE",
"111 666 OFFCURVE",
"127 639 CURVE SMOOTH",
"142 612 OFFCURVE",
"177 603 OFFCURVE",
"204 619 CURVE SMOOTH"
);
}
);
width = 527;
}
);
leftKerningGroup = a;
note = ecircumflex;
rightKerningGroup = a;
unicode = 00EA;
},
{
glyphname = edieresis;
layers = (
{
hints = (
{
horizontal = 1;
place = "{0, 119}";
type = Stem;
},
{
horizontal = 1;
place = "{229, 119}";
type = Stem;
},
{
horizontal = 1;
place = "{454, 119}";
type = Stem;
},
{
horizontal = 1;
place = "{622, 127}";
type = Stem;
},
{
place = "{35, 119}";
type = Stem;
},
{
place = "{311, 133}";
type = Stem;
},
{
place = "{378, 119}";
type = Stem;
},
{
place = "{103, 128}";
type = Stem;
}
);
layerId = "9F677CD6-B234-481A-8F27-4A5B4DD836E1";
paths = (
{
closed = 1;
nodes = (
"138 573 OFFCURVE",
"35 470 OFFCURVE",
"35 342 CURVE SMOOTH",
"35 231 LINE SMOOTH",
"35 103 OFFCURVE",
"138 0 OFFCURVE",
"266 0 CURVE SMOOTH",
"384 0 LINE SMOOTH",
"417 0 OFFCURVE",
"444 26 OFFCURVE",
"444 59 CURVE SMOOTH",
"444 92 OFFCURVE",
"417 119 OFFCURVE",
"384 119 CURVE SMOOTH",
"266 119 LINE SMOOTH",
"205 119 OFFCURVE",
"155 168 OFFCURVE",
"154 229 CURVE",
"437 229 LINE SMOOTH",
"470 229 OFFCURVE",
"497 256 OFFCURVE",
"497 288 CURVE SMOOTH",
"497 342 LINE SMOOTH",
"497 470 OFFCURVE",
"393 573 OFFCURVE",
"266 573 CURVE SMOOTH"
);
},
{
closed = 1;
nodes = (
"154 348 LINE",
"157 407 OFFCURVE",
"206 454 OFFCURVE",
"266 454 CURVE SMOOTH",
"325 454 OFFCURVE",
"374 407 OFFCURVE",
"378 348 CURVE"
);
},
{
closed = 1;
nodes = (
"132 749 OFFCURVE",
"103 720 OFFCURVE",
"103 685 CURVE SMOOTH",
"103 650 OFFCURVE",
"132 622 OFFCURVE",
"167 622 CURVE SMOOTH",
"202 622 OFFCURVE",
"231 650 OFFCURVE",
"231 685 CURVE SMOOTH",
"231 720 OFFCURVE",
"202 749 OFFCURVE",
"167 749 CURVE SMOOTH"
);
},
{
closed = 1;
nodes = (
"340 749 OFFCURVE",
"311 720 OFFCURVE",
"311 685 CURVE SMOOTH",
"311 650 OFFCURVE",
"340 622 OFFCURVE",
"375 622 CURVE SMOOTH",
"410 622 OFFCURVE",
"439 650 OFFCURVE",
"439 685 CURVE SMOOTH",
"439 720 OFFCURVE",
"410 749 OFFCURVE",
"375 749 CURVE SMOOTH"
);
}
);
width = 527;
}
);
leftKerningGroup = a;
note = edieresis;
rightKerningGroup = a;
unicode = 00EB;
},
{
glyphname = egrave;
layers = (
{
hints = (
{
horizontal = 1;
place = "{0, 119}";
type = Stem;
},
{
horizontal = 1;
place = "{229, 119}";
type = Stem;
},
{
horizontal = 1;
place = "{454, 119}";
type = Stem;
},
{
place = "{35, 119}";
type = Stem;
},
{
place = "{378, 119}";
type = Stem;
}
);
layerId = "9F677CD6-B234-481A-8F27-4A5B4DD836E1";
paths = (
{
closed = 1;
nodes = (
"138 573 OFFCURVE",
"35 470 OFFCURVE",
"35 342 CURVE SMOOTH",
"35 231 LINE SMOOTH",
"35 103 OFFCURVE",
"138 0 OFFCURVE",
"266 0 CURVE SMOOTH",
"384 0 LINE SMOOTH",
"417 0 OFFCURVE",
"444 26 OFFCURVE",
"444 59 CURVE SMOOTH",
"444 92 OFFCURVE",
"417 119 OFFCURVE",
"384 119 CURVE SMOOTH",
"266 119 LINE SMOOTH",
"205 119 OFFCURVE",
"155 168 OFFCURVE",
"154 229 CURVE",
"437 229 LINE SMOOTH",
"470 229 OFFCURVE",
"497 256 OFFCURVE",
"497 288 CURVE SMOOTH",
"497 342 LINE SMOOTH",
"497 470 OFFCURVE",
"393 573 OFFCURVE",
"266 573 CURVE SMOOTH"
);
},
{
closed = 1;
nodes = (
"154 348 LINE",
"157 407 OFFCURVE",
"206 454 OFFCURVE",
"266 454 CURVE SMOOTH",
"325 454 OFFCURVE",
"374 407 OFFCURVE",
"378 348 CURVE"
);
},
{
closed = 1;
nodes = (
"286 623 OFFCURVE",
"305 633 OFFCURVE",
"316 651 CURVE SMOOTH",
"332 678 OFFCURVE",
"323 712 OFFCURVE",
"296 728 CURVE SMOOTH",
"200 784 LINE SMOOTH",
"174 800 OFFCURVE",
"139 791 OFFCURVE",
"123 764 CURVE SMOOTH",
"107 737 OFFCURVE",
"116 703 OFFCURVE",
"143 687 CURVE SMOOTH",
"238 631 LINE SMOOTH",
"247 625 OFFCURVE",
"257 623 OFFCURVE",
"267 623 CURVE SMOOTH"
);
}
);
width = 527;
}
);
leftKerningGroup = a;
note = egrave;
rightKerningGroup = a;
unicode = 00E8;
},
{
glyphname = F;
layers = (
{
hints = (
{
horizontal = 1;
place = "{0, 21}";
target = up;
type = BottomGhost;
},
{
horizontal = 1;
place = "{353, 126}";
type = Stem;
},
{
horizontal = 1;
place = "{637, 126}";
type = Stem;
},
{
place = "{48, 126}";
type = Stem;
}
);
layerId = "9F677CD6-B234-481A-8F27-4A5B4DD836E1";
paths = (
{
closed = 1;
nodes = (
"48 63 LINE SMOOTH",
"48 28 OFFCURVE",
"76 0 OFFCURVE",
"111 0 CURVE SMOOTH",
"145 0 OFFCURVE",
"174 28 OFFCURVE",
"174 63 CURVE SMOOTH",
"174 353 LINE",
"361 353 LINE SMOOTH",
"396 353 OFFCURVE",
"424 381 OFFCURVE",
"424 416 CURVE SMOOTH",
"424 450 OFFCURVE",
"396 479 OFFCURVE",
"361 479 CURVE SMOOTH",
"174 479 LINE",
"174 558 LINE SMOOTH",
"174 602 OFFCURVE",
"209 637 OFFCURVE",
"253 637 CURVE SMOOTH",
"397 637 LINE SMOOTH",
"432 637 OFFCURVE",
"460 665 OFFCURVE",
"460 700 CURVE SMOOTH",
"460 735 OFFCURVE",
"432 763 OFFCURVE",
"397 763 CURVE SMOOTH",
"253 763 LINE SMOOTH",
"140 763 OFFCURVE",
"48 671 OFFCURVE",
"48 558 CURVE SMOOTH"
);
}
);
width = 480;
}
);
leftKerningGroup = C.alt2;
note = F;
rightKerningGroup = F;
unicode = 0046;
},
{
glyphname = F.alt;
layers = (
{
hints = (
{
horizontal = 1;
place = "{0, 21}";
target = up;
type = BottomGhost;
},
{
horizontal = 1;
place = "{353, 126}";
type = Stem;
},
{
horizontal = 1;
place = "{637, 126}";
type = Stem;
},
{
place = "{50, 125}";
type = Stem;
}
);
layerId = "9F677CD6-B234-481A-8F27-4A5B4DD836E1";
paths = (
{
closed = 1;
nodes = (
"113 763 LINE SMOOTH",
"78 763 OFFCURVE",
"50 735 OFFCURVE",
"50 700 CURVE SMOOTH",
"50 63 LINE SMOOTH",
"50 28 OFFCURVE",
"78 0 OFFCURVE",
"113 0 CURVE SMOOTH",
"147 0 OFFCURVE",
"175 28 OFFCURVE",
"175 63 CURVE SMOOTH",
"175 353 LINE",
"363 353 LINE SMOOTH",
"398 353 OFFCURVE",
"426 381 OFFCURVE",
"426 416 CURVE SMOOTH",
"426 450 OFFCURVE",
"398 479 OFFCURVE",
"363 479 CURVE SMOOTH",
"175 479 LINE",
"175 637 LINE",
"399 637 LINE SMOOTH",
"434 637 OFFCURVE",
"462 665 OFFCURVE",
"462 700 CURVE SMOOTH",
"462 735 OFFCURVE",
"434 763 OFFCURVE",
"399 763 CURVE SMOOTH"
);
}
);
width = 488;
}
);
note = F.alt;
rightKerningGroup = F;
},
{
glyphname = f;
layers = (
{
hints = (
{
horizontal = 1;
place = "{0, 21}";
target = up;
type = BottomGhost;
},
{
horizontal = 1;
place = "{363, 119}";
type = Stem;
},
{
horizontal = 1;
place = "{644, 119}";
type = Stem;
},
{
place = "{98, 119}";
type = Stem;
},
{
place = "{35, 182}";
type = Stem;
},
{
place = "{98, 233}";
type = Stem;
}
);
layerId = "9F677CD6-B234-481A-8F27-4A5B4DD836E1";
paths = (
{
closed = 1;
nodes = (
"201 763 OFFCURVE",
"98 660 OFFCURVE",
"98 532 CURVE SMOOTH",
"98 482 LINE",
"95 482 LINE SMOOTH",
"62 482 OFFCURVE",
"35 455 OFFCURVE",
"35 422 CURVE SMOOTH",
"35 389 OFFCURVE",
"62 363 OFFCURVE",
"95 363 CURVE SMOOTH",
"98 363 LINE",
"98 59 LINE SMOOTH",
"98 26 OFFCURVE",
"124 0 OFFCURVE",
"157 0 CURVE SMOOTH",
"190 0 OFFCURVE",
"217 26 OFFCURVE",
"217 59 CURVE SMOOTH",
"217 363 LINE",
"271 363 LINE SMOOTH",
"304 363 OFFCURVE",
"331 389 OFFCURVE",
"331 422 CURVE SMOOTH",
"331 455 OFFCURVE",
"304 482 OFFCURVE",
"271 482 CURVE SMOOTH",
"217 482 LINE",
"217 532 LINE SMOOTH",
"217 594 OFFCURVE",
"267 644 OFFCURVE",
"329 644 CURVE SMOOTH",
"362 644 OFFCURVE",
"388 671 OFFCURVE",
"388 704 CURVE SMOOTH",
"388 737 OFFCURVE",
"362 763 OFFCURVE",
"329 763 CURVE SMOOTH"
);
}
);
width = 383;
}
);
note = f;
unicode = 0066;
},
{
glyphname = G;
layers = (
{
hints = (
{
horizontal = 1;
place = "{-13, 125}";
type = Stem;
},
{
horizontal = 1;
place = "{318, 125}";
type = Stem;
},
{
horizontal = 1;
place = "{649, 126}";
type = Stem;
},
{
place = "{44, 126}";
type = Stem;
},
{
place = "{417, 126}";
type = Stem;
}
);
layerId = "9F677CD6-B234-481A-8F27-4A5B4DD836E1";
paths = (
{
closed = 1;
nodes = (
"318 443 LINE SMOOTH",
"284 443 OFFCURVE",
"255 415 OFFCURVE",
"255 381 CURVE SMOOTH",
"255 346 OFFCURVE",
"284 318 OFFCURVE",
"318 318 CURVE SMOOTH",
"417 318 LINE",
"417 236 LINE SMOOTH",
"417 168 OFFCURVE",
"362 112 OFFCURVE",
"294 112 CURVE SMOOTH",
"225 112 OFFCURVE",
"170 168 OFFCURVE",
"170 236 CURVE SMOOTH",
"170 525 LINE SMOOTH",
"170 594 OFFCURVE",
"225 649 OFFCURVE",
"294 649 CURVE SMOOTH",
"347 649 OFFCURVE",
"394 616 OFFCURVE",
"411 566 CURVE SMOOTH",
"422 533 OFFCURVE",
"458 515 OFFCURVE",
"491 526 CURVE SMOOTH",
"523 538 OFFCURVE",
"541 573 OFFCURVE",
"530 606 CURVE SMOOTH",
"495 707 OFFCURVE",
"400 775 OFFCURVE",
"294 775 CURVE SMOOTH",
"156 775 OFFCURVE",
"44 663 OFFCURVE",
"44 525 CURVE SMOOTH",
"44 236 LINE SMOOTH",
"44 99 OFFCURVE",
"156 -13 OFFCURVE",
"294 -13 CURVE SMOOTH",
"431 -13 OFFCURVE",
"543 99 OFFCURVE",
"543 236 CURVE SMOOTH",
"543 381 LINE SMOOTH",
"543 415 OFFCURVE",
"515 443 OFFCURVE",
"480 443 CURVE SMOOTH"
);
}
);
width = 583;
}
);
leftKerningGroup = zero;
note = G;
rightKerningGroup = zero;
unicode = 0047;
},
{
glyphname = G.alt1;
layers = (
{
hints = (
{
horizontal = 1;
place = "{-20, 126}";
type = Stem;
},
{
horizontal = 1;
place = "{353, 125}";
type = Stem;
},
{
horizontal = 1;
place = "{657, 125}";
type = Stem;
},
{
place = "{44, 125}";
type = Stem;
},
{
place = "{417, 126}";
type = Stem;
}
);
layerId = "9F677CD6-B234-481A-8F27-4A5B4DD836E1";
paths = (
{
closed = 1;
nodes = (
"431 -20 OFFCURVE",
"543 92 OFFCURVE",
"543 230 CURVE SMOOTH",
"543 416 LINE SMOOTH",
"543 450 OFFCURVE",
"515 478 OFFCURVE",
"480 478 CURVE SMOOTH",
"318 478 LINE SMOOTH",
"284 478 OFFCURVE",
"255 450 OFFCURVE",
"255 416 CURVE SMOOTH",
"255 381 OFFCURVE",
"284 353 OFFCURVE",
"318 353 CURVE SMOOTH",
"417 353 LINE",
"417 230 LINE SMOOTH",
"417 161 OFFCURVE",
"362 106 OFFCURVE",
"293 106 CURVE SMOOTH",
"225 106 OFFCURVE",
"169 161 OFFCURVE",
"169 230 CURVE SMOOTH",
"169 533 LINE SMOOTH",
"169 601 OFFCURVE",
"225 657 OFFCURVE",
"293 657 CURVE SMOOTH",
"337 657 OFFCURVE",
"378 633 OFFCURVE",
"400 596 CURVE SMOOTH",
"418 566 OFFCURVE",
"456 556 OFFCURVE",
"486 574 CURVE SMOOTH",
"516 591 OFFCURVE",
"526 630 OFFCURVE",
"508 660 CURVE SMOOTH",
"463 735 OFFCURVE",
"381 782 OFFCURVE",
"293 782 CURVE SMOOTH",
"156 782 OFFCURVE",
"44 670 OFFCURVE",
"44 533 CURVE SMOOTH",
"44 230 LINE SMOOTH",
"44 92 OFFCURVE",
"156 -20 OFFCURVE",
"293 -20 CURVE SMOOTH"
);
}
);
width = 583;
}
);
leftKerningGroup = zero;
note = G.alt1;
rightKerningGroup = zero;
},
{
glyphname = G.alt2;
layers = (
{
hints = (
{
horizontal = 1;
place = "{-20, 126}";
type = Stem;
},
{
horizontal = 1;
place = "{319, 125}";
type = Stem;
},
{
horizontal = 1;
place = "{657, 125}";
type = Stem;
},
{
place = "{35, 125}";
type = Stem;
}
);
layerId = "9F677CD6-B234-481A-8F27-4A5B4DD836E1";
paths = (
{
closed = 1;
nodes = (
"657 -20 OFFCURVE",
"837 160 OFFCURVE",
"837 381 CURVE SMOOTH",
"837 416 OFFCURVE",
"809 444 OFFCURVE",
"774 444 CURVE SMOOTH",
"437 444 LINE SMOOTH",
"402 444 OFFCURVE",
"374 416 OFFCURVE",
"374 381 CURVE SMOOTH",
"374 347 OFFCURVE",
"402 319 OFFCURVE",
"437 319 CURVE SMOOTH",
"704 319 LINE",
"676 197 OFFCURVE",
"566 106 OFFCURVE",
"436 106 CURVE SMOOTH",
"284 106 OFFCURVE",
"160 229 OFFCURVE",
"160 381 CURVE SMOOTH",
"160 533 OFFCURVE",
"284 657 OFFCURVE",
"436 657 CURVE SMOOTH",
"520 657 OFFCURVE",
"598 619 OFFCURVE",
"651 554 CURVE SMOOTH",
"673 526 OFFCURVE",
"712 522 OFFCURVE",
"739 544 CURVE SMOOTH",
"766 566 OFFCURVE",
"770 605 OFFCURVE",
"749 632 CURVE SMOOTH",
"672 728 OFFCURVE",
"558 782 OFFCURVE",
"436 782 CURVE SMOOTH",
"215 782 OFFCURVE",
"35 602 OFFCURVE",
"35 381 CURVE SMOOTH",
"35 160 OFFCURVE",
"215 -20 OFFCURVE",
"436 -20 CURVE SMOOTH"
);
}
);
width = 867;
}
);
leftKerningGroup = at;
note = G.alt2;
rightKerningGroup = at;
},
{
glyphname = g;
layers = (
{
hints = (
{
horizontal = 1;
place = "{-242, 119}";
type = Stem;
},
{
horizontal = 1;
place = "{-7, 120}";
type = Stem;
},
{
horizontal = 1;
place = "{567, -20}";
target = down;
type = TopGhost;
},
{
place = "{35, 120}";
type = Stem;
},
{
place = "{379, 119}";
type = Stem;
},
{
horizontal = 1;
place = "{454, 119}";
type = Stem;
}
);
layerId = "9F677CD6-B234-481A-8F27-4A5B4DD836E1";
paths = (
{
closed = 1;
nodes = (
"417 567 OFFCURVE",
"398 556 OFFCURVE",
"388 539 CURVE",
"352 561 OFFCURVE",
"311 573 OFFCURVE",
"267 573 CURVE SMOOTH",
"139 573 OFFCURVE",
"35 470 OFFCURVE",
"35 342 CURVE SMOOTH",
"35 225 LINE SMOOTH",
"35 97 OFFCURVE",
"139 -7 OFFCURVE",
"267 -7 CURVE SMOOTH",
"307 -7 OFFCURVE",
"345 4 OFFCURVE",
"379 22 CURVE",
"379 -11 LINE SMOOTH",
"379 -73 OFFCURVE",
"328 -123 OFFCURVE",
"267 -123 CURVE SMOOTH",
"213 -123 OFFCURVE",
"167 -85 OFFCURVE",
"157 -32 CURVE SMOOTH",
"150 0 OFFCURVE",
"119 21 OFFCURVE",
"87 15 CURVE SMOOTH",
"55 9 OFFCURVE",
"33 -22 OFFCURVE",
"40 -55 CURVE SMOOTH",
"60 -163 OFFCURVE",
"156 -242 OFFCURVE",
"267 -242 CURVE SMOOTH",
"394 -242 OFFCURVE",
"498 -139 OFFCURVE",
"498 -11 CURVE SMOOTH",
"498 225 LINE",
"498 342 LINE",
"498 507 LINE SMOOTH",
"498 540 OFFCURVE",
"471 567 OFFCURVE",
"438 567 CURVE SMOOTH"
);
},
{
closed = 1;
nodes = (
"205 113 OFFCURVE",
"155 163 OFFCURVE",
"155 225 CURVE SMOOTH",
"155 342 LINE SMOOTH",
"155 404 OFFCURVE",
"205 454 OFFCURVE",
"267 454 CURVE SMOOTH",
"328 454 OFFCURVE",
"379 404 OFFCURVE",
"379 342 CURVE SMOOTH",
"379 225 LINE SMOOTH",
"379 163 OFFCURVE",
"328 113 OFFCURVE",
"267 113 CURVE SMOOTH"
);
}
);
width = 543;
}
);
leftKerningGroup = a;
note = g;
unicode = 0067;
},
{
glyphname = H;
layers = (
{
hints = (
{
horizontal = 1;
place = "{0, 21}";
target = up;
type = BottomGhost;
},
{
horizontal = 1;
place = "{353, 126}";
type = Stem;
},
{
horizontal = 1;
place = "{763, -20}";
target = down;
type = TopGhost;
},
{
place = "{50, 126}";
type = Stem;
},
{
place = "{396, 125}";
type = Stem;
}
);
layerId = "9F677CD6-B234-481A-8F27-4A5B4DD836E1";
paths = (
{
closed = 1;
nodes = (
"424 763 OFFCURVE",
"396 735 OFFCURVE",
"396 700 CURVE SMOOTH",
"396 479 LINE",
"176 479 LINE",
"176 700 LINE SMOOTH",
"176 735 OFFCURVE",
"148 763 OFFCURVE",
"113 763 CURVE SMOOTH",
"78 763 OFFCURVE",
"50 735 OFFCURVE",
"50 700 CURVE SMOOTH",
"50 63 LINE SMOOTH",
"50 28 OFFCURVE",
"78 0 OFFCURVE",
"113 0 CURVE SMOOTH",
"148 0 OFFCURVE",
"176 28 OFFCURVE",
"176 63 CURVE SMOOTH",
"176 353 LINE",
"396 353 LINE",
"396 63 LINE SMOOTH",
"396 28 OFFCURVE",
"424 0 OFFCURVE",
"459 0 CURVE SMOOTH",
"493 0 OFFCURVE",
"521 28 OFFCURVE",
"521 63 CURVE SMOOTH",
"521 700 LINE SMOOTH",
"521 735 OFFCURVE",
"493 763 OFFCURVE",
"459 763 CURVE SMOOTH"
);
}
);
width = 571;
}
);
note = H;
unicode = 0048;
},
{
glyphname = H.alt;
layers = (
{
hints = (
{
horizontal = 1;
place = "{0, 21}";
target = up;
type = BottomGhost;
},
{
horizontal = 1;
place = "{353, 126}";
type = Stem;
},
{
horizontal = 1;
place = "{763, -20}";
target = down;
type = TopGhost;
},
{
place = "{50, 125}";
type = Stem;
},
{
place = "{370, 126}";
type = Stem;
}
);
layerId = "9F677CD6-B234-481A-8F27-4A5B4DD836E1";
paths = (
{
closed = 1;
nodes = (
"50 63 LINE SMOOTH",
"50 28 OFFCURVE",
"78 0 OFFCURVE",
"113 0 CURVE SMOOTH",
"147 0 OFFCURVE",
"175 28 OFFCURVE",
"175 63 CURVE SMOOTH",
"175 353 LINE",
"370 353 LINE",
"370 63 LINE SMOOTH",
"370 28 OFFCURVE",
"398 0 OFFCURVE",
"433 0 CURVE SMOOTH",
"468 0 OFFCURVE",
"496 28 OFFCURVE",
"496 63 CURVE SMOOTH",
"496 700 LINE SMOOTH",
"496 735 OFFCURVE",
"468 763 OFFCURVE",
"433 763 CURVE SMOOTH",
"398 763 OFFCURVE",
"370 735 OFFCURVE",
"370 700 CURVE SMOOTH",
"370 479 LINE",
"175 479 LINE",
"175 700 LINE SMOOTH",
"175 735 OFFCURVE",
"147 763 OFFCURVE",
"113 763 CURVE SMOOTH",
"78 763 OFFCURVE",
"50 735 OFFCURVE",
"50 700 CURVE SMOOTH"
);
}
);
width = 546;
}
);
note = H.alt;
},
{
glyphname = h;
layers = (
{
hints = (
{
horizontal = 1;
place = "{0, 21}";
target = up;
type = BottomGhost;
},
{
horizontal = 1;
place = "{454, 119}";
type = Stem;
},
{
horizontal = 1;
place = "{763, -20}";
target = down;
type = TopGhost;
},
{
place = "{45, 119}";
type = Stem;
},
{
place = "{388, 119}";
type = Stem;
}
);
layerId = "9F677CD6-B234-481A-8F27-4A5B4DD836E1";
paths = (
{
closed = 1;
nodes = (
"235 573 OFFCURVE",
"197 563 OFFCURVE",
"164 544 CURVE",
"164 704 LINE SMOOTH",
"164 737 OFFCURVE",
"137 763 OFFCURVE",
"104 763 CURVE SMOOTH",
"71 763 OFFCURVE",
"45 737 OFFCURVE",
"45 704 CURVE SMOOTH",
"45 342 LINE",
"45 59 LINE SMOOTH",
"45 55 OFFCURVE",
"45 51 OFFCURVE",
"46 47 CURVE SMOOTH",
"51 20 OFFCURVE",
"75 0 OFFCURVE",
"104 0 CURVE SMOOTH",
"137 0 OFFCURVE",
"164 26 OFFCURVE",
"164 59 CURVE SMOOTH",
"164 342 LINE SMOOTH",
"164 404 OFFCURVE",
"214 454 OFFCURVE",
"276 454 CURVE SMOOTH",
"338 454 OFFCURVE",
"388 404 OFFCURVE",
"388 342 CURVE SMOOTH",
"388 59 LINE SMOOTH",
"388 26 OFFCURVE",
"414 0 OFFCURVE",
"447 0 CURVE SMOOTH",
"480 0 OFFCURVE",
"507 26 OFFCURVE",
"507 59 CURVE SMOOTH",
"507 342 LINE SMOOTH",
"507 470 OFFCURVE",
"403 573 OFFCURVE",
"276 573 CURVE SMOOTH"
);
}
);
width = 547;
}
);
note = h;
rightKerningGroup = a;
unicode = 0068;
},
{
glyphname = I;
layers = (
{
hints = (
{
horizontal = 1;
place = "{0, 21}";
target = up;
type = BottomGhost;
},
{
horizontal = 1;
place = "{763, -20}";
target = down;
type = TopGhost;
},
{
place = "{50, 126}";
type = Stem;
}
);
layerId = "9F677CD6-B234-481A-8F27-4A5B4DD836E1";
paths = (
{
closed = 1;
nodes = (
"176 700 LINE SMOOTH",
"176 735 OFFCURVE",
"147 763 OFFCURVE",
"113 763 CURVE SMOOTH",
"78 763 OFFCURVE",
"50 735 OFFCURVE",
"50 700 CURVE SMOOTH",
"50 63 LINE SMOOTH",
"50 28 OFFCURVE",
"78 0 OFFCURVE",
"113 0 CURVE SMOOTH",
"147 0 OFFCURVE",
"176 28 OFFCURVE",
"176 63 CURVE SMOOTH"
);
}
);
width = 226;
}
);
note = I;
unicode = 0049;
},
{
glyphname = Iacute;
layers = (
{
hints = (
{
horizontal = 1;
place = "{0, 21}";
target = up;
type = BottomGhost;
},
{
horizontal = 1;
place = "{763, -20}";
target = down;
type = TopGhost;
},
{
place = "{50, 126}";
type = Stem;
}
);
layerId = "9F677CD6-B234-481A-8F27-4A5B4DD836E1";
paths = (
{
closed = 1;
nodes = (
"121 817 OFFCURVE",
"131 820 OFFCURVE",
"140 825 CURVE SMOOTH",
"235 881 LINE SMOOTH",
"262 897 OFFCURVE",
"271 931 OFFCURVE",
"255 958 CURVE SMOOTH",
"240 985 OFFCURVE",
"205 994 OFFCURVE",
"178 978 CURVE SMOOTH",
"83 922 LINE SMOOTH",
"56 906 OFFCURVE",
"47 872 OFFCURVE",
"63 845 CURVE SMOOTH",
"73 827 OFFCURVE",
"92 817 OFFCURVE",
"111 817 CURVE SMOOTH"
);
},
{
closed = 1;
nodes = (
"176 700 LINE SMOOTH",
"176 735 OFFCURVE",
"147 763 OFFCURVE",
"113 763 CURVE SMOOTH",
"78 763 OFFCURVE",
"50 735 OFFCURVE",
"50 700 CURVE SMOOTH",
"50 63 LINE SMOOTH",
"50 28 OFFCURVE",
"78 0 OFFCURVE",
"113 0 CURVE SMOOTH",
"147 0 OFFCURVE",
"176 28 OFFCURVE",
"176 63 CURVE SMOOTH"
);
}
);
width = 226;
}
);
note = Iacute;
unicode = 00CD;
},
{
glyphname = Icircumflex;
layers = (
{
hints = (
{
horizontal = 1;
place = "{0, 21}";
target = up;
type = BottomGhost;
},
{
horizontal = 1;
place = "{763, 27}";
type = Stem;
},
{
place = "{50, 126}";
type = Stem;
}
);
layerId = "9F677CD6-B234-481A-8F27-4A5B4DD836E1";
paths = (
{
closed = 1;
nodes = (
"113 837 LINE",
"179 798 LINE SMOOTH",
"188 793 OFFCURVE",
"198 790 OFFCURVE",
"208 790 CURVE SMOOTH",
"227 790 OFFCURVE",
"246 800 OFFCURVE",
"257 818 CURVE SMOOTH",
"272 845 OFFCURVE",
"263 880 OFFCURVE",
"237 895 CURVE SMOOTH",
"141 951 LINE SMOOTH",
"124 962 OFFCURVE",
"102 962 OFFCURVE",
"84 951 CURVE SMOOTH",
"-11 895 LINE SMOOTH",
"-38 880 OFFCURVE",
"-47 845 OFFCURVE",
"-31 818 CURVE SMOOTH",
"-16 791 OFFCURVE",
"19 782 OFFCURVE",
"46 798 CURVE SMOOTH"
);
},
{
closed = 1;
nodes = (
"176 700 LINE SMOOTH",
"176 735 OFFCURVE",
"147 763 OFFCURVE",
"113 763 CURVE SMOOTH",
"78 763 OFFCURVE",
"50 735 OFFCURVE",
"50 700 CURVE SMOOTH",
"50 63 LINE SMOOTH",
"50 28 OFFCURVE",
"78 0 OFFCURVE",
"113 0 CURVE SMOOTH",
"147 0 OFFCURVE",
"176 28 OFFCURVE",
"176 63 CURVE SMOOTH"
);
}
);
width = 226;
}
);
note = Icircumflex;
unicode = 00CE;
},
{
glyphname = Idieresis;
layers = (
{
hints = (
{
horizontal = 1;
place = "{0, 21}";
target = up;
type = BottomGhost;
},
{
horizontal = 1;
place = "{763, -20}";
target = down;
type = TopGhost;
},
{
horizontal = 1;
place = "{799, 127}";
type = Stem;
},
{
place = "{-56, 128}";
type = Stem;
},
{
place = "{152, 128}";
type = Stem;
},
{
place = "{50, 126}";
type = Stem;
}
);
layerId = "9F677CD6-B234-481A-8F27-4A5B4DD836E1";
paths = (
{
closed = 1;
nodes = (
"-27 926 OFFCURVE",
"-56 897 OFFCURVE",
"-56 862 CURVE SMOOTH",
"-56 827 OFFCURVE",
"-27 799 OFFCURVE",
"8 799 CURVE SMOOTH",
"43 799 OFFCURVE",
"72 827 OFFCURVE",
"72 862 CURVE SMOOTH",
"72 897 OFFCURVE",
"43 926 OFFCURVE",
"8 926 CURVE SMOOTH"
);
},
{
closed = 1;
nodes = (
"181 926 OFFCURVE",
"152 897 OFFCURVE",
"152 862 CURVE SMOOTH",
"152 827 OFFCURVE",
"181 799 OFFCURVE",
"216 799 CURVE SMOOTH",
"251 799 OFFCURVE",
"280 827 OFFCURVE",
"280 862 CURVE SMOOTH",
"280 897 OFFCURVE",
"251 926 OFFCURVE",
"216 926 CURVE SMOOTH"
);
},
{
closed = 1;
nodes = (
"176 700 LINE SMOOTH",
"176 735 OFFCURVE",
"147 763 OFFCURVE",
"113 763 CURVE SMOOTH",
"78 763 OFFCURVE",
"50 735 OFFCURVE",
"50 700 CURVE SMOOTH",
"50 63 LINE SMOOTH",
"50 28 OFFCURVE",
"78 0 OFFCURVE",
"113 0 CURVE SMOOTH",
"147 0 OFFCURVE",
"176 28 OFFCURVE",
"176 63 CURVE SMOOTH"
);
}
);
width = 226;
}
);
note = Idieresis;
unicode = 00CF;
},
{
glyphname = Igrave;
layers = (
{
hints = (
{
horizontal = 1;
place = "{0, 21}";
target = up;
type = BottomGhost;
},
{
horizontal = 1;
place = "{763, -20}";
target = down;
type = TopGhost;
},
{
place = "{50, 126}";
type = Stem;
}
);
layerId = "9F677CD6-B234-481A-8F27-4A5B4DD836E1";
paths = (
{
closed = 1;
nodes = (
"132 817 OFFCURVE",
"151 827 OFFCURVE",
"162 845 CURVE SMOOTH",
"178 872 OFFCURVE",
"169 906 OFFCURVE",
"142 922 CURVE SMOOTH",
"46 978 LINE SMOOTH",
"20 994 OFFCURVE",
"-15 985 OFFCURVE",
"-31 958 CURVE SMOOTH",
"-47 931 OFFCURVE",
"-38 897 OFFCURVE",
"-11 881 CURVE SMOOTH",
"84 825 LINE SMOOTH",
"93 819 OFFCURVE",
"103 817 OFFCURVE",
"113 817 CURVE SMOOTH"
);
},
{
closed = 1;
nodes = (
"176 700 LINE SMOOTH",
"176 735 OFFCURVE",
"147 763 OFFCURVE",
"113 763 CURVE SMOOTH",
"78 763 OFFCURVE",
"50 735 OFFCURVE",
"50 700 CURVE SMOOTH",
"50 63 LINE SMOOTH",
"50 28 OFFCURVE",
"78 0 OFFCURVE",
"113 0 CURVE SMOOTH",
"147 0 OFFCURVE",
"176 28 OFFCURVE",
"176 63 CURVE SMOOTH"
);
}
);
width = 226;
}
);
note = Igrave;
unicode = 00CC;
},
{
glyphname = I.altacute;
layers = (
{
hints = (
{
horizontal = 1;
place = "{0, 21}";
target = up;
type = BottomGhost;
},
{
horizontal = 1;
place = "{763, -20}";
target = down;
type = TopGhost;
},
{
place = "{50, 126}";
type = Stem;
}
);
layerId = "9F677CD6-B234-481A-8F27-4A5B4DD836E1";
paths = (
{
closed = 1;
nodes = (
"121 817 OFFCURVE",
"131 820 OFFCURVE",
"140 825 CURVE SMOOTH",
"235 881 LINE SMOOTH",
"262 897 OFFCURVE",
"271 931 OFFCURVE",
"255 958 CURVE SMOOTH",
"240 985 OFFCURVE",
"205 994 OFFCURVE",
"178 978 CURVE SMOOTH",
"83 922 LINE SMOOTH",
"56 906 OFFCURVE",
"47 872 OFFCURVE",
"63 845 CURVE SMOOTH",
"73 827 OFFCURVE",
"92 817 OFFCURVE",
"111 817 CURVE SMOOTH"
);
},
{
closed = 1;
nodes = (
"176 700 LINE SMOOTH",
"176 735 OFFCURVE",
"147 763 OFFCURVE",
"113 763 CURVE SMOOTH",
"78 763 OFFCURVE",
"50 735 OFFCURVE",
"50 700 CURVE SMOOTH",
"50 63 LINE SMOOTH",
"50 28 OFFCURVE",
"78 0 OFFCURVE",
"113 0 CURVE SMOOTH",
"147 0 OFFCURVE",
"176 28 OFFCURVE",
"176 63 CURVE SMOOTH"
);
}
);
width = 226;
}
);
note = I.altacute;
},
{
glyphname = I.altcircumflex;
layers = (
{
hints = (
{
horizontal = 1;
place = "{0, 21}";
target = up;
type = BottomGhost;
},
{
horizontal = 1;
place = "{763, -20}";
target = down;
type = TopGhost;
},
{
place = "{50, 126}";
type = Stem;
}
);
layerId = "9F677CD6-B234-481A-8F27-4A5B4DD836E1";
paths = (
{
closed = 1;
nodes = (
"113 827 LINE",
"179 788 LINE SMOOTH",
"188 783 OFFCURVE",
"198 780 OFFCURVE",
"208 780 CURVE SMOOTH",
"227 780 OFFCURVE",
"246 790 OFFCURVE",
"257 808 CURVE SMOOTH",
"272 835 OFFCURVE",
"263 870 OFFCURVE",
"237 885 CURVE SMOOTH",
"141 941 LINE SMOOTH",
"124 952 OFFCURVE",
"102 952 OFFCURVE",
"84 941 CURVE SMOOTH",
"-11 885 LINE SMOOTH",
"-38 870 OFFCURVE",
"-47 835 OFFCURVE",
"-31 808 CURVE SMOOTH",
"-16 781 OFFCURVE",
"19 772 OFFCURVE",
"46 788 CURVE SMOOTH"
);
},
{
closed = 1;
nodes = (
"176 700 LINE SMOOTH",
"176 735 OFFCURVE",
"147 763 OFFCURVE",
"113 763 CURVE SMOOTH",
"78 763 OFFCURVE",
"50 735 OFFCURVE",
"50 700 CURVE SMOOTH",
"50 63 LINE SMOOTH",
"50 28 OFFCURVE",
"78 0 OFFCURVE",
"113 0 CURVE SMOOTH",
"147 0 OFFCURVE",
"176 28 OFFCURVE",
"176 63 CURVE SMOOTH"
);
}
);
width = 226;
}
);
note = I.altcircumflex;
},
{
glyphname = I.altdieresis;
layers = (
{
hints = (
{
horizontal = 1;
place = "{0, 21}";
target = up;
type = BottomGhost;
},
{
horizontal = 1;
place = "{763, -20}";
target = down;
type = TopGhost;
},
{
horizontal = 1;
place = "{799, 127}";
type = Stem;
},
{
place = "{-56, 128}";
type = Stem;
},
{
place = "{152, 128}";
type = Stem;
},
{
place = "{50, 126}";
type = Stem;
}
);
layerId = "9F677CD6-B234-481A-8F27-4A5B4DD836E1";
paths = (
{
closed = 1;
nodes = (
"-27 926 OFFCURVE",
"-56 897 OFFCURVE",
"-56 862 CURVE SMOOTH",
"-56 827 OFFCURVE",
"-27 799 OFFCURVE",
"8 799 CURVE SMOOTH",
"43 799 OFFCURVE",
"72 827 OFFCURVE",
"72 862 CURVE SMOOTH",
"72 897 OFFCURVE",
"43 926 OFFCURVE",
"8 926 CURVE SMOOTH"
);
},
{
closed = 1;
nodes = (
"181 926 OFFCURVE",
"152 897 OFFCURVE",
"152 862 CURVE SMOOTH",
"152 827 OFFCURVE",
"181 799 OFFCURVE",
"216 799 CURVE SMOOTH",
"251 799 OFFCURVE",
"280 827 OFFCURVE",
"280 862 CURVE SMOOTH",
"280 897 OFFCURVE",
"251 926 OFFCURVE",
"216 926 CURVE SMOOTH"
);
},
{
closed = 1;
nodes = (
"176 700 LINE SMOOTH",
"176 735 OFFCURVE",
"147 763 OFFCURVE",
"113 763 CURVE SMOOTH",
"78 763 OFFCURVE",
"50 735 OFFCURVE",
"50 700 CURVE SMOOTH",
"50 63 LINE SMOOTH",
"50 28 OFFCURVE",
"78 0 OFFCURVE",
"113 0 CURVE SMOOTH",
"147 0 OFFCURVE",
"176 28 OFFCURVE",
"176 63 CURVE SMOOTH"
);
}
);
width = 226;
}
);
note = I.altdieresis;
},
{
glyphname = I.altgrave;
layers = (
{
hints = (
{
horizontal = 1;
place = "{0, 21}";
target = up;
type = BottomGhost;
},
{
horizontal = 1;
place = "{763, -20}";
target = down;
type = TopGhost;
},
{
place = "{50, 126}";
type = Stem;
}
);
layerId = "9F677CD6-B234-481A-8F27-4A5B4DD836E1";
paths = (
{
closed = 1;
nodes = (
"132 817 OFFCURVE",
"151 827 OFFCURVE",
"162 845 CURVE SMOOTH",
"178 872 OFFCURVE",
"169 906 OFFCURVE",
"142 922 CURVE SMOOTH",
"46 978 LINE SMOOTH",
"20 994 OFFCURVE",
"-15 985 OFFCURVE",
"-31 958 CURVE SMOOTH",
"-47 931 OFFCURVE",
"-38 897 OFFCURVE",
"-11 881 CURVE SMOOTH",
"84 825 LINE SMOOTH",
"93 819 OFFCURVE",
"103 817 OFFCURVE",
"113 817 CURVE SMOOTH"
);
},
{
closed = 1;
nodes = (
"176 700 LINE SMOOTH",
"176 735 OFFCURVE",
"147 763 OFFCURVE",
"113 763 CURVE SMOOTH",
"78 763 OFFCURVE",
"50 735 OFFCURVE",
"50 700 CURVE SMOOTH",
"50 63 LINE SMOOTH",
"50 28 OFFCURVE",
"78 0 OFFCURVE",
"113 0 CURVE SMOOTH",
"147 0 OFFCURVE",
"176 28 OFFCURVE",
"176 63 CURVE SMOOTH"
);
}
);
width = 226;
}
);
note = I.altgrave;
},
{
glyphname = i;
layers = (
{
hints = (
{
horizontal = 1;
place = "{0, 21}";
target = up;
type = BottomGhost;
},
{
horizontal = 1;
place = "{567, -20}";
target = down;
type = TopGhost;
},
{
horizontal = 1;
place = "{762, -20}";
target = down;
type = TopGhost;
},
{
place = "{48, 119}";
type = Stem;
}
);
layerId = "9F677CD6-B234-481A-8F27-4A5B4DD836E1";
paths = (
{
closed = 1;
nodes = (
"124 637 OFFCURVE",
"140 643 OFFCURVE",
"152 655 CURVE SMOOTH",
"163 667 OFFCURVE",
"170 683 OFFCURVE",
"170 699 CURVE SMOOTH",
"170 716 OFFCURVE",
"163 732 OFFCURVE",
"152 744 CURVE SMOOTH",
"140 755 OFFCURVE",
"124 762 OFFCURVE",
"107 762 CURVE SMOOTH",
"91 762 OFFCURVE",
"75 755 OFFCURVE",
"63 744 CURVE SMOOTH",
"51 732 OFFCURVE",
"45 716 OFFCURVE",
"45 699 CURVE SMOOTH",
"45 683 OFFCURVE",
"51 667 OFFCURVE",
"63 655 CURVE SMOOTH",
"75 643 OFFCURVE",
"91 637 OFFCURVE",
"107 637 CURVE SMOOTH"
);
},
{
closed = 1;
nodes = (
"167 507 LINE SMOOTH",
"167 540 OFFCURVE",
"140 567 OFFCURVE",
"107 567 CURVE SMOOTH",
"74 567 OFFCURVE",
"48 540 OFFCURVE",
"48 507 CURVE SMOOTH",
"48 59 LINE SMOOTH",
"48 26 OFFCURVE",
"74 0 OFFCURVE",
"107 0 CURVE SMOOTH",
"140 0 OFFCURVE",
"167 26 OFFCURVE",
"167 59 CURVE SMOOTH"
);
}
);
width = 215;
}
);
note = i;
unicode = 0069;
},
{
glyphname = iacute;
layers = (
{
hints = (
{
horizontal = 1;
place = "{0, 21}";
target = up;
type = BottomGhost;
},
{
horizontal = 1;
place = "{567, -20}";
target = down;
type = TopGhost;
},
{
place = "{48, 119}";
type = Stem;
}
);
layerId = "9F677CD6-B234-481A-8F27-4A5B4DD836E1";
paths = (
{
closed = 1;
nodes = (
"167 507 LINE SMOOTH",
"167 540 OFFCURVE",
"140 567 OFFCURVE",
"107 567 CURVE SMOOTH",
"74 567 OFFCURVE",
"48 540 OFFCURVE",
"48 507 CURVE SMOOTH",
"48 59 LINE SMOOTH",
"48 26 OFFCURVE",
"74 0 OFFCURVE",
"107 0 CURVE SMOOTH",
"140 0 OFFCURVE",
"167 26 OFFCURVE",
"167 59 CURVE SMOOTH"
);
},
{
closed = 1;
nodes = (
"118 623 OFFCURVE",
"128 626 OFFCURVE",
"137 631 CURVE SMOOTH",
"232 687 LINE SMOOTH",
"259 703 OFFCURVE",
"268 737 OFFCURVE",
"252 764 CURVE SMOOTH",
"237 791 OFFCURVE",
"202 800 OFFCURVE",
"175 784 CURVE SMOOTH",
"80 728 LINE SMOOTH",
"53 712 OFFCURVE",
"44 678 OFFCURVE",
"60 651 CURVE SMOOTH",
"70 633 OFFCURVE",
"89 623 OFFCURVE",
"108 623 CURVE SMOOTH"
);
}
);
width = 215;
}
);
note = iacute;
unicode = 00ED;
},
{
glyphname = icircumflex;
layers = (
{
hints = (
{
horizontal = 1;
place = "{0, 21}";
target = up;
type = BottomGhost;
},
{
horizontal = 1;
place = "{567, 44}";
type = Stem;
},
{
place = "{48, 119}";
type = Stem;
}
);
layerId = "9F677CD6-B234-481A-8F27-4A5B4DD836E1";
paths = (
{
closed = 1;
nodes = (
"167 507 LINE SMOOTH",
"167 540 OFFCURVE",
"140 567 OFFCURVE",
"107 567 CURVE SMOOTH",
"74 567 OFFCURVE",
"48 540 OFFCURVE",
"48 507 CURVE SMOOTH",
"48 59 LINE SMOOTH",
"48 26 OFFCURVE",
"74 0 OFFCURVE",
"107 0 CURVE SMOOTH",
"140 0 OFFCURVE",
"167 26 OFFCURVE",
"167 59 CURVE SMOOTH"
);
},
{
closed = 1;
nodes = (
"105 658 LINE",
"171 619 LINE SMOOTH",
"180 614 OFFCURVE",
"190 611 OFFCURVE",
"200 611 CURVE SMOOTH",
"219 611 OFFCURVE",
"238 621 OFFCURVE",
"249 639 CURVE SMOOTH",
"264 666 OFFCURVE",
"255 701 OFFCURVE",
"229 716 CURVE SMOOTH",
"133 772 LINE SMOOTH",
"116 783 OFFCURVE",
"94 783 OFFCURVE",
"76 772 CURVE SMOOTH",
"-19 716 LINE SMOOTH",
"-46 701 OFFCURVE",
"-55 666 OFFCURVE",
"-39 639 CURVE SMOOTH",
"-24 612 OFFCURVE",
"11 603 OFFCURVE",
"38 619 CURVE SMOOTH"
);
}
);
width = 215;
}
);
note = icircumflex;
unicode = 00EE;
},
{
glyphname = idieresis;
layers = (
{
hints = (
{
horizontal = 1;
place = "{0, 21}";
target = up;
type = BottomGhost;
},
{
horizontal = 1;
place = "{567, -20}";
target = down;
type = TopGhost;
},
{
horizontal = 1;
place = "{622, 127}";
type = Stem;
},
{
place = "{48, 119}";
type = Stem;
},
{
place = "{-63, 128}";
type = Stem;
},
{
place = "{145, 128}";
type = Stem;
}
);
layerId = "9F677CD6-B234-481A-8F27-4A5B4DD836E1";
paths = (
{
closed = 1;
nodes = (
"167 507 LINE SMOOTH",
"167 540 OFFCURVE",
"140 567 OFFCURVE",
"107 567 CURVE SMOOTH",
"74 567 OFFCURVE",
"48 540 OFFCURVE",
"48 507 CURVE SMOOTH",
"48 59 LINE SMOOTH",
"48 26 OFFCURVE",
"74 0 OFFCURVE",
"107 0 CURVE SMOOTH",
"140 0 OFFCURVE",
"167 26 OFFCURVE",
"167 59 CURVE SMOOTH"
);
},
{
closed = 1;
nodes = (
"-34 749 OFFCURVE",
"-63 720 OFFCURVE",
"-63 685 CURVE SMOOTH",
"-63 650 OFFCURVE",
"-34 622 OFFCURVE",
"1 622 CURVE SMOOTH",
"36 622 OFFCURVE",
"65 650 OFFCURVE",
"65 685 CURVE SMOOTH",
"65 720 OFFCURVE",
"36 749 OFFCURVE",
"1 749 CURVE SMOOTH"
);
},
{
closed = 1;
nodes = (
"174 749 OFFCURVE",
"145 720 OFFCURVE",
"145 685 CURVE SMOOTH",
"145 650 OFFCURVE",
"174 622 OFFCURVE",
"209 622 CURVE SMOOTH",
"244 622 OFFCURVE",
"273 650 OFFCURVE",
"273 685 CURVE SMOOTH",
"273 720 OFFCURVE",
"244 749 OFFCURVE",
"209 749 CURVE SMOOTH"
);
}
);
width = 215;
}
);
note = idieresis;
unicode = 00EF;
},
{
glyphname = igrave;
layers = (
{
hints = (
{
horizontal = 1;
place = "{0, 21}";
target = up;
type = BottomGhost;
},
{
horizontal = 1;
place = "{567, -20}";
target = down;
type = TopGhost;
},
{
place = "{48, 119}";
type = Stem;
}
);
layerId = "9F677CD6-B234-481A-8F27-4A5B4DD836E1";
paths = (
{
closed = 1;
nodes = (
"167 507 LINE SMOOTH",
"167 540 OFFCURVE",
"140 567 OFFCURVE",
"107 567 CURVE SMOOTH",
"74 567 OFFCURVE",
"48 540 OFFCURVE",
"48 507 CURVE SMOOTH",
"48 59 LINE SMOOTH",
"48 26 OFFCURVE",
"74 0 OFFCURVE",
"107 0 CURVE SMOOTH",
"140 0 OFFCURVE",
"167 26 OFFCURVE",
"167 59 CURVE SMOOTH"
);
},
{
closed = 1;
nodes = (
"126 623 OFFCURVE",
"145 633 OFFCURVE",
"156 651 CURVE SMOOTH",
"172 678 OFFCURVE",
"163 712 OFFCURVE",
"136 728 CURVE SMOOTH",
"40 784 LINE SMOOTH",
"14 800 OFFCURVE",
"-21 791 OFFCURVE",
"-37 764 CURVE SMOOTH",
"-53 737 OFFCURVE",
"-44 703 OFFCURVE",
"-17 687 CURVE SMOOTH",
"78 631 LINE SMOOTH",
"87 625 OFFCURVE",
"97 623 OFFCURVE",
"107 623 CURVE SMOOTH"
);
}
);
width = 215;
}
);
note = igrave;
unicode = 00EC;
},
{
glyphname = dotlessi;
layers = (
{
hints = (
{
horizontal = 1;
place = "{0, 21}";
target = up;
type = BottomGhost;
},
{
horizontal = 1;
place = "{567, -20}";
target = down;
type = TopGhost;
},
{
place = "{48, 119}";
type = Stem;
}
);
layerId = "9F677CD6-B234-481A-8F27-4A5B4DD836E1";
paths = (
{
closed = 1;
nodes = (
"167 507 LINE SMOOTH",
"167 540 OFFCURVE",
"140 567 OFFCURVE",
"107 567 CURVE SMOOTH",
"74 567 OFFCURVE",
"48 540 OFFCURVE",
"48 507 CURVE SMOOTH",
"48 59 LINE SMOOTH",
"48 26 OFFCURVE",
"74 0 OFFCURVE",
"107 0 CURVE SMOOTH",
"140 0 OFFCURVE",
"167 26 OFFCURVE",
"167 59 CURVE SMOOTH"
);
}
);
width = 215;
}
);
note = dotlessi;
unicode = 0131;
},
{
glyphname = J;
layers = (
{
hints = (
{
horizontal = 1;
place = "{-13, 125}";
type = Stem;
},
{
horizontal = 1;
place = "{762, -20}";
target = down;
type = TopGhost;
},
{
place = "{20, 126}";
type = Stem;
},
{
place = "{394, 125}";
type = Stem;
}
);
layerId = "9F677CD6-B234-481A-8F27-4A5B4DD836E1";
paths = (
{
closed = 1;
nodes = (
"422 762 OFFCURVE",
"394 734 OFFCURVE",
"394 699 CURVE SMOOTH",
"394 236 LINE SMOOTH",
"394 168 OFFCURVE",
"338 112 OFFCURVE",
"270 112 CURVE SMOOTH",
"201 112 OFFCURVE",
"146 168 OFFCURVE",
"146 236 CURVE SMOOTH",
"146 247 OFFCURVE",
"147 258 OFFCURVE",
"150 269 CURVE SMOOTH",
"159 302 OFFCURVE",
"140 337 OFFCURVE",
"106 346 CURVE SMOOTH",
"73 355 OFFCURVE",
"38 335 OFFCURVE",
"29 302 CURVE SMOOTH",
"23 281 OFFCURVE",
"20 258 OFFCURVE",
"20 236 CURVE SMOOTH",
"20 99 OFFCURVE",
"132 -13 OFFCURVE",
"270 -13 CURVE SMOOTH",
"407 -13 OFFCURVE",
"519 99 OFFCURVE",
"519 236 CURVE SMOOTH",
"519 699 LINE SMOOTH",
"519 734 OFFCURVE",
"491 762 OFFCURVE",
"456 762 CURVE SMOOTH"
);
}
);
width = 567;
}
);
leftKerningGroup = J;
note = J;
rightKerningGroup = J;
unicode = 004A;
},
{
glyphname = J.alt;
layers = (
{
hints = (
{
horizontal = 1;
place = "{-20, 126}";
type = Stem;
},
{
horizontal = 1;
place = "{637, 126}";
type = Stem;
},
{
place = "{28, 125}";
type = Stem;
},
{
place = "{401, 126}";
type = Stem;
}
);
layerId = "9F677CD6-B234-481A-8F27-4A5B4DD836E1";
paths = (
{
closed = 1;
nodes = (
"80 349 OFFCURVE",
"46 329 OFFCURVE",
"37 296 CURVE SMOOTH",
"31 274 OFFCURVE",
"28 252 OFFCURVE",
"28 230 CURVE SMOOTH",
"28 92 OFFCURVE",
"140 -20 OFFCURVE",
"277 -20 CURVE SMOOTH",
"415 -20 OFFCURVE",
"527 92 OFFCURVE",
"527 230 CURVE SMOOTH",
"527 700 LINE SMOOTH",
"527 735 OFFCURVE",
"499 763 OFFCURVE",
"464 763 CURVE SMOOTH",
"294 763 LINE SMOOTH",
"260 763 OFFCURVE",
"232 735 OFFCURVE",
"232 700 CURVE SMOOTH",
"232 665 OFFCURVE",
"260 637 OFFCURVE",
"294 637 CURVE SMOOTH",
"401 637 LINE",
"401 230 LINE SMOOTH",
"401 161 OFFCURVE",
"346 106 OFFCURVE",
"277 106 CURVE SMOOTH",
"209 106 OFFCURVE",
"153 161 OFFCURVE",
"153 230 CURVE SMOOTH",
"153 241 OFFCURVE",
"155 252 OFFCURVE",
"158 262 CURVE SMOOTH",
"167 296 OFFCURVE",
"147 330 OFFCURVE",
"114 340 CURVE SMOOTH"
);
}
);
width = 575;
}
);
leftKerningGroup = J;
note = J.alt;
rightKerningGroup = J;
},
{
glyphname = j;
layers = (
{
hints = (
{
horizontal = 1;
place = "{-242, 119}";
type = Stem;
},
{
horizontal = 1;
place = "{567, 70}";
type = Stem;
},
{
horizontal = 1;
place = "{762, -20}";
target = down;
type = TopGhost;
},
{
place = "{51, 119}";
type = Stem;
}
);
layerId = "9F677CD6-B234-481A-8F27-4A5B4DD836E1";
paths = (
{
closed = 1;
nodes = (
"94 762 OFFCURVE",
"78 755 OFFCURVE",
"66 744 CURVE SMOOTH",
"55 732 OFFCURVE",
"48 716 OFFCURVE",
"48 699 CURVE SMOOTH",
"48 683 OFFCURVE",
"55 667 OFFCURVE",
"66 655 CURVE SMOOTH",
"78 643 OFFCURVE",
"94 637 OFFCURVE",
"111 637 CURVE SMOOTH",
"127 637 OFFCURVE",
"143 643 OFFCURVE",
"155 655 CURVE SMOOTH",
"167 667 OFFCURVE",
"174 683 OFFCURVE",
"174 699 CURVE SMOOTH",
"174 716 OFFCURVE",
"167 732 OFFCURVE",
"155 744 CURVE SMOOTH",
"143 755 OFFCURVE",
"127 762 OFFCURVE",
"111 762 CURVE SMOOTH"
);
},
{
closed = 1;
nodes = (
"78 567 OFFCURVE",
"51 540 OFFCURVE",
"51 507 CURVE SMOOTH",
"51 -11 LINE SMOOTH",
"51 -73 OFFCURVE",
"1 -123 OFFCURVE",
"-61 -123 CURVE SMOOTH",
"-94 -123 OFFCURVE",
"-120 -150 OFFCURVE",
"-120 -183 CURVE SMOOTH",
"-120 -216 OFFCURVE",
"-94 -242 OFFCURVE",
"-61 -242 CURVE SMOOTH",
"67 -242 OFFCURVE",
"170 -139 OFFCURVE",
"170 -11 CURVE SMOOTH",
"170 507 LINE SMOOTH",
"170 540 OFFCURVE",
"144 567 OFFCURVE",
"111 567 CURVE SMOOTH"
);
}
);
width = 219;
}
);
note = j;
unicode = 006A;
},
{
glyphname = K;
layers = (
{
hints = (
{
horizontal = 1;
place = "{0, 21}";
target = up;
type = BottomGhost;
},
{
horizontal = 1;
place = "{763, -20}";
target = down;
type = TopGhost;
},
{
place = "{50, 126}";
type = Stem;
},
{
place = "{379, 125}";
type = Stem;
}
);
layerId = "9F677CD6-B234-481A-8F27-4A5B4DD836E1";
paths = (
{
closed = 1;
nodes = (
"50 63 LINE SMOOTH",
"50 28 OFFCURVE",
"78 0 OFFCURVE",
"113 0 CURVE SMOOTH",
"148 0 OFFCURVE",
"176 28 OFFCURVE",
"176 63 CURVE SMOOTH",
"176 334 LINE",
"255 334 LINE SMOOTH",
"323 334 OFFCURVE",
"379 278 OFFCURVE",
"379 210 CURVE SMOOTH",
"379 63 LINE SMOOTH",
"379 28 OFFCURVE",
"407 0 OFFCURVE",
"441 0 CURVE SMOOTH",
"476 0 OFFCURVE",
"504 28 OFFCURVE",
"504 63 CURVE SMOOTH",
"504 210 LINE SMOOTH",
"504 324 OFFCURVE",
"428 420 OFFCURVE",
"324 450 CURVE",
"477 663 LINE SMOOTH",
"498 692 OFFCURVE",
"491 731 OFFCURVE",
"463 751 CURVE SMOOTH",
"435 771 OFFCURVE",
"396 765 OFFCURVE",
"375 737 CURVE SMOOTH",
"176 459 LINE",
"176 459 OFFCURVE",
"176 459 OFFCURVE",
"176 459 CURVE",
"176 459 LINE",
"176 700 LINE SMOOTH",
"176 735 OFFCURVE",
"148 763 OFFCURVE",
"113 763 CURVE SMOOTH",
"78 763 OFFCURVE",
"50 735 OFFCURVE",
"50 700 CURVE SMOOTH"
);
}
);
width = 539;
}
);
note = K;
unicode = 004B;
},
{
glyphname = K.alt1;
layers = (
{
hints = (
{
horizontal = 1;
place = "{-1, 21}";
target = up;
type = BottomGhost;
},
{
place = "{50, 126}";
type = Stem;
}
);
layerId = "9F677CD6-B234-481A-8F27-4A5B4DD836E1";
paths = (
{
closed = 1;
nodes = (
"287 413 LINE",
"519 656 LINE SMOOTH",
"542 681 OFFCURVE",
"542 721 OFFCURVE",
"516 745 CURVE SMOOTH",
"491 769 OFFCURVE",
"452 768 OFFCURVE",
"428 743 CURVE SMOOTH",
"176 478 LINE",
"176 699 LINE SMOOTH",
"176 734 OFFCURVE",
"147 762 OFFCURVE",
"113 762 CURVE SMOOTH",
"78 762 OFFCURVE",
"50 734 OFFCURVE",
"50 699 CURVE SMOOTH",
"50 62 LINE SMOOTH",
"50 27 OFFCURVE",
"78 -1 OFFCURVE",
"113 -1 CURVE SMOOTH",
"147 -1 OFFCURVE",
"176 27 OFFCURVE",
"176 62 CURVE SMOOTH",
"176 351 LINE",
"435 23 LINE SMOOTH",
"448 7 OFFCURVE",
"466 -1 OFFCURVE",
"484 -1 CURVE SMOOTH",
"498 -1 OFFCURVE",
"512 4 OFFCURVE",
"523 13 CURVE SMOOTH",
"551 34 OFFCURVE",
"555 74 OFFCURVE",
"534 101 CURVE SMOOTH"
);
}
);
width = 568;
}
);
note = K.alt1;
rightKerningGroup = K.alt1;
},
{
glyphname = K.alt2;
layers = (
{
hints = (
{
horizontal = 1;
place = "{0, 21}";
target = up;
type = BottomGhost;
},
{
horizontal = 1;
place = "{341, 126}";
type = Stem;
},
{
horizontal = 1;
place = "{763, -20}";
target = down;
type = TopGhost;
},
{
place = "{50, 125}";
type = Stem;
},
{
place = "{416, 125}";
type = Stem;
},
{
place = "{362, 125}";
type = Stem;
}
);
layerId = "9F677CD6-B234-481A-8F27-4A5B4DD836E1";
paths = (
{
closed = 1;
nodes = (
"147 0 OFFCURVE",
"175 28 OFFCURVE",
"175 63 CURVE SMOOTH",
"175 341 LINE",
"292 341 LINE SMOOTH",
"360 341 OFFCURVE",
"416 286 OFFCURVE",
"416 217 CURVE SMOOTH",
"416 63 LINE SMOOTH",
"416 28 OFFCURVE",
"444 0 OFFCURVE",
"478 0 CURVE SMOOTH",
"513 0 OFFCURVE",
"541 28 OFFCURVE",
"541 63 CURVE SMOOTH",
"541 217 LINE SMOOTH",
"541 305 OFFCURVE",
"495 383 OFFCURVE",
"426 427 CURVE",
"464 471 OFFCURVE",
"487 528 OFFCURVE",
"487 591 CURVE SMOOTH",
"487 700 LINE SMOOTH",
"487 735 OFFCURVE",
"459 763 OFFCURVE",
"424 763 CURVE SMOOTH",
"390 763 OFFCURVE",
"362 735 OFFCURVE",
"362 700 CURVE SMOOTH",
"362 591 LINE SMOOTH",
"362 522 OFFCURVE",
"306 467 OFFCURVE",
"238 467 CURVE SMOOTH",
"175 467 LINE",
"175 700 LINE SMOOTH",
"175 735 OFFCURVE",
"147 763 OFFCURVE",
"112 763 CURVE SMOOTH",
"78 763 OFFCURVE",
"50 735 OFFCURVE",
"50 700 CURVE SMOOTH",
"50 63 LINE SMOOTH",
"50 28 OFFCURVE",
"78 0 OFFCURVE",
"112 0 CURVE SMOOTH"
);
}
);
width = 576;
}
);
note = K.alt2;
},
{
glyphname = K.alt3;
layers = (
{
hints = (
{
horizontal = 1;
place = "{0, 21}";
target = up;
type = BottomGhost;
},
{
horizontal = 1;
place = "{763, -20}";
target = down;
type = TopGhost;
},
{
place = "{50, 126}";
type = Stem;
}
);
layerId = "9F677CD6-B234-481A-8F27-4A5B4DD836E1";
paths = (
{
closed = 1;
nodes = (
"50 63 LINE SMOOTH",
"50 28 OFFCURVE",
"79 0 OFFCURVE",
"113 0 CURVE SMOOTH",
"148 0 OFFCURVE",
"176 28 OFFCURVE",
"176 63 CURVE SMOOTH",
"176 348 LINE",
"409 26 LINE SMOOTH",
"421 9 OFFCURVE",
"440 0 OFFCURVE",
"460 0 CURVE SMOOTH",
"473 0 OFFCURVE",
"485 4 OFFCURVE",
"497 12 CURVE SMOOTH",
"525 32 OFFCURVE",
"531 71 OFFCURVE",
"511 99 CURVE SMOOTH",
"284 413 LINE",
"505 658 LINE SMOOTH",
"528 684 OFFCURVE",
"526 724 OFFCURVE",
"501 747 CURVE SMOOTH",
"475 770 OFFCURVE",
"435 768 OFFCURVE",
"412 742 CURVE SMOOTH",
"176 480 LINE",
"176 700 LINE SMOOTH",
"176 735 OFFCURVE",
"148 763 OFFCURVE",
"113 763 CURVE SMOOTH",
"79 763 OFFCURVE",
"50 735 OFFCURVE",
"50 700 CURVE SMOOTH"
);
}
);
width = 543;
}
);
note = K.alt3;
rightKerningGroup = K.alt1;
},
{
glyphname = k;
layers = (
{
hints = (
{
horizontal = 1;
place = "{0, 21}";
target = up;
type = BottomGhost;
},
{
horizontal = 1;
place = "{763, -20}";
target = down;
type = TopGhost;
},
{
place = "{45, 119}";
type = Stem;
},
{
place = "{356, 119}";
type = Stem;
}
);
layerId = "9F677CD6-B234-481A-8F27-4A5B4DD836E1";
paths = (
{
closed = 1;
nodes = (
"434 463 LINE SMOOTH",
"458 485 OFFCURVE",
"460 522 OFFCURVE",
"439 547 CURVE SMOOTH",
"417 572 OFFCURVE",
"379 574 OFFCURVE",
"355 552 CURVE SMOOTH",
"164 383 LINE",
"164 704 LINE SMOOTH",
"164 737 OFFCURVE",
"138 763 OFFCURVE",
"105 763 CURVE SMOOTH",
"72 763 OFFCURVE",
"45 737 OFFCURVE",
"45 704 CURVE SMOOTH",
"45 59 LINE SMOOTH",
"45 26 OFFCURVE",
"72 0 OFFCURVE",
"105 0 CURVE SMOOTH",
"138 0 OFFCURVE",
"164 26 OFFCURVE",
"164 59 CURVE SMOOTH",
"164 264 LINE",
"244 264 LINE SMOOTH",
"306 264 OFFCURVE",
"356 213 OFFCURVE",
"356 152 CURVE SMOOTH",
"356 59 LINE SMOOTH",
"356 26 OFFCURVE",
"382 0 OFFCURVE",
"415 0 CURVE SMOOTH",
"448 0 OFFCURVE",
"475 26 OFFCURVE",
"475 59 CURVE SMOOTH",
"475 152 LINE SMOOTH",
"475 250 OFFCURVE",
"413 334 OFFCURVE",
"326 367 CURVE"
);
}
);
width = 515;
}
);
note = k;
unicode = 006B;
},
{
glyphname = L;
layers = (
{
hints = (
{
horizontal = 1;
place = "{0, 125}";
type = Stem;
},
{
horizontal = 1;
place = "{763, -20}";
target = down;
type = TopGhost;
},
{
place = "{50, 126}";
type = Stem;
}
);
layerId = "9F677CD6-B234-481A-8F27-4A5B4DD836E1";
paths = (
{
closed = 1;
nodes = (
"50 63 LINE SMOOTH",
"50 28 OFFCURVE",
"78 0 OFFCURVE",
"113 0 CURVE SMOOTH",
"419 0 LINE SMOOTH",
"454 0 OFFCURVE",
"482 28 OFFCURVE",
"482 63 CURVE SMOOTH",
"482 97 OFFCURVE",
"454 125 OFFCURVE",
"419 125 CURVE SMOOTH",
"176 125 LINE",
"176 700 LINE SMOOTH",
"176 735 OFFCURVE",
"148 763 OFFCURVE",
"113 763 CURVE SMOOTH",
"78 763 OFFCURVE",
"50 735 OFFCURVE",
"50 700 CURVE SMOOTH"
);
}
);
width = 497;
}
);
note = L;
unicode = 004C;
},
{
glyphname = L.alt;
layers = (
{
hints = (
{
horizontal = 1;
place = "{-20, 126}";
type = Stem;
},
{
horizontal = 1;
place = "{763, -20}";
target = down;
type = TopGhost;
},
{
place = "{48, 125}";
type = Stem;
},
{
place = "{421, 126}";
type = Stem;
}
);
layerId = "9F677CD6-B234-481A-8F27-4A5B4DD836E1";
paths = (
{
closed = 1;
nodes = (
"529 329 OFFCURVE",
"494 349 OFFCURVE",
"461 340 CURVE SMOOTH",
"427 330 OFFCURVE",
"408 296 OFFCURVE",
"417 262 CURVE SMOOTH",
"420 252 OFFCURVE",
"421 241 OFFCURVE",
"421 230 CURVE SMOOTH",
"421 161 OFFCURVE",
"365 106 OFFCURVE",
"297 106 CURVE SMOOTH",
"229 106 OFFCURVE",
"173 161 OFFCURVE",
"173 230 CURVE SMOOTH",
"173 700 LINE SMOOTH",
"173 735 OFFCURVE",
"145 763 OFFCURVE",
"110 763 CURVE SMOOTH",
"76 763 OFFCURVE",
"48 735 OFFCURVE",
"48 700 CURVE SMOOTH",
"48 230 LINE SMOOTH",
"48 92 OFFCURVE",
"160 -20 OFFCURVE",
"297 -20 CURVE SMOOTH",
"435 -20 OFFCURVE",
"547 92 OFFCURVE",
"547 230 CURVE SMOOTH",
"547 252 OFFCURVE",
"544 274 OFFCURVE",
"538 296 CURVE SMOOTH"
);
}
);
width = 575;
}
);
leftKerningGroup = L.alt;
note = L.alt;
},
{
glyphname = l;
layers = (
{
hints = (
{
horizontal = 1;
place = "{0, 21}";
target = up;
type = BottomGhost;
},
{
horizontal = 1;
place = "{763, -20}";
target = down;
type = TopGhost;
},
{
place = "{45, 119}";
type = Stem;
}
);
layerId = "9F677CD6-B234-481A-8F27-4A5B4DD836E1";
paths = (
{
closed = 1;
nodes = (
"72 763 OFFCURVE",
"45 737 OFFCURVE",
"45 704 CURVE SMOOTH",
"45 59 LINE SMOOTH",
"45 26 OFFCURVE",
"72 0 OFFCURVE",
"105 0 CURVE SMOOTH",
"138 0 OFFCURVE",
"164 26 OFFCURVE",
"164 59 CURVE SMOOTH",
"164 704 LINE SMOOTH",
"164 737 OFFCURVE",
"138 763 OFFCURVE",
"105 763 CURVE SMOOTH"
);
}
);
width = 209;
}
);
note = l;
unicode = 006C;
},
{
glyphname = M;
layers = (
{
hints = (
{
horizontal = 1;
place = "{-1, 21}";
target = up;
type = BottomGhost;
}
);
layerId = "9F677CD6-B234-481A-8F27-4A5B4DD836E1";
paths = (
{
closed = 1;
nodes = (
"650 708 LINE SMOOTH",
"647 736 OFFCURVE",
"624 758 OFFCURVE",
"596 761 CURVE SMOOTH",
"568 765 OFFCURVE",
"541 749 OFFCURVE",
"530 723 CURVE SMOOTH",
"382 362 LINE",
"234 723 LINE SMOOTH",
"224 749 OFFCURVE",
"197 765 OFFCURVE",
"168 761 CURVE SMOOTH",
"140 758 OFFCURVE",
"118 736 OFFCURVE",
"114 708 CURVE SMOOTH",
"26 70 LINE SMOOTH",
"22 36 OFFCURVE",
"46 4 OFFCURVE",
"80 -1 CURVE SMOOTH",
"114 -5 OFFCURVE",
"146 19 OFFCURVE",
"151 53 CURVE SMOOTH",
"207 459 LINE",
"324 172 LINE SMOOTH",
"334 149 OFFCURVE",
"357 133 OFFCURVE",
"382 133 CURVE SMOOTH",
"408 133 OFFCURVE",
"431 149 OFFCURVE",
"440 172 CURVE SMOOTH",
"558 459 LINE",
"614 53 LINE SMOOTH",
"618 21 OFFCURVE",
"645 -1 OFFCURVE",
"676 -1 CURVE SMOOTH",
"679 -1 OFFCURVE",
"682 -1 OFFCURVE",
"685 -1 CURVE SMOOTH",
"719 4 OFFCURVE",
"743 36 OFFCURVE",
"738 70 CURVE SMOOTH"
);
}
);
width = 764;
}
);
leftKerningGroup = M;
note = M;
rightKerningGroup = M;
unicode = 004D;
},
{
glyphname = M.alt1;
layers = (
{
hints = (
{
horizontal = 1;
place = "{0, 21}";
target = up;
type = BottomGhost;
},
{
place = "{50, 125}";
type = Stem;
},
{
place = "{637, 126}";
type = Stem;
}
);
layerId = "9F677CD6-B234-481A-8F27-4A5B4DD836E1";
paths = (
{
closed = 1;
nodes = (
"147 0 OFFCURVE",
"175 28 OFFCURVE",
"175 63 CURVE SMOOTH",
"175 569 LINE",
"367 415 LINE SMOOTH",
"390 397 OFFCURVE",
"423 397 OFFCURVE",
"446 415 CURVE SMOOTH",
"637 569 LINE",
"637 63 LINE SMOOTH",
"637 28 OFFCURVE",
"665 0 OFFCURVE",
"700 0 CURVE SMOOTH",
"735 0 OFFCURVE",
"763 28 OFFCURVE",
"763 63 CURVE SMOOTH",
"763 700 LINE SMOOTH",
"763 724 OFFCURVE",
"749 746 OFFCURVE",
"727 757 CURVE SMOOTH",
"705 767 OFFCURVE",
"680 764 OFFCURVE",
"661 749 CURVE SMOOTH",
"406 545 LINE",
"152 749 LINE SMOOTH",
"133 764 OFFCURVE",
"107 767 OFFCURVE",
"85 757 CURVE SMOOTH",
"64 746 OFFCURVE",
"50 724 OFFCURVE",
"50 700 CURVE SMOOTH",
"50 63 LINE SMOOTH",
"50 28 OFFCURVE",
"78 0 OFFCURVE",
"112 0 CURVE SMOOTH"
);
}
);
width = 813;
}
);
note = M.alt1;
},
{
glyphname = M.alt2;
layers = (
{
hints = (
{
horizontal = 1;
place = "{-1, 21}";
target = up;
type = BottomGhost;
},
{
place = "{50, 125}";
type = Stem;
},
{
place = "{637, 126}";
type = Stem;
}
);
layerId = "9F677CD6-B234-481A-8F27-4A5B4DD836E1";
paths = (
{
closed = 1;
nodes = (
"735 -1 OFFCURVE",
"763 27 OFFCURVE",
"763 61 CURVE SMOOTH",
"763 699 LINE SMOOTH",
"763 729 OFFCURVE",
"743 754 OFFCURVE",
"714 760 CURVE SMOOTH",
"685 767 OFFCURVE",
"656 752 OFFCURVE",
"643 726 CURVE SMOOTH",
"406 216 LINE",
"169 726 LINE SMOOTH",
"157 752 OFFCURVE",
"128 767 OFFCURVE",
"99 760 CURVE SMOOTH",
"70 754 OFFCURVE",
"50 729 OFFCURVE",
"50 699 CURVE SMOOTH",
"50 61 LINE SMOOTH",
"50 27 OFFCURVE",
"78 -1 OFFCURVE",
"113 -1 CURVE SMOOTH",
"147 -1 OFFCURVE",
"175 27 OFFCURVE",
"175 61 CURVE SMOOTH",
"175 415 LINE",
"349 40 LINE SMOOTH",
"360 18 OFFCURVE",
"382 4 OFFCURVE",
"406 4 CURVE SMOOTH",
"431 4 OFFCURVE",
"453 18 OFFCURVE",
"463 40 CURVE SMOOTH",
"637 415 LINE",
"637 61 LINE SMOOTH",
"637 27 OFFCURVE",
"666 -1 OFFCURVE",
"700 -1 CURVE SMOOTH"
);
}
);
width = 813;
}
);
note = M.alt2;
},
{
glyphname = M.alt3;
layers = (
{
hints = (
{
horizontal = 1;
place = "{-1, 21}";
target = up;
type = BottomGhost;
}
);
layerId = "9F677CD6-B234-481A-8F27-4A5B4DD836E1";
paths = (
{
closed = 1;
nodes = (
"124 -5 OFFCURVE",
"156 19 OFFCURVE",
"160 53 CURVE SMOOTH",
"211 422 LINE",
"332 53 LINE SMOOTH",
"341 27 OFFCURVE",
"365 10 OFFCURVE",
"392 10 CURVE SMOOTH",
"419 10 OFFCURVE",
"443 27 OFFCURVE",
"452 53 CURVE SMOOTH",
"573 422 LINE",
"624 53 LINE SMOOTH",
"628 21 OFFCURVE",
"655 -1 OFFCURVE",
"686 -1 CURVE SMOOTH",
"689 -1 OFFCURVE",
"692 -1 OFFCURVE",
"694 -1 CURVE SMOOTH",
"729 4 OFFCURVE",
"753 36 OFFCURVE",
"748 70 CURVE SMOOTH",
"660 708 LINE SMOOTH",
"656 737 OFFCURVE",
"633 759 OFFCURVE",
"604 762 CURVE SMOOTH",
"575 764 OFFCURVE",
"547 746 OFFCURVE",
"538 719 CURVE SMOOTH",
"392 274 LINE",
"246 719 LINE SMOOTH",
"237 746 OFFCURVE",
"210 764 OFFCURVE",
"180 762 CURVE SMOOTH",
"151 759 OFFCURVE",
"128 737 OFFCURVE",
"124 708 CURVE SMOOTH",
"36 70 LINE SMOOTH",
"31 36 OFFCURVE",
"55 4 OFFCURVE",
"90 -1 CURVE SMOOTH"
);
}
);
width = 784;
}
);
leftKerningGroup = M;
note = M.alt3;
rightKerningGroup = M;
},
{
glyphname = M.alt4;
layers = (
{
hints = (
{
horizontal = 1;
place = "{0, 21}";
target = up;
type = BottomGhost;
},
{
place = "{50, 126}";
type = Stem;
},
{
place = "{483, 126}";
type = Stem;
}
);
layerId = "9F677CD6-B234-481A-8F27-4A5B4DD836E1";
paths = (
{
closed = 1;
nodes = (
"68 753 OFFCURVE",
"50 728 OFFCURVE",
"50 701 CURVE SMOOTH",
"50 63 LINE SMOOTH",
"50 28 OFFCURVE",
"78 0 OFFCURVE",
"113 0 CURVE SMOOTH",
"148 0 OFFCURVE",
"176 28 OFFCURVE",
"176 63 CURVE SMOOTH",
"176 497 LINE",
"494 28 LINE SMOOTH",
"510 5 OFFCURVE",
"538 -5 OFFCURVE",
"565 3 CURVE SMOOTH",
"591 11 OFFCURVE",
"609 36 OFFCURVE",
"609 63 CURVE SMOOTH",
"609 497 LINE",
"927 28 LINE SMOOTH",
"947 -1 OFFCURVE",
"986 -8 OFFCURVE",
"1015 11 CURVE SMOOTH",
"1043 31 OFFCURVE",
"1051 70 OFFCURVE",
"1031 99 CURVE SMOOTH",
"598 736 LINE SMOOTH",
"583 759 OFFCURVE",
"554 769 OFFCURVE",
"528 761 CURVE SMOOTH",
"501 753 OFFCURVE",
"483 728 OFFCURVE",
"483 701 CURVE SMOOTH",
"483 267 LINE",
"165 736 LINE SMOOTH",
"149 759 OFFCURVE",
"121 769 OFFCURVE",
"94 761 CURVE SMOOTH"
);
}
);
width = 1063;
}
);
note = M.alt4;
rightKerningGroup = A.alt4;
},
{
glyphname = M.alt5;
layers = (
{
hints = (
{
horizontal = 1;
place = "{0, 21}";
target = up;
type = BottomGhost;
},
{
place = "{454, 125}";
type = Stem;
},
{
place = "{887, 126}";
type = Stem;
}
);
layerId = "9F677CD6-B234-481A-8F27-4A5B4DD836E1";
paths = (
{
closed = 1;
nodes = (
"77 -8 OFFCURVE",
"116 -1 OFFCURVE",
"135 28 CURVE SMOOTH",
"454 497 LINE",
"454 63 LINE SMOOTH",
"454 36 OFFCURVE",
"472 11 OFFCURVE",
"498 3 CURVE SMOOTH",
"525 -5 OFFCURVE",
"553 5 OFFCURVE",
"569 28 CURVE SMOOTH",
"887 497 LINE",
"887 63 LINE SMOOTH",
"887 28 OFFCURVE",
"915 0 OFFCURVE",
"950 0 CURVE SMOOTH",
"985 0 OFFCURVE",
"1013 28 OFFCURVE",
"1013 63 CURVE SMOOTH",
"1013 701 LINE SMOOTH",
"1013 728 OFFCURVE",
"995 753 OFFCURVE",
"968 761 CURVE SMOOTH",
"942 769 OFFCURVE",
"913 759 OFFCURVE",
"898 736 CURVE SMOOTH",
"579 267 LINE",
"579 701 LINE SMOOTH",
"579 728 OFFCURVE",
"561 753 OFFCURVE",
"535 761 CURVE SMOOTH",
"509 769 OFFCURVE",
"480 759 OFFCURVE",
"465 736 CURVE SMOOTH",
"32 99 LINE SMOOTH",
"12 70 OFFCURVE",
"20 31 OFFCURVE",
"48 11 CURVE SMOOTH"
);
}
);
width = 1063;
}
);
leftKerningGroup = A.alt5;
note = M.alt5;
},
